<svg width="98" height="12" viewBox="0 0 98 12" fill="none" xmlns="http://www.w3.org/2000/svg">
<path d="M22.8976 7.43158V0.399999H25.0773V11.7053H23.7177V11.7263L17.6318 4.10526V11.7263H15.4521V0.421053H17.2218L22.8976 7.43158ZM38.0476 0.442105H40.2057V6.90526C40.2057 8.52631 39.7525 9.76842 38.8245 10.6526C37.9181 11.5158 36.688 11.9579 35.1773 11.9579C33.7098 11.9579 32.4796 11.5158 31.5085 10.6526C30.5373 9.78947 30.041 8.52631 30.041 6.90526V0.442105H32.1991V6.90526C32.1991 7.91579 32.4796 8.67368 33.0192 9.22105C33.5587 9.76842 34.2924 10.0211 35.1989 10.0211C36.0837 10.0211 36.7959 9.74737 37.2922 9.2C37.7886 8.65263 38.026 7.89474 38.026 6.90526V0.442105H38.0476ZM54.2119 2.27368L52.4854 3.13684C52.2695 2.8 51.9243 2.50526 51.4063 2.25263C50.9099 2 50.3488 1.87368 49.7446 1.87368C48.9676 1.87368 48.3634 2.02105 47.9533 2.29474C47.5433 2.56842 47.349 2.92632 47.349 3.36842C47.349 3.68421 47.4785 3.93684 47.7375 4.12632C47.9965 4.31579 48.2986 4.46316 48.6223 4.54737C48.9676 4.63158 49.3992 4.71579 49.9388 4.77895C50.4783 4.8421 50.9531 4.92631 51.3631 5.01053C51.7732 5.09474 52.1832 5.22105 52.6148 5.41053C53.0465 5.57895 53.3918 5.78947 53.6723 6.0421C53.9529 6.27368 54.1687 6.61053 54.3413 7.01053C54.514 7.41053 54.6003 7.87368 54.6003 8.4C54.6003 9.2 54.3629 9.89474 53.9097 10.4421C53.4565 10.9895 52.8522 11.3895 52.1401 11.6421C51.4279 11.8737 50.6294 12 49.7446 12C47.1548 12 45.4715 11.0737 44.6946 9.22105L46.5074 8.29474C46.7448 8.88421 47.1764 9.32631 47.7591 9.6421C48.3418 9.93684 49.0108 10.0842 49.7661 10.0842C50.5215 10.0842 51.1689 9.93684 51.6653 9.66316C52.1616 9.38947 52.4206 8.96842 52.4206 8.37895C52.4206 7.45263 51.5358 6.90526 49.7446 6.71579C49.0755 6.63158 48.4928 6.54737 48.0181 6.42105C47.5433 6.29474 47.0685 6.10526 46.5937 5.87368C46.1405 5.62105 45.7736 5.28421 45.5362 4.86316C45.2988 4.4421 45.1909 3.91579 45.1909 3.30526C45.1909 2.56842 45.4283 1.95789 45.8815 1.43158C46.3347 0.905262 46.8958 0.547368 47.5433 0.336842C48.1907 0.126315 48.9029 0.0210526 49.6582 0C51.9458 0.0421053 53.4565 0.778946 54.2119 2.27368ZM67.2253 0.442105H69.3834V6.90526C69.3834 8.52631 68.9302 9.76842 68.0022 10.6526C67.0958 11.5158 65.8657 11.9579 64.355 11.9579C62.8875 11.9579 61.6573 11.5158 60.6862 10.6526C59.715 9.78947 59.2187 8.52631 59.2187 6.90526V0.442105H61.3768V6.90526C61.3768 7.91579 61.6573 8.67368 62.1969 9.22105C62.7364 9.76842 63.4702 10.0211 64.3766 10.0211C65.2614 10.0211 65.9736 9.74737 66.4699 9.2C66.9663 8.65263 67.2037 7.89474 67.2037 6.90526V0.442105H67.2253ZM75.6635 11.7053H73.2896L78.4906 0.421053H80.8646L86.0656 11.7053H83.6917L79.6992 2.8L75.6635 11.7053ZM89.8639 0.421053H92.0436V9.74737H98V11.7053H89.8639V0.421053ZM8.0066 0.442105H10.1647V6.90526C10.1647 8.52631 9.71151 9.76842 8.78352 10.6526C7.87712 11.5158 6.64699 11.9579 5.13631 11.9579C3.66879 11.9579 2.43867 11.5158 1.46752 10.6526C0.496364 9.78947 0 8.52631 0 6.90526V0.442105H2.15812V6.90526C2.15812 7.91579 2.43867 8.67368 2.9782 9.22105C3.51772 9.76842 4.25149 10.0211 5.15789 10.0211C6.04272 10.0211 6.75489 9.74737 7.25126 9.2C7.74763 8.65263 7.98503 7.89474 7.98503 6.90526V0.442105H8.0066Z" fill="black"/>
</svg>
