<svg width="128" height="52" viewBox="0 0 128 52" fill="none" xmlns="http://www.w3.org/2000/svg">
<path d="M106.426 26.9683C106.583 26.9443 106.621 26.8048 106.683 26.6959C108.426 23.6325 110.17 20.5707 111.905 17.5024C112.049 17.249 112.217 17.1441 112.51 17.1491C113.487 17.1648 114.464 17.154 115.441 17.1557C115.79 17.1557 115.917 17.282 115.918 17.6237C115.932 22.9828 115.945 28.3411 115.959 33.7001C115.96 34.1302 115.859 34.2293 115.425 34.2301C114.352 34.2301 113.279 34.2301 112.206 34.2301C111.815 34.2301 111.708 34.122 111.708 33.729C111.708 31.1287 111.708 28.5284 111.708 25.9282V25.702C111.643 25.5971 111.572 25.5559 111.47 25.5806C111.384 25.6351 111.351 25.7292 111.304 25.8118C110.081 27.9457 108.857 30.0795 107.642 32.2176C107.507 32.4536 107.348 32.5643 107.068 32.5511C106.615 32.5304 106.16 32.5362 105.706 32.5494C105.474 32.556 105.338 32.4578 105.229 32.2654C104.267 30.5674 103.302 28.8719 102.337 27.1763C102.082 26.7281 101.827 26.2806 101.574 25.8324C101.522 25.7399 101.471 25.65 101.336 25.6624C101.176 25.7201 101.205 25.8621 101.205 25.9892C101.205 28.0464 101.205 30.1027 101.205 32.1598C101.205 32.6963 101.206 33.2329 101.205 33.7695C101.204 34.1054 101.079 34.2301 100.744 34.2309C99.6229 34.2326 98.5011 34.2326 97.38 34.2309C97.0565 34.2309 96.926 34.1013 96.926 33.7843C96.926 28.3914 96.926 22.9985 96.926 17.6048C96.926 17.2878 97.0565 17.159 97.38 17.1582C98.3847 17.1565 99.3885 17.1631 100.393 17.154C100.637 17.1516 100.784 17.2432 100.904 17.4537C102.664 20.5468 104.429 23.6374 106.194 26.7281C106.251 26.8279 106.294 26.9435 106.427 26.9716L106.426 26.9683Z" fill="black"/>
<path d="M84.5734 16.8189C86.3945 16.8148 88.1016 17.2366 89.6486 18.2156C90.9669 19.0494 91.9707 20.177 92.688 21.5638C93.4334 23.0035 93.7372 24.5389 93.6613 26.1469C93.4739 30.1068 90.9504 33.2816 87.1077 34.2458C84.1252 34.9937 81.302 34.5554 78.7942 32.6799C77.2835 31.5498 76.288 30.0284 75.829 28.2131C75.0431 25.106 75.5318 22.2291 77.6814 19.7609C79.0649 18.171 80.8587 17.2828 82.9307 16.9468C83.4747 16.8585 84.0228 16.8205 84.5734 16.8205V16.8189ZM88.9964 25.6004C88.9849 25.0333 88.9007 24.382 88.6695 23.7555C88.3005 22.7558 87.6955 21.941 86.7684 21.397C85.9091 20.8927 84.9738 20.7301 83.9882 20.8613C82.1935 21.1007 81.056 22.1507 80.4592 23.8058C80.0828 24.8501 80.0737 25.9381 80.3057 27.0195C80.7027 28.8694 81.9847 30.2306 83.8379 30.4997C85.4575 30.735 86.8609 30.2934 87.9109 29.0015C88.6836 28.0497 88.9865 26.9138 88.9956 25.5996L88.9964 25.6004Z" fill="black"/>
<path d="M47.2765 30.2329C47.3326 30.398 47.4564 30.3963 47.5844 30.3963C48.5064 30.3955 49.4277 30.3963 50.3498 30.3963C51.8769 30.3963 53.4041 30.3963 54.9312 30.3963C55.3151 30.3963 55.4158 30.4987 55.4158 30.8858C55.4158 31.8417 55.4158 32.7985 55.4158 33.7544C55.4158 34.1044 55.2969 34.2274 54.9527 34.2274C50.5776 34.2274 46.2025 34.2274 41.8274 34.2274C41.4807 34.2274 41.356 34.1011 41.3552 33.7552C41.3536 32.985 41.3569 32.214 41.3527 31.4439C41.3519 31.2779 41.3981 31.1409 41.5021 31.0088C44.0389 27.7993 46.5731 24.5882 49.1074 21.3762C49.1734 21.292 49.2725 21.2127 49.2122 21.0873C49.152 20.9634 49.0298 20.9857 48.9208 20.9857C46.6367 20.9857 44.3534 20.9857 42.0693 20.9857C41.6606 20.9857 41.5608 20.8842 41.5599 20.4715C41.5599 19.5287 41.5599 18.5869 41.5599 17.6441C41.5599 17.2694 41.6763 17.1538 42.0544 17.1538C46.2297 17.1538 50.4051 17.1538 54.5812 17.1538C54.97 17.1538 55.0848 17.2677 55.0848 17.6541C55.0848 18.4176 55.0815 19.1812 55.0873 19.9448C55.0881 20.1132 55.0386 20.2486 54.9362 20.3798C52.4482 23.5571 49.9618 26.7369 47.4762 29.9167C47.4011 30.0125 47.307 30.0983 47.2756 30.2337L47.2765 30.2329Z" fill="black"/>
<path d="M57.2897 25.7882C57.2707 23.5371 57.9435 21.6195 59.3361 19.9636C60.4389 18.6527 61.8414 17.7867 63.4726 17.3013C65.959 16.5617 68.4256 16.6244 70.8409 17.6051C72.0362 18.0905 73.0623 18.8326 73.9027 19.8191C74.0579 20.0007 74.0521 20.07 73.873 20.231C73.0037 21.0128 72.1353 21.7953 71.2661 22.5771C71.0465 22.7744 70.9755 22.7719 70.7691 22.5564C70.2705 22.0364 69.7141 21.5922 69.0612 21.2802C68.1053 20.8237 67.0998 20.7313 66.063 20.8898C64.7761 21.087 63.7368 21.6913 63.0029 22.781C62.4325 23.6279 62.1956 24.5789 62.1799 25.5884C62.1626 26.6938 62.4168 27.724 63.0359 28.656C63.5428 29.4187 64.2387 29.9289 65.0889 30.2376C66.2537 30.6611 67.435 30.6759 68.6072 30.2896C69.3617 30.0411 70.0064 29.5879 70.5644 29.025C71.0465 28.5387 71.0019 28.5635 71.4667 28.9845C72.2517 29.6961 73.0417 30.4011 73.8284 31.1093C74.062 31.3198 74.0661 31.3842 73.8548 31.6162C72.5753 33.0236 71.0011 33.9176 69.1421 34.3147C67.8031 34.6003 66.4576 34.6284 65.103 34.4526C63.8755 34.2932 62.714 33.9317 61.6417 33.3142C59.6052 32.142 58.2506 30.4242 57.6026 28.1631C57.3722 27.3591 57.2798 26.5336 57.2913 25.7866L57.2897 25.7882Z" fill="black"/>
<path d="M21.2845 27.9966C21.4875 28.0635 21.5404 27.9306 21.594 27.7993C22.2123 26.2862 22.8314 24.7739 23.4506 23.2608C24.2356 21.3407 25.0206 19.4214 25.8057 17.5013C25.9254 17.2083 26.0038 17.1546 26.3142 17.1546C27.5177 17.1546 28.7213 17.1546 29.9249 17.1546C30.331 17.1546 30.4664 17.3618 30.3104 17.7399C28.122 23.0329 25.9336 28.3268 23.7453 33.6199C23.5438 34.1069 23.3631 34.2282 22.8397 34.2282C21.7319 34.2282 20.6249 34.2282 19.5171 34.2282C19.0358 34.2282 18.8509 34.1044 18.6685 33.6628C16.4809 28.3623 14.2926 23.0618 12.1042 17.7605C11.9391 17.361 12.0786 17.1546 12.512 17.1538C13.846 17.1538 15.1808 17.1538 16.5148 17.1538C16.8384 17.1538 16.9127 17.205 17.0357 17.5121C18.4043 20.9147 19.773 24.3166 21.1425 27.7193C21.1805 27.8142 21.2085 27.9149 21.2836 27.9958L21.2845 27.9966Z" fill="black"/>
<path d="M37.9286 25.7136C37.9286 28.375 37.9286 31.0364 37.9286 33.6977C37.9286 34.1319 37.832 34.2277 37.3962 34.2277C36.1992 34.2277 35.0031 34.2277 33.8061 34.2277C33.4025 34.2277 33.2943 34.1187 33.2943 33.7142C33.2943 28.3436 33.2943 22.973 33.2943 17.6024C33.2943 17.3011 33.4256 17.1599 33.7252 17.1591C34.9833 17.1566 36.2421 17.1566 37.5002 17.1591C37.8172 17.1591 37.9278 17.292 37.9278 17.6478C37.9278 20.3364 37.9278 23.025 37.9278 25.7144L37.9286 25.7136Z" fill="black"/>
</svg>
