<svg width="159" height="52" viewBox="0 0 159 52" fill="none" xmlns="http://www.w3.org/2000/svg">
<path d="M66.7667 27.7743L61.8282 17.2559H59.2642V34.1623H61.8282V22.8588L65.8169 31.1004H67.7165L71.6113 22.8588V34.1623H74.1753V17.2559H71.6113L66.7667 27.7743Z" fill="black"/>
<path d="M83.8073 29.4613C83.8073 31.3149 82.6584 32.1422 81.318 32.1422C79.9776 32.1422 78.8957 31.3341 78.8957 29.4613V22.1235H76.4695V29.8137C76.4695 31.1694 76.7549 32.303 77.6817 33.2126C78.394 33.8981 79.4146 34.304 80.6497 34.304C81.2488 34.3138 81.8433 34.1984 82.3953 33.9653C82.9472 33.7322 83.4445 33.3865 83.8552 32.9502V34.1604H86.2297V22.1235H83.8073V29.4613Z" fill="black"/>
<path d="M90.9752 30.6964V17.2559H88.5529V30.8381C88.5529 32.6208 89.5505 34.1623 91.8541 34.1623H93.3477V32.098H92.2811C91.3064 32.098 90.9752 31.6212 90.9752 30.6964Z" fill="black"/>
<path d="M99.1719 21.9819C96.0851 21.9819 94.0688 24.2396 94.0688 28.1325C94.0688 32.7148 96.4662 34.3061 99.4821 34.3061C101.588 34.3061 102.758 33.6627 103.992 32.4295L102.448 30.9799C101.594 31.8378 100.884 32.2131 99.5281 32.2131C97.5577 32.2131 96.4643 30.9091 96.4643 28.8429H104.275V27.7744C104.275 24.3564 102.402 21.9819 99.1719 21.9819ZM96.4662 27.1521C96.4892 26.4187 96.5371 26.0606 96.7745 25.5149C96.9749 25.0499 97.311 24.6563 97.7387 24.3854C98.1664 24.1145 98.6659 23.9789 99.1719 23.9964C99.6751 23.9795 100.172 24.1156 100.596 24.3867C101.02 24.6578 101.352 25.0511 101.548 25.5149C101.779 26.0292 101.892 26.5885 101.88 27.1521H96.4662Z" fill="black"/>
<path d="M116.232 25.8745C115.52 25.2349 114.643 24.8538 113.073 24.6164L111.158 24.333C110.463 24.2525 109.805 23.9815 109.255 23.5498C109.041 23.3503 108.873 23.1067 108.763 22.8359C108.652 22.5652 108.602 22.2736 108.615 21.9815C108.615 20.486 109.707 19.3448 111.702 19.3448C113.125 19.3448 114.337 19.653 115.38 20.6507L117.019 19.0365C115.572 17.6826 114.005 17.1216 111.773 17.1216C108.257 17.1216 106.12 19.1379 106.12 22.083C106.12 23.4598 106.526 24.5283 107.357 25.3134C108.092 26.0009 109.184 26.4777 110.561 26.6653L112.554 26.9525C113.554 27.0923 113.981 27.2608 114.408 27.6649C114.835 28.0689 115.072 28.6855 115.072 29.4227C115.072 31.0599 113.789 32.0078 111.583 32.0078C109.848 32.0078 108.496 31.6248 107.261 30.3936L105.551 32.0806C107.166 33.7197 108.998 34.3133 111.535 34.3133C115.072 34.3133 117.613 32.4597 117.613 29.35C117.609 27.8985 117.157 26.6825 116.232 25.8745Z" fill="black"/>
<path d="M123.998 21.9819C122.361 21.9819 121.199 22.5985 120.414 23.4066C119.274 24.5919 118.989 26.1142 118.989 28.1325C118.989 30.1508 119.274 31.6942 120.414 32.8795C121.199 33.6876 122.361 34.3061 123.998 34.3061C125.636 34.3061 126.827 33.6876 127.608 32.8795C128.747 31.6942 129.033 30.1738 129.033 28.1325C129.033 26.0913 128.747 24.5919 127.608 23.4066C126.825 22.5985 125.636 21.9819 123.998 21.9819ZM125.781 31.4318C125.546 31.6634 125.268 31.8456 124.962 31.968C124.655 32.0903 124.328 32.1502 123.998 32.1442C123.673 32.1505 123.35 32.0906 123.048 31.9682C122.747 31.8457 122.473 31.6632 122.244 31.4318C121.505 30.6965 121.411 29.4365 121.411 28.1325C121.411 26.8285 121.505 25.5666 122.244 24.8313C122.474 24.6032 122.749 24.4244 123.05 24.3059C123.352 24.1874 123.674 24.1316 123.998 24.1419C124.326 24.1319 124.653 24.1877 124.959 24.3061C125.266 24.4245 125.545 24.6031 125.781 24.8313C126.516 25.5666 126.612 26.8246 126.612 28.1325C126.612 29.4404 126.514 30.6965 125.779 31.4318H125.781Z" fill="black"/>
<path d="M131.48 20.4863V22.3457H130.101V24.1993H131.48V34.1719H133.902V24.1897H136.3V22.3457H133.902V20.6223C133.902 19.7434 134.325 19.2206 135.229 19.2206H136.3V17.1372H134.768C132.524 17.1372 131.48 18.7534 131.48 20.4863Z" fill="black"/>
<path d="M141.593 18.6826H139.174V22.3458H137.786V24.1994H139.167V30.8229C139.167 32.5578 140.208 34.172 142.464 34.172H143.914V32.0982H142.918C142.018 32.0982 141.578 31.5755 141.578 30.6965V24.186H143.914V22.3458H141.593V18.6826Z" fill="black"/>
<path d="M146.922 20.5474C146.854 20.3944 146.759 20.2555 146.64 20.1376C146.521 20.0216 146.38 19.9293 146.227 19.8657C146.068 19.7995 145.897 19.7657 145.725 19.7661C145.552 19.7658 145.38 19.7996 145.219 19.8657C145.065 19.9288 144.924 20.0211 144.804 20.1376C144.683 20.2543 144.587 20.3935 144.52 20.5474C144.451 20.7081 144.416 20.8816 144.417 21.0567C144.414 21.3149 144.489 21.5678 144.633 21.7827C144.776 21.9975 144.98 22.1643 145.219 22.2612C145.38 22.3266 145.552 22.3598 145.725 22.3589C146.067 22.3608 146.396 22.228 146.64 21.9893C146.759 21.8714 146.854 21.7325 146.922 21.5795C146.992 21.4156 147.027 21.2389 147.025 21.0606C147.027 20.8841 146.992 20.7093 146.922 20.5474ZM146.707 21.5048C146.605 21.7674 146.402 21.9787 146.144 22.0927C146.012 22.149 145.869 22.1777 145.725 22.1769C145.579 22.1781 145.434 22.1494 145.3 22.0927C145.172 22.0377 145.056 21.9577 144.959 21.8572C144.862 21.7552 144.785 21.6356 144.733 21.5048C144.678 21.3639 144.651 21.2137 144.653 21.0625C144.651 20.9144 144.679 20.7674 144.733 20.6297C144.785 20.5001 144.862 20.3817 144.959 20.2812C145.058 20.1791 145.178 20.0982 145.309 20.0436C145.441 19.9889 145.582 19.9616 145.725 19.9633C145.869 19.9626 146.012 19.9913 146.144 20.0476C146.271 20.1031 146.385 20.1824 146.481 20.2812C146.579 20.3785 146.656 20.4944 146.707 20.6221C146.763 20.7594 146.791 20.9065 146.79 21.0548C146.792 21.2069 146.764 21.3579 146.707 21.4991V21.5048Z" fill="black"/>
<path d="M146.221 21.0375C146.262 20.9996 146.293 20.9531 146.313 20.9013C146.333 20.8496 146.341 20.794 146.336 20.7387C146.341 20.6783 146.332 20.6176 146.311 20.5609C146.289 20.5042 146.255 20.4531 146.211 20.4113C146.093 20.331 145.952 20.2932 145.809 20.3041H145.223V21.8206H145.445V21.1677H145.696L146.108 21.8206H146.363L145.928 21.1504C146.035 21.1447 146.138 21.1052 146.221 21.0375ZM145.7 20.9781H145.445V20.4956H145.758C145.798 20.4927 145.838 20.4927 145.878 20.4956C145.916 20.5003 145.952 20.512 145.985 20.53C146.017 20.5456 146.043 20.5694 146.062 20.599C146.083 20.6357 146.093 20.6775 146.091 20.7196C146.094 20.769 146.083 20.8183 146.058 20.8613C146.036 20.8939 146.006 20.9198 145.97 20.936C145.93 20.9522 145.887 20.9619 145.844 20.9647C145.804 20.9762 145.754 20.9781 145.7 20.9781Z" fill="black"/>
<path d="M31.6063 5.68604C27.6486 5.68604 23.7798 6.85963 20.4891 9.0584C17.1984 11.2572 14.6336 14.3824 13.119 18.0388C11.6045 21.6952 11.2082 25.7187 11.9803 29.6003C12.7524 33.482 14.6582 37.0475 17.4568 39.846C20.2553 42.6445 23.8208 44.5503 27.7024 45.3224C31.5841 46.0945 35.6075 45.6982 39.2639 44.1837C42.9204 42.6692 46.0456 40.1044 48.2443 36.8137C50.4431 33.523 51.6167 29.6542 51.6167 25.6965C51.6167 20.3894 49.5085 15.2996 45.7558 11.547C42.0031 7.79427 36.9134 5.68604 31.6063 5.68604ZM31.6063 43.9471C27.9966 43.9471 24.468 42.8767 21.4667 40.8713C18.4654 38.8659 16.1262 36.0156 14.7449 32.6807C13.3635 29.3458 13.0021 25.6762 13.7063 22.1359C14.4105 18.5957 16.1487 15.3437 18.7011 12.7913C21.2535 10.2389 24.5055 8.50069 28.0457 7.79649C31.586 7.09228 35.2556 7.4537 38.5905 8.83505C41.9254 10.2164 44.7757 12.5556 46.7811 15.5569C48.7865 18.5582 49.8569 22.0868 49.8569 25.6965C49.8569 30.5368 47.9341 35.179 44.5114 38.6016C41.0888 42.0243 36.4466 43.9471 31.6063 43.9471Z" fill="black"/>
<path d="M46.0177 21.7177C44.4092 15.7146 39.4191 12.9629 39.4191 12.9629L38.858 13.8418L31.6179 25.1779L24.3624 13.8227L23.8167 12.9629C23.8167 12.9629 18.8265 15.7146 17.2142 21.7234C16.6639 23.6455 16.5136 25.66 16.7729 27.6425C17.0321 29.6249 17.6952 31.5331 18.7212 33.2491C20.2543 35.8699 22.5502 37.9607 25.3026 39.2426L26.643 34.1376C23.6386 32.7206 21.4595 29.8521 21.4595 26.1506C21.4539 24.2878 22.001 22.4652 23.0316 20.9134L29.2875 30.6946H33.9425L40.2003 20.9134C41.2309 22.4652 41.778 24.2878 41.7724 26.1506C41.7724 29.8521 39.5933 32.7206 36.5889 34.1376L37.9293 39.2426C40.6817 37.9607 42.9776 35.8699 44.5107 33.2491C45.5372 31.5322 46.2006 29.6231 46.4598 27.6396C46.719 25.6562 46.5685 23.6407 46.0177 21.7177Z" fill="black"/>
</svg>
