<svg width="121" height="52" viewBox="0 0 121 52" fill="none" xmlns="http://www.w3.org/2000/svg">
<path fill-rule="evenodd" clip-rule="evenodd" d="M12.154 4.52197H108.585V46.8705H12.154V4.52197ZM15.0513 7.41925V43.9732H105.688V7.41925H15.0513Z" fill="black"/>
<path d="M33.6331 34.2287C31.6533 34.2287 29.7507 33.4465 28.3697 32.0365C26.979 30.6265 26.2064 28.7239 26.2257 26.7344C26.2257 21.9829 30.2047 19.1919 33.778 19.1919C36.3276 19.1919 38.713 20.148 39.9975 22.3885L37.612 23.7792C36.7718 22.5044 35.3521 21.7511 33.8263 21.7608C31.7306 21.7608 29.2292 23.4122 29.2292 26.6862C29.2292 29.9601 31.6147 31.6308 34.0194 31.6308C35.6612 31.6115 37.1581 30.6941 37.9114 29.2358L40.3548 30.3754C38.9834 32.8767 36.5111 34.2094 33.6428 34.2094L33.6331 34.2287ZM49.1722 31.5246C51.8956 31.5246 53.7692 29.4772 53.7692 26.7248C53.7692 23.9724 51.8956 21.925 49.1722 21.925C46.4487 21.925 44.5075 23.9434 44.5075 26.6765C44.5075 29.4096 46.3811 31.5246 49.1722 31.5246ZM48.8824 34.2287C44.5751 34.2287 41.504 30.9548 41.504 26.7151C41.504 22.4755 44.5462 19.2015 48.8824 19.2015C50.8719 19.2015 52.7938 20.0417 53.7112 21.3359V19.5782H56.6568V33.8328H53.7112V32.0654C52.7455 33.3499 50.8719 34.2287 48.8824 34.2287ZM71.5585 33.8231V22.3209H69.2889V19.4719H71.5874V15.2612H74.6296V19.4719H77.7779V22.3209H74.6296V33.8135H71.5585V33.8231ZM86.4698 31.5246C89.1932 31.5246 91.0668 29.4772 91.0668 26.7248C91.0668 23.9724 89.1932 21.925 86.4698 21.925C83.7463 21.925 81.8148 23.9434 81.8148 26.6765C81.8148 29.4096 83.6884 31.5246 86.4698 31.5246ZM86.18 34.2287C81.8631 34.2287 78.8017 30.9548 78.8017 26.7151C78.8017 22.4755 81.8438 19.2015 86.18 19.2015C88.1695 19.2015 90.0914 20.0417 91.0088 21.3359V19.5782H93.9641V33.8328H91.0088V32.0654C90.0431 33.3499 88.1695 34.2287 86.18 34.2287ZM59.6989 33.8135V19.5589H62.5093V22.0312C63.0887 20.428 64.3153 19.3271 65.9474 19.3271C66.3047 19.3271 66.6524 19.356 67.0001 19.443V22.1954C64.7112 21.9346 62.77 23.5378 62.77 27.2077V33.8038H59.6989V33.8135Z" fill="black"/>
</svg>
