<svg width="155" height="52" viewBox="0 0 155 52" fill="none" xmlns="http://www.w3.org/2000/svg">
<path d="M39.0365 20.92L31.8939 13.9401C31.0479 13.1592 30.0391 12.5734 28.9328 12.1992C26.4922 11.402 24.068 12.0202 22.0993 13.9401L14.9405 20.92C14.1432 21.7498 13.525 22.726 13.1507 23.7998C12.3372 26.1752 12.9718 28.5507 14.9405 30.4706L22.0993 37.4504C22.9454 38.2314 23.9541 38.8171 25.0442 39.1913C25.7113 39.4191 26.4109 39.5167 27.1105 39.533C28.8189 39.533 30.4621 38.8334 31.8776 37.4504L39.0202 30.4706C39.8175 29.6408 40.4357 28.6646 40.8099 27.5907C41.6234 25.2153 40.9889 22.8399 39.0202 20.92H39.0365ZM27.5335 15.9576C28.0704 16.1203 28.5748 16.3969 28.9978 16.7711L31.113 18.8374L26.9966 22.8561L22.8803 18.8374L25.0117 16.7548C25.5811 16.2017 26.3783 15.6159 27.5661 15.9576H27.5335ZM17.023 25.1502C17.202 24.6296 17.4786 24.1415 17.8691 23.7185L19.9842 21.6522L24.1005 25.6709L19.9679 29.6896L17.8365 27.607C17.2671 27.0538 16.6651 26.2729 17.0068 25.1177L17.023 25.1502ZM26.4434 35.4004C25.9065 35.2377 25.4021 34.9611 24.9791 34.5869L22.864 32.5531L26.9803 28.5344L31.0967 32.5531L28.9653 34.6357C28.3958 35.1889 27.5986 35.7746 26.4109 35.4329L26.4434 35.4004ZM36.9702 26.2403C36.7912 26.761 36.5146 27.2491 36.1404 27.6721L34.0253 29.7059L29.909 25.6871L34.0253 21.6684L36.1567 23.7347C36.7261 24.2879 37.3281 25.0689 36.9865 26.2241" fill="black"/>
<path d="M54.4606 35.5136H58.1539V25.5237C58.1539 22.4487 56.2341 20.1709 52.9638 20.1709C51.3693 20.1709 49.6609 20.8542 48.7661 22.1233V14.7041H45.0728V35.4973H48.7661V27.6063C48.7661 25.7678 49.7097 23.4574 51.9225 23.4574C53.8749 23.4574 54.4606 24.515 54.4606 26.2559V35.4973V35.5136ZM69.3803 29.6075C69.3803 31.804 67.7696 33.008 65.4917 33.008C64.3528 33.008 63.3278 32.2921 63.3278 31.1532C63.3278 29.9492 64.4179 29.2984 65.5243 29.217L69.3966 28.9242V29.6075H69.3803ZM72.4554 35.7414C73.0899 35.7576 73.7081 35.6275 74.2776 35.3346V32.6989C74.1312 32.7314 73.9685 32.7477 73.8058 32.7639C73.1875 32.7639 72.9597 32.5036 72.9597 31.8203V26.3047C73.0085 25.2797 72.8621 24.2709 72.5204 23.311C71.6418 21.082 69.4128 20.2848 66.8096 20.2848C63.4092 20.2848 60.6921 21.7653 60.4805 25.117H64.0274C64.1088 23.7503 65.1013 23.0019 66.8096 23.0019C68.8922 23.0019 69.3803 23.9455 69.3803 25.3448V26.2559L64.8897 26.565C61.9937 26.7603 59.7321 28.3873 59.7321 31.2183C59.7321 33.6425 61.6032 35.8715 65.2314 35.8715C67.3953 35.8715 69.1525 34.8465 69.8521 33.6425C69.966 34.7652 70.8446 35.7251 72.4228 35.7251L72.4554 35.7414ZM83.9583 23.8154C84.1536 23.8154 84.3488 23.8154 84.544 23.8479V20.48C84.3813 20.48 84.2349 20.4475 84.0722 20.4475C82.2825 20.4475 80.4602 21.1633 79.7606 22.8717L79.4352 20.6427H76.3276V35.4973H80.021V28.0131C80.021 25.6051 81.3714 23.8154 83.9421 23.8154H83.9583ZM95.5101 35.5136H99.1709V25.5888C99.1709 22.4975 97.2673 20.2848 94.0133 20.2848C92.2561 20.2848 90.4338 21.0006 89.539 22.5626L89.2786 20.6427H86.2199V35.4973H89.8806V29.4448C89.8806 28.192 89.8481 26.6464 90.385 25.4749C90.8894 24.3848 91.7354 23.5876 93.0208 23.5876C94.9569 23.5876 95.5426 24.6451 95.5426 26.386V35.4973L95.5101 35.5136ZM111.178 26.6138H104.589C104.589 25.7841 104.849 24.9543 105.386 24.3035C105.695 23.9293 106.086 23.6364 106.525 23.4412C106.964 23.2459 107.452 23.1483 107.94 23.1646C108.363 23.1483 108.787 23.2134 109.193 23.3598C109.584 23.5062 109.958 23.734 110.251 24.0269C110.837 24.6614 111.162 25.5075 111.194 26.6301L111.178 26.6138ZM114.855 28.2083C114.92 26.3535 114.644 24.6614 113.537 23.0344C112.285 21.1796 110.235 20.301 107.989 20.301C107.094 20.2685 106.2 20.4312 105.354 20.7566C104.524 21.082 103.759 21.5701 103.125 22.1884C101.66 23.6527 100.928 25.7515 100.928 28.1269C100.928 30.5024 101.742 32.6338 103.271 34.0655C103.905 34.6675 104.654 35.1394 105.484 35.4485C106.313 35.7576 107.192 35.9041 108.071 35.8878C110.007 35.8878 111.91 35.2858 113.196 33.8052C113.781 33.1219 114.4 31.9504 114.481 31.0556H110.967C110.837 31.5274 110.592 31.9667 110.235 32.3084C109.714 32.829 109.063 33.0243 108.006 33.0243C107.16 33.0243 106.346 32.6989 105.744 32.1131C105.37 31.7226 105.077 31.2671 104.882 30.7627C104.686 30.2583 104.605 29.7214 104.638 29.2008H114.823C114.823 28.8916 114.855 28.192 114.855 28.192V28.2083ZM119.769 24.8078C119.769 24.4662 119.899 24.1245 120.111 23.8479C120.322 23.5713 120.615 23.3598 120.94 23.2459C121.445 23.0669 121.982 22.9856 122.518 23.0181C123.251 23.0019 123.95 23.2459 124.503 23.7015C124.894 24.0757 125.105 24.5801 125.122 25.1007H128.604C128.555 23.9618 128.083 22.8717 127.253 22.0419C126.147 20.8705 124.292 20.301 122.486 20.301C120.582 20.301 118.972 20.8379 117.865 21.7816C117.361 22.1884 116.97 22.6927 116.694 23.2785C116.417 23.8642 116.287 24.4824 116.303 25.117C116.303 27.0043 117.703 28.6639 119.785 29.0869C121.136 29.3797 122.649 29.4611 123.999 29.6563C124.926 29.8028 125.528 30.3722 125.528 31.2345C125.528 32.8616 123.657 33.1219 122.421 33.1219C121.363 33.1219 120.696 32.9266 120.111 32.4711C119.704 32.1131 119.427 31.6413 119.346 31.1206H115.897C116.043 32.2921 116.596 33.3822 117.475 34.1794C118.728 35.3509 120.468 35.8878 122.405 35.8878C124.487 35.8878 126.391 35.3672 127.611 34.1794C128.05 33.7564 128.392 33.252 128.62 32.6826C128.848 32.1294 128.961 31.5274 128.929 30.9254C128.929 28.5825 127.172 27.1019 124.764 26.7277C123.267 26.4999 122.893 26.4674 121.51 26.3047C120.696 26.1908 119.753 25.8817 119.753 24.8241L119.769 24.8078ZM139.179 25.0844H142.661C142.612 23.9455 142.14 22.8554 141.31 22.0257C140.204 20.8542 138.349 20.2848 136.543 20.2848C134.64 20.2848 133.029 20.8217 131.923 21.7653C131.418 22.1721 131.028 22.6765 130.751 23.2622C130.475 23.8479 130.344 24.4662 130.361 25.1007C130.361 26.988 131.76 28.6476 133.842 29.0706C135.193 29.3635 136.706 29.4448 138.056 29.6401C138.984 29.7865 139.586 30.356 139.586 31.2183C139.586 32.8453 137.715 33.1056 136.478 33.1056C135.421 33.1056 134.754 32.9104 134.168 32.4548C133.761 32.0969 133.485 31.625 133.403 31.1044H129.938C130.084 32.2758 130.637 33.3659 131.532 34.1632C132.785 35.3346 134.51 35.8715 136.446 35.8715C138.528 35.8715 140.432 35.3509 141.652 34.1632C142.091 33.7401 142.433 33.2195 142.661 32.6663C142.889 32.1131 142.986 31.5111 142.97 30.9091C142.97 28.5662 141.213 27.0857 138.805 26.7114C137.308 26.4837 136.934 26.4511 135.551 26.2884C134.737 26.1745 133.794 25.8654 133.794 24.8078C133.794 24.4662 133.924 24.1245 134.135 23.8479C134.347 23.5713 134.64 23.3598 134.965 23.2459C135.469 23.0669 136.006 22.9856 136.543 23.0181C137.275 23.0019 137.975 23.2459 138.528 23.7015C138.919 24.0757 139.13 24.5801 139.147 25.1007" fill="black"/>
</svg>
