<svg width="131" height="52" viewBox="0 0 131 52" fill="none" xmlns="http://www.w3.org/2000/svg">
<path d="M74.1145 39.2322C74.1646 39.1045 74.2087 39.0157 74.2334 38.9222C74.381 38.3663 74.5253 37.8091 74.6683 37.2519C74.836 36.5979 75.0044 35.9431 75.1667 35.2877C75.3658 34.48 75.5549 33.6703 75.756 32.8632C75.9564 32.0575 76.1628 31.2531 76.3713 30.4494C76.4601 30.1074 76.5637 29.77 76.6559 29.4286C76.6873 29.313 76.7227 29.2288 76.871 29.2295C77.7616 29.2362 78.6521 29.2362 79.5427 29.2395C79.5634 29.2395 79.5835 29.2549 79.6336 29.2756C79.5247 29.6978 79.4198 30.1254 79.3035 30.5503C79.1459 31.1262 78.9808 31.6994 78.8178 32.274C78.6608 32.8272 78.4965 33.3783 78.3468 33.9335C78.1845 34.5328 78.0408 35.1368 77.8785 35.736C77.6647 36.5264 77.4382 37.3134 77.2217 38.1031C77.0113 38.8721 76.8109 39.6437 76.5998 40.4127C76.3566 41.2992 76.1087 42.1844 75.8582 43.069C75.7773 43.3556 75.6744 43.6362 75.5949 43.9228C75.5468 44.0959 75.4673 44.1834 75.2709 44.18C74.6142 44.17 73.9568 44.17 73.3 44.18C73.0983 44.1834 72.9927 44.1025 72.9413 43.9161C72.8738 43.6703 72.799 43.4271 72.7255 43.1832C72.5231 42.5051 72.32 41.8277 72.1169 41.1502C71.7481 39.9189 71.38 38.6883 71.0112 37.457C70.8074 36.7789 70.607 36.0995 70.3959 35.4234C70.305 35.1321 70.1921 34.8481 70.0732 34.5154C70.0177 34.5943 69.9703 34.6364 69.9549 34.6878C69.6396 35.7387 69.3296 36.7909 69.0149 37.8419C68.767 38.6683 68.5145 39.4934 68.2646 40.3198C68.0595 40.9972 67.8584 41.676 67.6513 42.3528C67.4897 42.8813 67.3146 43.405 67.1609 43.9355C67.1068 44.1212 67.006 44.18 66.8242 44.178C66.1782 44.172 65.5328 44.1774 64.8868 44.1754C64.6122 44.1747 64.5714 44.1453 64.4946 43.8734C64.4164 43.5961 64.3543 43.3142 64.2768 43.0369C64.043 42.1951 63.8011 41.3547 63.5693 40.5122C63.3608 39.7546 63.1618 38.9943 62.9573 38.236C62.6981 37.274 62.4389 36.3126 62.1756 35.3512C61.9592 34.5622 61.738 33.7738 61.5176 32.9862C61.2791 32.1324 61.0406 31.2785 60.7987 30.426C60.6905 30.0446 60.5749 29.6651 60.4533 29.2542H63.3963C63.4731 29.4994 63.5726 29.7653 63.6401 30.0392C63.8165 30.7614 63.9708 31.4896 64.1499 32.2112C64.355 33.0383 64.5801 33.86 64.7919 34.6851C65.001 35.5009 65.2008 36.3193 65.4092 37.1357C65.5709 37.7677 65.7379 38.3984 65.9056 39.0291C65.9183 39.0758 65.951 39.1179 66.0098 39.2281C66.1722 38.7351 66.3185 38.3115 66.4508 37.8833C66.6692 37.1751 66.8817 36.4649 67.0901 35.7541C67.2364 35.2543 67.3721 34.7519 67.5137 34.2509C67.7268 33.4953 67.9379 32.739 68.1551 31.9847C68.3942 31.1549 68.6434 30.3278 68.8779 29.4967C68.9287 29.317 69.0182 29.2355 69.204 29.2362C69.7832 29.2402 70.3618 29.2415 70.941 29.2355C71.1067 29.2335 71.1755 29.307 71.2143 29.4593C71.3439 29.9637 71.4782 30.4675 71.6225 30.9685C71.8336 31.7021 72.0567 32.433 72.2719 33.1652C72.5184 34.003 72.7622 34.8415 73.0068 35.6799C73.2145 36.3914 73.4143 37.1056 73.6321 37.8138C73.7751 38.2781 73.9434 38.7344 74.1131 39.2322H74.1145Z" fill="black"/>
<path d="M76.5285 24.8995C76.4256 24.9075 76.3394 24.9202 76.2526 24.9209C75.4956 24.9222 74.7387 24.9229 73.9817 24.9209C73.6617 24.9202 73.673 24.9129 73.5421 24.5982C73.2882 23.9849 73.0163 23.3789 72.7591 22.7669C72.4551 22.0441 72.1605 21.3172 71.8578 20.5936C71.6407 20.0739 71.4149 19.5574 71.1971 19.0383C71.143 18.9087 71.0581 18.8533 70.9165 18.8539C70.1375 18.8573 69.3578 18.8573 68.5788 18.8539C68.4132 18.8533 68.3283 18.9194 68.329 19.0884C68.3297 19.1887 68.327 19.2889 68.327 19.3891C68.327 21.0479 68.327 22.7062 68.327 24.365C68.327 24.4539 68.329 24.5434 68.3256 24.6323C68.3163 24.9095 68.3103 24.9195 68.045 24.9209C67.3663 24.9242 66.6868 24.9242 66.008 24.9209C65.7535 24.9195 65.7528 24.9129 65.7461 24.6563C65.7448 24.6009 65.7461 24.5447 65.7461 24.4893C65.7461 19.814 65.7461 15.1394 65.7461 10.464C65.7461 10.0158 65.7461 10.0118 66.2031 10.0151C68.1065 10.0285 70.0099 10.0391 71.9126 10.0632C72.3683 10.0692 72.8313 10.0766 73.2762 10.1594C74.6772 10.4206 75.6934 11.1943 76.2759 12.5151C76.63 13.3188 76.7356 14.1499 76.618 15.0184C76.5639 15.4213 76.4102 15.7887 76.2432 16.1468C75.9299 16.8209 75.4522 17.3594 74.8415 17.7937C74.5496 18.0008 74.2369 18.1544 73.9229 18.3141C73.7338 18.4103 73.6951 18.4718 73.7719 18.6468C74.0038 19.1726 74.2469 19.6924 74.4821 20.2168C74.6044 20.4894 74.7139 20.7674 74.8369 21.0393C75.2317 21.9145 75.6299 22.789 76.0274 23.6635C76.1777 23.9949 76.3307 24.3249 76.477 24.6583C76.5071 24.7265 76.5091 24.8066 76.5285 24.9008V24.8995ZM68.3504 14.4125C68.3504 14.991 68.347 15.5689 68.3517 16.1475C68.3544 16.4542 68.3657 16.4635 68.6751 16.4642C69.5984 16.4668 70.5217 16.4729 71.4443 16.4608C71.753 16.4568 72.0623 16.4127 72.3696 16.3706C73.2308 16.2524 73.8675 15.4527 73.949 14.6757C73.977 14.4118 73.985 14.1379 73.9436 13.8773C73.8461 13.2613 73.5548 12.7636 72.9168 12.5819C72.5473 12.477 72.1592 12.3882 71.7777 12.3815C70.7441 12.3634 69.7099 12.3875 68.6764 12.4069C68.3764 12.4122 68.3544 12.4483 68.3517 12.7436C68.347 13.2994 68.3504 13.8559 68.3504 14.4118V14.4125Z" fill="black"/>
<path d="M91.8114 36.4451C91.7593 37.5007 91.7172 38.5563 91.6511 39.6105C91.6023 40.3848 91.3584 41.1197 90.9863 41.7872C90.5848 42.5067 90.0122 43.0859 89.288 43.5195C88.4342 44.0306 87.5109 44.2598 86.5341 44.2751C85.9242 44.2845 85.3095 44.2591 84.7042 44.1849C84.0054 44.0994 83.356 43.8375 82.7641 43.448C82.2711 43.124 81.8488 42.7305 81.4947 42.2528C81.0003 41.5854 80.7478 40.8371 80.6068 40.0267C80.4271 38.9912 80.4057 37.949 80.3964 36.9047C80.3904 36.2707 80.393 35.636 80.4111 35.002C80.4238 34.5577 80.4311 34.1074 80.5086 33.6718C80.7665 32.2254 81.3952 30.9841 82.6298 30.1183C82.8824 29.9412 83.165 29.8029 83.4442 29.67C84.4951 29.1702 85.6115 29.0339 86.7553 29.1402C87.716 29.2297 88.6246 29.5183 89.4343 30.0528C90.2481 30.5899 90.852 31.3148 91.2382 32.2154C91.6157 33.0959 91.7646 34.0206 91.764 34.9733C91.764 35.463 91.764 35.9527 91.764 36.4424C91.78 36.4431 91.796 36.4437 91.8114 36.4444V36.4451ZM83.0166 36.6749C83.046 37.5294 83.0774 38.3525 83.1008 39.1756C83.1155 39.678 83.3119 40.1189 83.5411 40.5505C83.9132 41.2507 84.574 41.5767 85.2775 41.7831C86.0972 42.0237 86.9069 41.892 87.6552 41.4691C87.875 41.3449 88.1088 41.2119 88.2732 41.0275C88.7242 40.5218 89.0315 39.9372 89.0582 39.2397C89.0829 38.595 89.123 37.9496 89.119 37.3049C89.1137 36.2259 89.1123 35.145 89.0462 34.0693C88.9894 33.1447 88.4743 32.4619 87.6986 31.9796C87.3252 31.7471 86.9023 31.6422 86.4673 31.6108C85.6048 31.5493 84.7978 31.6656 84.0976 32.2555C83.4923 32.7659 83.1663 33.4066 83.1088 34.1716C83.046 35.014 83.044 35.8612 83.0166 36.6756V36.6749Z" fill="black"/>
<path d="M64.6129 24.9258C64.4606 24.9452 64.3751 24.9652 64.2895 24.9652C63.5767 24.9679 62.8645 24.9686 62.1516 24.9652C61.8771 24.9639 61.839 24.9272 61.7488 24.6659C61.4388 23.766 61.1275 22.8668 60.8155 21.9675C60.7199 21.6929 60.6745 21.6535 60.3932 21.6495C60.0926 21.6455 59.7919 21.6575 59.4913 21.6568C58.2006 21.6548 56.9091 21.6488 55.6184 21.6495C55.0345 21.6495 55.1841 21.5713 54.9884 22.1145C54.677 22.9783 54.3784 23.8475 54.0891 24.7187C54.029 24.8991 53.9375 24.9679 53.7571 24.9672C53.0222 24.9639 52.2873 24.9699 51.5524 24.9639C51.3005 24.9619 51.2751 24.9178 51.3606 24.6846C51.6806 23.8114 52.0053 22.9403 52.3267 22.0677C52.6059 21.3101 52.8779 20.5492 53.1631 19.7942C53.4678 18.9878 53.7865 18.1861 54.0938 17.3811C54.2521 16.9675 54.3991 16.55 54.5528 16.1344C54.7632 15.5645 54.9717 14.994 55.1868 14.4261C55.4841 13.6424 55.7894 12.8621 56.088 12.0791C56.2497 11.6549 56.402 11.2273 56.561 10.8024C56.6339 10.6066 56.7214 10.4162 56.7869 10.2185C56.8396 10.0588 56.9365 9.97928 57.1035 9.97928C57.6601 9.97928 58.2173 9.98463 58.7738 9.97661C58.9568 9.97394 59.035 10.0822 59.0871 10.2218C59.3684 10.9787 59.6436 11.7384 59.9229 12.496C60.1106 13.0037 60.3017 13.5108 60.4928 14.0172C60.7774 14.7722 61.06 15.5284 61.3499 16.2807C61.6205 16.9815 61.9071 17.6757 62.1737 18.3779C62.3821 18.9264 62.5645 19.4849 62.769 20.0354C63.2079 21.2179 63.6522 22.3978 64.0965 23.5783C64.2588 24.0105 64.4265 24.4401 64.6122 24.9252L64.6129 24.9258ZM59.8541 19.4134C59.8474 19.3219 59.8554 19.2424 59.834 19.1715C59.7018 18.7266 59.5708 18.2803 59.4245 17.8394C59.1466 17.0016 58.8539 16.1685 58.5767 15.33C58.3963 14.7835 58.236 14.2303 58.0582 13.6825C58.0389 13.6217 57.9667 13.5776 57.9193 13.5262C57.8752 13.5689 57.8284 13.6084 57.789 13.6551C57.7683 13.6792 57.7576 13.7139 57.7476 13.7453C57.5418 14.3867 57.3327 15.0267 57.1329 15.6701C56.9759 16.1772 56.8416 16.6916 56.678 17.1967C56.4408 17.9289 56.1856 18.6558 55.9284 19.4134H59.8534H59.8541Z" fill="black"/>
<path d="M118.211 21.6869C118.057 22.0202 117.931 22.389 117.728 22.7104C117.459 23.1373 117.144 23.5281 116.748 23.8648C116.284 24.2597 115.77 24.549 115.213 24.7567C114.844 24.8944 114.443 24.9879 114.05 25.0153C113.464 25.056 112.87 25.0574 112.284 25.0113C111.336 24.9364 110.429 24.6792 109.617 24.1695C108.93 23.7379 108.412 23.15 108.051 22.4091C107.732 21.755 107.577 21.0742 107.559 20.3587C107.523 18.9798 107.491 17.6002 107.484 16.2212C107.481 15.5772 107.516 14.9298 107.58 14.2884C107.641 13.6798 107.827 13.1019 108.132 12.5621C108.611 11.7123 109.272 11.0642 110.129 10.5899C111.397 9.88772 112.738 9.7982 114.128 10.034C114.422 10.0841 114.711 10.1657 115.002 10.2371C115.482 10.3547 115.902 10.6099 116.308 10.8705C116.746 11.1511 117.109 11.5205 117.432 11.9394C117.769 12.3777 117.985 12.8621 118.171 13.3832C118.075 13.4346 117.991 13.4894 117.9 13.5261C117.305 13.764 116.711 14.0032 116.112 14.229C115.846 14.3292 115.822 14.384 115.664 14.0579C115.405 13.5261 115.06 13.0465 114.511 12.7732C113.867 12.4519 113.204 12.2461 112.462 12.4432C112.097 12.54 111.729 12.6095 111.398 12.8019C110.725 13.1934 110.312 13.764 110.223 14.545C110.038 16.1644 110.09 17.7899 110.127 19.4134C110.136 19.7795 110.177 20.1469 110.233 20.509C110.4 21.5786 111.264 22.4157 112.378 22.5654C112.909 22.6369 113.443 22.6496 113.965 22.4906C114.374 22.3663 114.732 22.1639 115.02 21.8358C115.286 21.5339 115.51 21.2072 115.684 20.8464C115.761 20.6861 115.849 20.6266 116.022 20.7008C116.732 21.0054 117.444 21.304 118.155 21.6067C118.172 21.614 118.181 21.6414 118.213 21.6862L118.211 21.6869Z" fill="black"/>
<path d="M78.2835 17.4623C78.3162 16.5845 78.3389 15.6605 78.3897 14.7392C78.4365 13.8974 78.6569 13.0897 79.0939 12.3708C79.3778 11.9038 79.7366 11.4823 80.1789 11.1288C80.6439 10.7574 81.1496 10.4761 81.6934 10.2616C82.3622 9.99842 83.067 9.91357 83.7839 9.91357C84.5796 9.91357 85.3639 10.0118 86.1055 10.2944C86.8331 10.5716 87.4838 10.9899 88.0036 11.5885C88.4118 12.0581 88.7545 12.5672 88.9843 13.1478C89.0745 13.3756 89.0511 13.4231 88.8173 13.5153C88.2013 13.7578 87.5847 13.9996 86.9687 14.2415C86.7075 14.3444 86.6346 14.3297 86.5317 14.0785C86.3507 13.6362 86.0427 13.2948 85.6986 12.9808C85.4134 12.7202 85.0566 12.5933 84.6932 12.4891C84.5021 12.4343 84.3037 12.3701 84.1086 12.3715C83.389 12.3742 82.6889 12.5018 82.0856 12.916C81.4603 13.3449 81.1128 13.9629 81.0247 14.7185C80.8543 16.1716 80.8904 17.6294 80.9371 19.0865C80.9538 19.5955 80.9886 20.116 81.1128 20.607C81.3874 21.694 82.133 22.4055 83.2427 22.5645C83.6269 22.6193 84.0144 22.6407 84.4059 22.5812C84.9838 22.4924 85.4721 22.2733 85.877 21.8263C86.1349 21.5417 86.3293 21.2317 86.505 20.9003C86.638 20.6491 86.7048 20.6184 86.948 20.7193C87.5693 20.9785 88.1879 21.2437 88.8093 21.5029C89.0424 21.6005 89.1026 21.5911 88.9876 21.8938C88.7084 22.628 88.2915 23.2694 87.6962 23.7912C86.7963 24.5802 85.7528 25.0011 84.5562 25.0465C83.5728 25.0839 82.5994 25.0204 81.6587 24.7125C80.9812 24.4913 80.3479 24.1753 79.8274 23.6756C79.293 23.1625 78.9122 22.5559 78.687 21.841C78.4645 21.1335 78.3837 20.4126 78.3643 19.6777C78.3456 18.9548 78.3122 18.232 78.2835 17.4637V17.4623Z" fill="black"/>
<path d="M105.263 31.5789C105.252 31.7499 105.237 31.8701 105.237 31.9911C105.235 33.0487 105.235 34.1062 105.236 35.1638C105.236 35.242 105.241 35.3195 105.243 35.3977C105.247 35.5052 105.305 35.56 105.411 35.5633C105.522 35.5667 105.634 35.5707 105.745 35.5707C107.226 35.5707 108.707 35.5707 110.187 35.5707C110.265 35.5707 110.343 35.5694 110.421 35.5714C110.742 35.5821 110.757 35.5947 110.758 35.9221C110.761 36.4679 110.76 37.0131 110.758 37.5589C110.757 37.8776 110.755 37.8796 110.419 37.8803C109.283 37.8816 108.148 37.8803 107.012 37.8803C106.511 37.8803 106.01 37.8783 105.509 37.881C105.165 37.883 105.157 37.8916 105.156 38.2424C105.155 40.0569 105.156 41.8721 105.156 43.6867C105.156 43.9953 105.006 44.1501 104.706 44.151C104.126 44.1517 103.548 44.1543 102.969 44.1496C102.646 44.147 102.631 44.1289 102.631 43.8049C102.63 39.0508 102.63 34.2973 102.631 29.5432C102.631 29.2372 102.635 29.2332 102.949 29.2332C105.799 29.2319 108.649 29.2325 111.499 29.2332C111.836 29.2332 111.841 29.2365 111.843 29.5632C111.847 30.1197 111.847 30.6763 111.843 31.2335C111.841 31.5742 111.835 31.5782 111.477 31.5789C109.551 31.5795 107.624 31.5789 105.698 31.5789C105.566 31.5789 105.433 31.5789 105.263 31.5789Z" fill="black"/>
<path d="M96.6312 18.6764C96.6312 20.6025 96.6312 22.5286 96.6312 24.4548C96.6312 24.5436 96.6259 24.6331 96.6312 24.722C96.6412 24.8783 96.5697 24.9431 96.4154 24.9425C95.7025 24.9405 94.9904 24.9398 94.2775 24.9425C94.1105 24.9425 94.0283 24.8783 94.0437 24.7026C94.0524 24.6031 94.0443 24.5022 94.0443 24.402C94.0443 20.5605 94.0443 16.7196 94.0443 12.8781C94.0443 12.7999 94.0457 12.7224 94.0443 12.6442C94.0377 12.3536 94.0377 12.3489 93.7404 12.3483C92.616 12.3463 91.4916 12.3476 90.3665 12.3476C90.2883 12.3476 90.2102 12.3429 90.1327 12.3476C89.987 12.357 89.9329 12.2808 89.9329 12.1472C89.9322 11.9133 89.9302 11.6795 89.9296 11.4457C89.9296 11.0782 89.9262 10.7108 89.9309 10.3433C89.9349 10.0554 89.9403 10.0547 90.2389 10.05C90.2836 10.0494 90.3277 10.05 90.3725 10.05C93.6796 10.05 96.9859 10.05 100.293 10.0507C100.807 10.0507 100.747 9.99926 100.75 10.523C100.753 11.0021 100.751 11.4804 100.75 11.9594C100.749 12.3342 100.747 12.3356 100.356 12.3356C99.2648 12.3356 98.1738 12.3356 97.0822 12.3356C97.004 12.3356 96.9265 12.3389 96.8483 12.3362C96.6907 12.3309 96.6279 12.4137 96.6312 12.5627C96.6332 12.6516 96.6305 12.7411 96.6305 12.83C96.6305 14.7781 96.6305 16.7269 96.6305 18.6751L96.6312 18.6764Z" fill="black"/>
<path d="M101.537 41.7922C101.544 41.9011 101.555 41.9759 101.555 42.0507C101.556 42.6406 101.557 43.2306 101.555 43.8205C101.553 44.1078 101.55 44.1078 101.255 44.1158C101.21 44.1171 101.166 44.1158 101.121 44.1158C98.8501 44.1158 96.5792 44.1158 94.3084 44.1158C93.7712 44.1158 93.8527 44.1064 93.8521 43.6675C93.8501 39.0035 93.8507 34.3396 93.8521 29.6757C93.8521 29.1773 93.816 29.2347 94.305 29.2327C94.8729 29.23 95.4401 29.2307 96.008 29.2327C96.3735 29.2341 96.3761 29.2361 96.3761 29.6089C96.3768 33.4824 96.3761 37.356 96.3775 41.2296C96.3775 41.8884 96.314 41.7888 96.9507 41.7908C98.353 41.7955 99.756 41.7922 101.158 41.7922C101.278 41.7922 101.398 41.7922 101.536 41.7922H101.537Z" fill="black"/>
<path d="M105.352 17.4838C105.352 19.7994 105.352 22.1157 105.352 24.4313C105.352 24.4867 105.352 24.5429 105.352 24.5983C105.349 24.9264 105.349 24.929 105.018 24.9304C104.383 24.9324 103.749 24.933 103.114 24.9304C102.807 24.929 102.806 24.925 102.803 24.6083C102.801 24.2963 102.803 23.985 102.803 23.673C102.803 19.3084 102.803 14.9437 102.803 10.5791C102.803 10.5009 102.802 10.4234 102.803 10.3453C102.809 10.0567 102.809 10.0527 103.105 10.0513C103.751 10.0486 104.396 10.0486 105.042 10.0513C105.348 10.0527 105.351 10.056 105.351 10.3687C105.352 12.7404 105.351 15.1114 105.351 17.4832L105.352 17.4838Z" fill="black"/>
<path d="M35.2524 7.11621C35.4829 7.48767 35.6947 7.82238 35.9004 8.16044C36.3126 8.84056 36.7242 9.52201 37.1317 10.2048C37.4431 10.7272 37.7437 11.2564 38.057 11.7775C38.4044 12.354 38.7625 12.9233 39.1133 13.4978C39.448 14.0457 39.7814 14.5942 40.1121 15.1453C40.5671 15.903 41.016 16.6639 41.471 17.4215C41.8919 18.123 42.3175 18.8218 42.741 19.522C43.1866 20.2576 43.6329 20.9931 44.0765 21.73C44.5556 22.5264 45.0272 23.3275 45.5089 24.1218C45.8289 24.6496 46.1683 25.1654 46.4877 25.6938C46.8418 26.2811 47.1772 26.879 47.5306 27.4669C47.8827 28.0529 48.2514 28.6294 48.6042 29.2147C48.9242 29.7451 49.2289 30.285 49.5495 30.8148C49.8976 31.3913 50.2611 31.9585 50.6091 32.5344C50.9632 33.1203 51.3046 33.7143 51.6574 34.3009C51.942 34.7745 52.2366 35.2415 52.5239 35.7132C52.898 36.3265 53.2695 36.9418 53.6416 37.5558C54.0198 38.1798 54.3992 38.8025 54.774 39.4285C55.1141 39.9963 55.4455 40.5702 55.7875 41.1368C56.1296 41.704 56.4843 42.2632 56.8271 42.8297C57.0896 43.264 57.3435 43.7042 57.6181 44.1712C57.5272 44.1913 57.4584 44.2127 57.3889 44.2207C57.3228 44.2287 57.2553 44.2227 57.1885 44.2227C52.6682 44.2227 48.1479 44.2227 43.6269 44.2227C43.1679 44.2227 43.186 44.2167 43.043 43.7771C42.9247 43.4116 42.7617 43.0595 42.6121 42.7048C42.415 42.2364 42.2119 41.7708 42.0128 41.3031C41.9834 41.2336 41.964 41.1595 41.9186 41.0252C42.1912 41.1007 42.4177 41.1635 42.6909 41.239C42.5359 40.3057 42.103 39.4699 41.9253 38.5499C42.0783 38.5366 42.2072 38.5252 42.3702 38.5105C42.1598 37.787 41.9553 37.0848 41.7409 36.3459C41.9667 36.3753 42.1397 36.3973 42.3615 36.4261C42.3529 36.2831 42.3575 36.1642 42.3362 36.0513C42.2039 35.3544 42.0656 34.6583 41.9286 33.9621C41.8364 33.4945 41.7409 33.0268 41.6507 32.5585C41.6039 32.3166 41.6013 32.0888 41.7095 31.8443C41.8839 31.4508 42.0021 31.0319 42.1504 30.6264C42.2106 30.4613 42.2901 30.303 42.3589 30.1413C42.5426 29.7091 42.6335 29.2554 42.7043 28.7924C42.8032 28.1457 42.9247 27.5017 43.0557 26.861C43.1519 26.3886 43.0737 25.9303 42.9936 25.4707C42.9835 25.4146 42.9334 25.3464 42.8833 25.3204C42.6963 25.2242 42.5018 25.142 42.3088 25.0578C42.1645 24.995 42.0622 25.0418 41.964 25.1654C41.7035 25.4934 41.4329 25.8134 41.1596 26.1314C41.0541 26.2544 40.9318 26.3633 40.7902 26.5056C40.7461 26.404 40.7033 26.3405 40.6913 26.2717C40.547 25.4627 40.4134 24.6516 40.2651 23.8432C40.1568 23.2526 40.1488 23.1163 40.0232 22.9527C39.8976 22.789 39.4627 22.2224 39.4447 22.1944C39.0658 21.5944 38.492 21.2296 37.8913 20.8929C37.6234 20.7426 37.3669 20.5709 37.0756 20.3905C36.9406 20.6304 36.8144 20.8328 36.7088 21.0459C36.3167 21.8389 35.9365 22.6387 35.5423 23.4303C35.2424 24.033 34.9264 24.6276 34.6204 25.2275C34.4994 25.464 34.3745 25.6998 34.2763 25.9464C34.2215 26.0827 34.1507 26.1662 34.0137 26.2183C33.6102 26.3713 33.21 26.5336 32.8112 26.6973C32.576 26.7935 32.3422 26.8931 32.1137 27.0033C32.0175 27.0501 31.9206 27.1142 31.8505 27.193C31.4977 27.5892 31.1403 27.9827 30.8122 28.3983C30.6432 28.6121 30.5236 28.8666 30.394 29.1091C30.0967 29.6656 29.8101 30.2275 29.5108 30.7827C29.4493 30.8963 29.3505 30.9891 29.273 31.0947C28.9002 31.6024 28.5067 32.0962 28.1653 32.6239C27.9328 32.9834 27.753 33.3816 27.59 33.7784C27.429 34.1706 27.1097 34.4031 26.8124 34.6636C26.3547 35.0645 25.8971 35.466 25.4368 35.8642C24.8689 36.3559 24.2983 36.8443 23.7291 37.3347C23.6957 37.3634 23.6623 37.3941 23.6336 37.4275C23.5327 37.5438 23.5554 37.6246 23.7098 37.6567C24.0572 37.7295 24.4066 37.793 24.7547 37.8625C25.1355 37.9379 25.5156 38.0161 25.9338 38.101C25.879 38.2085 25.835 38.3007 25.7855 38.3909C25.382 39.1298 24.9845 39.8721 24.5703 40.605C24.4133 40.8829 24.2122 41.1301 23.961 41.3392C23.6129 41.6292 23.2855 41.9432 22.9495 42.2478C22.9187 42.2759 22.8913 42.3086 22.8232 42.3808C23.0002 42.4001 23.1339 42.4148 23.2768 42.4302C23.2708 42.4676 23.2768 42.5084 23.2588 42.5271C22.8118 43.0028 22.3595 43.4738 21.9139 43.9508C21.7482 44.1285 21.5719 44.23 21.3106 44.2294C18.6276 44.2207 15.9439 44.224 13.2608 44.2234C13.1626 44.2234 13.0637 44.2133 12.9127 44.2053C13.0123 44.0015 13.0838 43.8225 13.1826 43.6602C13.5561 43.0462 13.9402 42.4389 14.3157 41.8256C14.4427 41.6185 14.5502 41.3987 14.6758 41.1902C15.098 40.4894 15.527 39.7926 15.9479 39.0911C16.2652 38.5613 16.5699 38.0235 16.8885 37.495C17.2192 36.9465 17.5653 36.4067 17.8967 35.8588C18.2341 35.301 18.5574 34.7351 18.8941 34.1766C19.2416 33.6007 19.6017 33.0322 19.9491 32.4563C20.3085 31.8603 20.6552 31.2557 21.0167 30.6611C21.5157 29.84 22.0275 29.0276 22.5259 28.2065C22.9221 27.5545 23.3049 26.8951 23.6964 26.2403C24.0872 25.5869 24.4814 24.9355 24.8736 24.2828C25.3974 23.411 25.9178 22.5378 26.4443 21.6679C27.0155 20.7232 27.594 19.7826 28.1646 18.8365C28.524 18.2413 28.8701 17.6387 29.2289 17.0427C29.5255 16.551 29.8362 16.068 30.1328 15.5756C30.5096 14.9503 30.8737 14.3182 31.2505 13.6936C31.6153 13.0883 31.9921 12.4903 32.3569 11.885C32.6649 11.374 32.9588 10.8542 33.2681 10.3431C33.6336 9.73847 34.0097 9.13986 34.3785 8.53724C34.5976 8.17914 34.8101 7.81704 35.0279 7.45827C35.0894 7.35672 35.1582 7.25985 35.253 7.11621L35.2524 7.11621Z" fill="black"/>
<path d="M38.8347 22.0542C38.959 22.2279 39.0846 22.4009 39.2068 22.5766C39.3391 22.7657 39.4834 22.9494 39.595 23.1505C39.6792 23.3022 39.754 23.4732 39.7754 23.6429C39.8689 24.3705 39.9391 25.1007 40.0212 25.8296C40.0533 26.1162 40.088 26.4035 40.1315 26.6881C40.1622 26.8898 40.1001 27.0134 39.909 27.109C39.5148 27.3061 39.134 27.5305 38.7452 27.7397C38.6403 27.7964 38.5267 27.8372 38.349 27.9154C38.3951 27.7437 38.4265 27.6348 38.4526 27.5252C38.5474 27.1263 38.6369 26.7255 38.7358 26.328C38.824 25.9746 38.9002 25.6151 39.0211 25.2731C39.1687 24.8562 39.1247 24.4446 39.0632 24.0277C39.0218 23.7431 38.979 23.4585 38.9349 23.1739C38.9075 22.9969 38.8775 22.8125 38.8394 22.6348C38.8013 22.4571 38.7712 22.2727 38.7492 22.0856C38.7779 22.0756 38.806 22.0649 38.8347 22.0549V22.0542Z" fill="black"/>
<path d="M26.3224 38.0944C26.4253 38.0824 26.5282 38.067 26.6311 38.0584C27.2939 38.0042 27.9579 37.9595 28.62 37.8933C28.7904 37.8766 28.9648 37.8138 29.1191 37.7363C29.4912 37.5486 29.852 37.3395 30.2602 37.1812C30.2315 37.2266 30.2101 37.28 30.1727 37.3161C29.7832 37.6896 29.395 38.0644 28.9968 38.4271C28.9334 38.4846 28.8178 38.5193 28.7309 38.5107C28.3788 38.4759 28.0281 38.4231 27.678 38.371C27.2959 38.3142 26.915 38.2501 26.5336 38.1886C26.4634 38.1773 26.3933 38.1646 26.3231 38.1526C26.3231 38.1332 26.3231 38.1138 26.3231 38.0938L26.3224 38.0944Z" fill="black"/>
<path d="M31.8016 30.3592C32.3087 29.5107 32.8151 28.6623 33.3449 27.7764C33.377 27.8585 33.4071 27.91 33.4171 27.9648C33.4492 28.1391 33.4705 28.3155 33.5019 28.4899C33.5621 28.8266 33.5126 29.0878 33.1879 29.309C32.8272 29.5542 32.5272 29.8882 32.1965 30.1782C32.0929 30.269 31.9753 30.3425 31.8644 30.4247L31.8016 30.3585V30.3592Z" fill="black"/>
<path d="M41.4145 31.5361C41.3383 31.2061 41.2441 30.8787 41.1907 30.5447C41.1379 30.2187 41.317 29.9681 41.5475 29.7437C41.5207 30.3389 41.4947 30.9335 41.468 31.5288C41.4499 31.5315 41.4325 31.5335 41.4145 31.5361Z" fill="black"/>
</svg>
