<svg width="188" height="52" viewBox="0 0 188 52" fill="none" xmlns="http://www.w3.org/2000/svg">
<path d="M23.5875 11.0942V16.9368C23.5875 17.4739 24.0228 17.9091 24.5598 17.9091H27.4798C28.8987 17.9091 30.2301 18.2879 31.3748 18.9522C32.5591 19.6362 33.5456 20.6227 34.2268 21.8042C34.8911 22.949 35.2698 24.2803 35.2698 25.6993C35.2698 27.1182 34.8911 28.4496 34.2268 29.5943C33.5428 30.7759 32.5563 31.7624 31.3748 32.4463C30.2272 33.1106 28.8987 33.4893 27.4798 33.4893C26.0608 33.4893 24.7323 33.1106 23.5847 32.4463C22.4003 31.7624 21.4138 30.7759 20.7326 29.5943C20.0684 28.4496 19.6896 27.1182 19.6896 25.6993V22.7766C19.6896 22.2395 19.2543 21.8042 18.7173 21.8042H12.8747C12.3376 21.8042 11.9023 22.2395 11.9023 22.7766V28.6191C11.9023 29.1561 12.3376 29.5914 12.8747 29.5914C18.7908 29.5914 23.5875 34.3883 23.5875 40.3043C23.5875 40.8413 24.0228 41.2766 24.5598 41.2766H30.4024C30.9395 41.2766 31.3748 40.8413 31.3748 40.3043C31.3748 34.3883 36.1715 29.5914 42.0876 29.5914C42.6247 29.5914 43.06 29.1561 43.06 28.6191V22.7766C43.06 22.2395 42.6247 21.8042 42.0876 21.8042C36.1715 21.8042 31.3748 17.0075 31.3748 11.0914C31.3748 10.5515 30.9395 10.1162 30.4024 10.1162H24.5598C24.0228 10.1162 23.5875 10.5515 23.5875 11.0886V11.0942Z" fill="black"/>
<path d="M67.9737 18.25C65.834 18.2585 64.1154 18.9708 62.8632 20.3671C61.6252 21.7493 60.9977 23.6148 60.9977 25.9185C60.9977 28.2223 61.6647 30.1782 62.9819 31.5407C64.3048 32.906 66.159 33.5985 68.5022 33.5985C70.4894 33.5985 72.2334 33.1434 73.6834 32.2473L73.966 32.0721L73.3075 28.7649L72.7337 29.09C71.4249 29.8306 70.0428 30.2065 68.6266 30.2065C67.5751 30.2065 66.778 29.9069 66.1929 29.2936C65.6927 28.7678 65.3902 28.0357 65.2969 27.1086H74.4382V26.6308C74.4382 26.481 74.4382 26.2493 74.4438 25.9356C74.4467 25.6161 74.4494 25.3815 74.4494 25.2402C74.4494 23.1626 73.8785 21.4667 72.7535 20.1947C71.6143 18.9058 70.006 18.2528 67.9737 18.2528V18.25ZM65.328 24.3612C65.4524 23.5781 65.7209 22.9732 66.1336 22.5578C66.6282 22.0602 67.219 21.8172 67.9398 21.8172C68.7058 21.8172 69.2824 22.0575 69.7007 22.5549C70.0626 22.9817 70.2773 23.5894 70.3367 24.3612H65.3251H65.328Z" fill="black"/>
<path d="M80.8612 13.7314H76.5846V33.8229H80.8612V13.7314Z" fill="black"/>
<path d="M93.9949 18.5535L93.8847 18.8757C93.7914 19.1443 93.277 20.6339 92.3414 23.3446C91.7393 25.0886 91.2701 26.4907 90.9422 27.5364L87.6831 18.5507H83.1068L88.8759 32.6328C89.5685 34.863 83.1408 35.2785 83.1408 35.2785L84.4297 38.4329C84.4297 38.4329 90.832 38.5771 92.5052 34.5435C92.5562 34.4193 96.1657 24.8738 98.314 19.198L98.5599 18.5479H93.9977L93.9949 18.5535Z" fill="black"/>
<path d="M105.101 18.3804C103.134 18.3804 100.296 19.3131 100.296 19.3131L98.8488 23.3044C98.8488 23.3044 101.319 21.843 104.813 21.7214C105.472 21.6988 105.955 21.8684 106.249 22.1568C106.54 22.445 106.69 22.9453 106.69 23.6491V23.9488C106.551 23.9629 106.399 23.9771 106.229 23.9911C105.845 24.0251 105.5 24.059 105.192 24.0929C104.884 24.1269 104.598 24.1607 104.349 24.1919C102.359 24.3841 100.836 24.859 99.8211 25.5996C98.7471 26.3853 98.2043 27.5895 98.2043 29.1779C98.2043 30.6478 98.6623 31.8011 99.564 32.6009C100.451 33.3867 101.616 33.7881 103.027 33.7881C104.041 33.7881 104.926 33.613 105.652 33.2681C106.175 33.0193 106.71 32.6688 107.244 32.2166C107.258 32.2589 107.272 32.3042 107.289 32.3494C107.515 33.0193 107.555 33.1437 107.558 33.1579L107.651 33.5196H110.972V24.0109C110.972 22.0691 110.492 20.6303 109.542 19.7287C108.598 18.8355 107.108 18.3804 105.11 18.3804H105.101ZM106.687 28.9405C106.478 29.3391 106.144 29.6868 105.692 29.9779C105.206 30.2917 104.624 30.4499 103.956 30.4499C103.445 30.4499 103.058 30.334 102.806 30.1023C102.563 29.8818 102.447 29.554 102.447 29.1016C102.447 28.4064 102.67 27.9456 103.154 27.646C103.705 27.304 104.618 27.0721 105.862 26.9619C105.91 26.9619 106.045 26.9506 106.546 26.911C106.597 26.9083 106.645 26.9025 106.69 26.8997V28.9405H106.687Z" fill="black"/>
<path d="M121.126 18.5107C119.546 18.5107 118.076 19.0619 116.747 20.1502L116.473 18.8471H112.963V33.5115H117.239V26.2952C117.239 25.0148 117.31 24.0537 117.448 23.4375C117.674 22.9824 118.025 22.6121 118.52 22.3041C119.031 21.9846 119.58 21.8263 120.199 21.8263C120.933 21.8263 121.414 22.0242 121.671 22.4369C121.968 22.9117 122.124 23.6693 122.129 24.6868V33.5144H126.406V24.3646C126.406 22.5075 125.965 21.0575 125.091 20.0541C124.201 19.0308 122.867 18.5107 121.126 18.5107Z" fill="black"/>
<path d="M135.899 21.8115C136.798 21.8115 137.796 22.0942 138.863 22.651L139.364 22.9111L140.441 19.6633L140.122 19.4626C138.931 18.722 137.468 18.3433 135.763 18.3433C133.617 18.3433 131.857 19.0216 130.531 20.3615C129.206 21.6984 128.536 23.5894 128.536 25.9751C128.536 28.3607 129.174 30.3591 130.435 31.7046C131.705 33.0586 133.485 33.7454 135.729 33.7454C136.623 33.7454 137.411 33.655 138.069 33.4769C138.739 33.296 139.393 32.9963 140.012 32.5808L140.258 32.4169L139.812 28.8639L139.172 29.2738C138.141 29.9352 137.052 30.2687 135.942 30.2687C134.929 30.2687 134.172 29.9323 133.629 29.2426C133.066 28.5275 132.781 27.4392 132.781 26.0119C132.781 24.5844 133.07 23.53 133.638 22.8234C134.189 22.1394 134.929 21.8059 135.902 21.8059L135.899 21.8115Z" fill="black"/>
<path d="M153.422 20.1628C152.278 18.8682 150.664 18.2124 148.622 18.2124C146.477 18.2209 144.75 18.936 143.496 20.3352C142.252 21.7202 141.621 23.5971 141.621 25.9064C141.621 28.2158 142.291 30.1803 143.614 31.5483C144.94 32.9192 146.805 33.6146 149.154 33.6146C151.149 33.6146 152.9 33.1595 154.355 32.2578L154.638 32.0825L153.977 28.7641L153.4 29.0919C152.086 29.8354 150.697 30.2141 149.278 30.2141C148.222 30.2141 147.424 29.9146 146.836 29.2984C146.334 28.7697 146.031 28.0349 145.934 27.1049H155.11V26.6244C155.11 26.4745 155.11 26.2428 155.116 25.9262C155.118 25.6039 155.122 25.3722 155.122 25.228C155.122 23.1448 154.551 21.4404 153.42 20.1628H153.422ZM146.099 24.3546C146.223 23.5716 146.491 22.9667 146.904 22.5512C147.399 22.0537 147.989 21.8107 148.711 21.8107C149.476 21.8107 150.053 22.0509 150.472 22.5484C150.833 22.9752 151.048 23.5829 151.108 24.3546H146.095H146.099Z" fill="black"/>
<path d="M57.9026 18.3618C56.3509 18.3618 55.076 18.896 54.1009 19.9504L53.7956 18.4297H50.0363V33.8177H54.4316V25.5159C54.4316 24.456 54.7001 23.6277 55.2287 23.054C55.7487 22.4915 56.5741 22.206 57.6794 22.206C58.027 22.206 58.3634 22.2315 58.6856 22.2794L59.2425 22.3642L61.0232 18.9526C61.0232 18.9526 59.4828 18.3675 57.8999 18.3675L57.9026 18.3618Z" fill="black"/>
<path d="M164.319 18.1382C162.334 18.1382 159.593 18.517 159.593 18.517L158.241 22.5024C158.241 22.5024 160.748 21.5358 164.024 21.5499C164.688 21.5527 165.175 21.6997 165.472 21.9937C165.765 22.2876 165.915 22.7992 165.915 23.5172V23.8225C165.777 23.8366 165.621 23.8507 165.452 23.8649C165.064 23.8988 164.717 23.9355 164.406 23.9695C164.094 24.0034 163.807 24.0401 163.555 24.0712C161.548 24.2691 160.013 24.7524 158.993 25.5072C157.91 26.3099 157.362 27.5394 157.362 29.1619C157.362 30.6657 157.823 31.8416 158.733 32.6585C159.626 33.4612 160.799 33.8711 162.221 33.8711C163.244 33.8711 164.135 33.6929 164.867 33.3397C165.392 33.0853 165.93 32.7262 166.469 32.2684C166.483 32.3107 166.497 32.3559 166.514 32.404C166.741 33.088 166.78 33.2153 166.786 33.2294L166.879 33.5997H170.225V23.8875C170.225 21.906 169.74 20.4334 168.785 19.5147C167.834 18.6017 166.33 18.1382 164.319 18.1382ZM165.915 29.0065C165.703 29.4135 165.361 29.7696 164.898 30.0665C164.403 30.3858 163.807 30.5469 163.125 30.5469C162.603 30.5469 162.207 30.4283 161.949 30.1936C161.701 29.9675 161.582 29.6339 161.582 29.1732C161.582 28.4638 161.811 27.9918 162.303 27.6865C162.865 27.336 163.799 27.1013 165.07 26.9882C165.121 26.9882 165.257 26.977 165.769 26.9346C165.819 26.9317 165.87 26.9261 165.915 26.9232V29.0065Z" fill="#2A2C2F"/>
<path d="M176.478 18.3433H172.282V33.9546H176.478V18.3433Z" fill="#2A2C2F"/>
<path d="M174.508 13.2002H174.252C173.165 13.2002 172.282 14.0823 172.282 15.1703V15.1732C172.282 16.2612 173.165 17.1433 174.252 17.1433H174.508C175.595 17.1433 176.478 16.2612 176.478 15.1732V15.1703C176.478 14.0823 175.595 13.2002 174.508 13.2002Z" fill="#2A2C2F"/>
</svg>
