<svg width="174" height="52" viewBox="0 0 174 52" fill="none" xmlns="http://www.w3.org/2000/svg">
<path d="M157.304 11.1541C156.109 11.1284 154.688 11.3865 153.079 11.9176C152.838 12.0023 152.647 12.1361 152.475 12.3055C150.839 13.8432 149.247 15.4734 147.742 17.1588L147.626 17.2867C147.594 17.3229 147.59 17.3769 147.614 17.4188C147.638 17.4611 147.686 17.483 147.734 17.4724L147.903 17.4374C150.328 16.9184 152.776 16.5201 155.178 16.257C155.336 16.2396 155.499 16.2938 155.617 16.4015C155.735 16.5103 155.804 16.6654 155.801 16.8266C155.761 19.2124 155.846 21.61 156.058 23.9538L156.073 24.1065C156.078 24.1533 156.11 24.191 156.157 24.2035C156.166 24.2056 156.174 24.2077 156.184 24.2077C156.22 24.2082 156.255 24.1914 156.277 24.1602L156.366 24.0344C157.719 22.1018 159.192 20.2232 160.74 18.4465C160.914 18.2488 160.959 18.1245 160.992 17.9451C161.479 14.822 160.727 12.5123 160.054 11.928C159.469 11.4207 158.621 11.1824 157.304 11.1541ZM153.588 17.4807L153.44 17.5013C151.123 17.8207 148.777 18.2632 146.468 18.8157C146.239 18.8797 146.092 19.0286 146.06 19.0633C144.331 21.1353 142.694 23.3161 141.192 25.5508C141.117 25.6638 141.11 25.9347 141.11 25.9347C141.11 25.9347 141.486 28.8456 142.037 30.9901C140.672 34.9201 139.454 40.0983 139.454 40.0983C139.445 40.1319 139.451 40.167 139.471 40.1953C139.491 40.2236 139.524 40.2416 139.559 40.2427H140.337C140.386 40.2435 140.429 40.2136 140.446 40.1684L140.499 40.0219C141.293 37.8565 142.197 35.7189 143.196 33.6355C143.429 33.1502 143.92 32.1704 143.92 32.1704C144 32.0114 144.377 31.2883 144.462 31.1263L144.476 31.0975C146.993 26.3462 150.06 21.8646 153.591 17.7778L153.688 17.6664C153.717 17.6309 153.724 17.5794 153.702 17.5384C153.679 17.4971 153.633 17.4745 153.588 17.4807ZM154.656 18.3762C154.613 18.3598 154.563 18.3709 154.533 18.4072L154.436 18.5207C150.319 23.2857 146.86 28.5746 144.153 34.2401L144.089 34.3722C144.068 34.414 144.076 34.4644 144.107 34.4981C144.129 34.5203 144.157 34.5328 144.188 34.5331C144.201 34.5337 144.219 34.531 144.233 34.5247L144.369 34.4669C146.681 33.5082 149.043 32.6775 151.389 31.999C151.529 31.9582 151.646 31.8607 151.712 31.7307C152.741 29.7246 155.129 25.8416 155.129 25.8416C155.19 25.754 155.176 25.6229 155.176 25.6229C155.176 25.6229 154.757 20.9784 154.731 18.6277L154.729 18.4792C154.726 18.4326 154.699 18.3918 154.656 18.3762ZM148.552 33.9739L148.36 34.04C147.117 34.4533 145.279 35.0886 143.629 35.8476C143.541 35.8891 143.483 36.0044 143.483 36.0044C143.452 36.0751 143.415 36.1634 143.371 36.2623L143.365 36.2747C143.18 36.6957 142.924 37.3293 142.814 37.5871L142.73 37.7913C142.717 37.8237 142.725 37.8598 142.75 37.8842C142.766 37.8988 142.783 37.9061 142.806 37.9069C142.818 37.9069 142.831 37.9048 142.843 37.8985L143.043 37.8036C143.494 37.5887 144.067 37.2632 144.666 36.9782L144.686 36.9676C145.825 36.4267 147.111 35.8163 147.886 35.4469C147.886 35.4463 148.011 35.3796 148.073 35.255L148.653 34.0912C148.668 34.0607 148.664 34.0243 148.642 33.9983C148.619 33.9729 148.584 33.9633 148.552 33.9739Z" fill="black"/>
<path d="M42.222 13.9868V33.3029H44.5743V31.9534H44.628C45.5269 32.9854 47.1668 33.7012 48.5945 33.7012C52.2959 33.7012 54.6742 30.7898 54.6742 26.2913C54.6742 21.925 52.1888 18.8814 48.646 18.8814C47.2448 18.8814 45.7656 19.5706 44.8403 20.6291H44.7867V13.9868H42.222ZM56.6842 13.9868V16.7127H59.4591V13.9868H56.6842ZM76.354 13.9868V33.3029H78.9186V24.4919C78.9186 22.5866 80.2937 21.2626 82.2502 21.2626C84.1802 21.2626 85.291 22.5328 85.291 24.7292V33.3029H87.8557V24.0957C87.8557 20.8938 85.9252 18.8814 82.8583 18.8814C81.2985 18.8814 79.7125 19.6222 78.9722 20.6807H78.9186V13.9868H76.354ZM128.306 13.9868V20.6291H128.253C127.327 19.5442 125.873 18.8814 124.472 18.8814C120.929 18.8814 118.417 21.9779 118.417 26.2913C118.417 30.7898 120.797 33.7012 124.499 33.7012C125.926 33.7012 127.564 32.9854 128.463 31.9534H128.517V33.3029H130.869V13.9868H128.306ZM12.7968 14.7812V33.3029H15.4397V25.9735H19.2207C22.1289 25.9735 23.1872 27.1382 23.1872 30.3666V33.3029H25.7519V30.3666C25.7519 27.4097 24.8499 25.6541 22.8924 24.9314C24.8991 24.2278 26.2797 22.5716 26.2797 20.1525C26.2797 16.8711 23.8463 14.7812 20.0392 14.7812H12.7968ZM15.4397 17.1893H19.8021C22.3137 17.1893 23.6099 18.2731 23.6099 20.4166C23.6099 22.4806 22.2877 23.6191 19.8289 23.6191H15.4397V17.1893ZM33.8932 18.8814C30.086 18.8814 27.4692 21.925 27.4692 26.2913C27.4692 30.7634 30.0067 33.7012 33.8932 33.7012C37.7267 33.7012 40.2388 30.7634 40.2388 26.2913C40.2388 21.925 37.6474 18.8814 33.8932 18.8814ZM68.6601 18.8814C67.1795 18.8814 65.5943 19.5971 64.8275 20.6291H64.7739V19.2796H62.2629V33.3029H64.8275V24.4919C64.8275 22.5073 66.1233 21.2626 68.1591 21.2626C70.1684 21.2626 71.1195 22.4288 71.1195 24.8633V33.3029H73.711V24.1205C73.711 20.8921 71.7534 18.8814 68.6601 18.8814ZM96.1289 18.8814C92.3218 18.8814 89.7049 21.925 89.7049 26.2913C89.7049 30.7634 92.2425 33.7012 96.1289 33.7012C99.9625 33.7012 102.475 30.7634 102.475 26.2913C102.475 21.925 99.8831 18.8814 96.1289 18.8814ZM110.486 18.8814C106.679 18.8814 104.062 21.925 104.062 26.2913C104.062 30.7634 106.599 33.7012 110.486 33.7012C114.319 33.7012 116.832 30.7634 116.832 26.2913C116.832 21.925 114.24 18.8814 110.486 18.8814ZM56.7893 19.2796V33.3029H59.354V19.2796H56.7893ZM33.8932 21.2378C36.2197 21.2378 37.7009 23.2216 37.7009 26.2913C37.7009 29.3873 36.2197 31.3715 33.8932 31.3715C31.4873 31.3715 30.007 29.4138 30.007 26.2913C30.007 23.1687 31.4873 21.2378 33.8932 21.2378ZM48.1966 21.2378C50.7082 21.2378 52.1095 23.0629 52.1095 26.2913C52.1095 29.5461 50.7082 31.3715 48.1966 31.3715C46.2666 31.3715 44.7867 30.0496 44.7867 28.3031V24.5456C44.7867 22.6667 46.2666 21.2378 48.1966 21.2378ZM96.1289 21.2378C98.4555 21.2378 99.9367 23.2216 99.9367 26.2913C99.9367 29.3873 98.4555 31.3715 96.1289 31.3715C93.723 31.3715 92.2428 29.4138 92.2428 26.2913C92.2428 23.1687 93.723 21.2378 96.1289 21.2378ZM110.486 21.2378C112.812 21.2378 114.294 23.2216 114.294 26.2913C114.294 29.3873 112.812 31.3715 110.486 31.3715C108.08 31.3715 106.6 29.4138 106.6 26.2913C106.6 23.1687 108.08 21.2378 110.486 21.2378ZM124.894 21.2378C126.824 21.2378 128.306 22.6667 128.306 24.5456V28.3031C128.306 30.0496 126.824 31.3715 124.894 31.3715C122.383 31.3715 120.982 29.5461 120.982 26.2913C120.982 23.0629 122.383 21.2378 124.894 21.2378Z" fill="black"/>
</svg>
