<svg width="400" height="220" viewBox="0 0 400 220" fill="none" xmlns="http://www.w3.org/2000/svg">
<g clip-path="url(#clip0_2022_409691)">
<g opacity="0.21">
<path d="M371 120.228C371.678 120.228 372.227 119.678 372.227 119C372.227 118.321 371.678 117.771 371 117.771C370.323 117.771 369.773 118.321 369.773 119C369.773 119.678 370.323 120.228 371 120.228Z" fill="#9695B7"/>
<path d="M389 120.228C389.678 120.228 390.227 119.678 390.227 119C390.227 118.321 389.678 117.771 389 117.771C388.323 117.771 387.773 118.321 387.773 119C387.773 119.678 388.323 120.228 389 120.228Z" fill="#9695B7"/>
<path d="M371 138.228C371.678 138.228 372.227 137.678 372.227 137C372.227 136.321 371.678 135.771 371 135.771C370.323 135.771 369.773 136.321 369.773 137C369.773 137.678 370.323 138.228 371 138.228Z" fill="#9695B7"/>
<path d="M389 138.228C389.678 138.228 390.227 137.678 390.227 137C390.227 136.321 389.678 135.771 389 135.771C388.323 135.771 387.773 136.321 387.773 137C387.773 137.678 388.323 138.228 389 138.228Z" fill="#9695B7"/>
<path d="M11.0001 120.228C11.6775 120.228 12.2267 119.678 12.2267 119C12.2267 118.321 11.6775 117.771 11.0001 117.771C10.3226 117.771 9.77344 118.321 9.77344 119C9.77344 119.678 10.3226 120.228 11.0001 120.228Z" fill="#9695B7"/>
<path d="M29.0001 120.228C29.6775 120.228 30.2267 119.678 30.2267 119C30.2267 118.321 29.6775 117.771 29.0001 117.771C28.3226 117.771 27.7734 118.321 27.7734 119C27.7734 119.678 28.3226 120.228 29.0001 120.228Z" fill="#9695B7"/>
<path d="M11.0001 138.228C11.6775 138.228 12.2267 137.678 12.2267 137C12.2267 136.321 11.6775 135.771 11.0001 135.771C10.3226 135.771 9.77344 136.321 9.77344 137C9.77344 137.678 10.3226 138.228 11.0001 138.228Z" fill="#9695B7"/>
<path d="M29.0001 138.228C29.6775 138.228 30.2267 137.678 30.2267 137C30.2267 136.321 29.6775 135.771 29.0001 135.771C28.3226 135.771 27.7734 136.321 27.7734 137C27.7734 137.678 28.3226 138.228 29.0001 138.228Z" fill="#9695B7"/>
<path d="M47.0001 120.228C47.6775 120.228 48.2267 119.678 48.2267 119C48.2267 118.321 47.6775 117.771 47.0001 117.771C46.3226 117.771 45.7734 118.321 45.7734 119C45.7734 119.678 46.3226 120.228 47.0001 120.228Z" fill="#9695B7"/>
<path d="M65.0001 120.228C65.6775 120.228 66.2267 119.678 66.2267 119C66.2267 118.321 65.6775 117.771 65.0001 117.771C64.3226 117.771 63.7734 118.321 63.7734 119C63.7734 119.678 64.3226 120.228 65.0001 120.228Z" fill="#9695B7"/>
<path d="M47.0001 138.228C47.6775 138.228 48.2267 137.678 48.2267 137C48.2267 136.321 47.6775 135.771 47.0001 135.771C46.3226 135.771 45.7734 136.321 45.7734 137C45.7734 137.678 46.3226 138.228 47.0001 138.228Z" fill="#9695B7"/>
<path d="M65.0001 138.228C65.6775 138.228 66.2267 137.678 66.2267 137C66.2267 136.321 65.6775 135.771 65.0001 135.771C64.3226 135.771 63.7734 136.321 63.7734 137C63.7734 137.678 64.3226 138.228 65.0001 138.228Z" fill="#9695B7"/>
<path d="M83.0001 120.228C83.6775 120.228 84.2267 119.678 84.2267 119C84.2267 118.321 83.6775 117.771 83.0001 117.771C82.3226 117.771 81.7734 118.321 81.7734 119C81.7734 119.678 82.3226 120.228 83.0001 120.228Z" fill="#9695B7"/>
<path d="M101 120.228C101.678 120.228 102.227 119.678 102.227 119C102.227 118.321 101.678 117.771 101 117.771C100.323 117.771 99.7734 118.321 99.7734 119C99.7734 119.678 100.323 120.228 101 120.228Z" fill="#9695B7"/>
<path d="M83.0001 138.228C83.6775 138.228 84.2267 137.678 84.2267 137C84.2267 136.321 83.6775 135.771 83.0001 135.771C82.3226 135.771 81.7734 136.321 81.7734 137C81.7734 137.678 82.3226 138.228 83.0001 138.228Z" fill="#9695B7"/>
<path d="M101 138.228C101.678 138.228 102.227 137.678 102.227 137C102.227 136.321 101.678 135.771 101 135.771C100.323 135.771 99.7734 136.321 99.7734 137C99.7734 137.678 100.323 138.228 101 138.228Z" fill="#9695B7"/>
<path d="M119 120.228C119.678 120.228 120.227 119.678 120.227 119C120.227 118.321 119.678 117.771 119 117.771C118.323 117.771 117.773 118.321 117.773 119C117.773 119.678 118.323 120.228 119 120.228Z" fill="#9695B7"/>
<path d="M137 120.228C137.678 120.228 138.227 119.678 138.227 119C138.227 118.321 137.678 117.771 137 117.771C136.323 117.771 135.773 118.321 135.773 119C135.773 119.678 136.323 120.228 137 120.228Z" fill="#9695B7"/>
<path d="M119 138.228C119.678 138.228 120.227 137.678 120.227 137C120.227 136.321 119.678 135.771 119 135.771C118.323 135.771 117.773 136.321 117.773 137C117.773 137.678 118.323 138.228 119 138.228Z" fill="#9695B7"/>
<path d="M137 138.228C137.678 138.228 138.227 137.678 138.227 137C138.227 136.321 137.678 135.771 137 135.771C136.323 135.771 135.773 136.321 135.773 137C135.773 137.678 136.323 138.228 137 138.228Z" fill="#9695B7"/>
<path d="M155 120.228C155.678 120.228 156.227 119.678 156.227 119C156.227 118.321 155.678 117.771 155 117.771C154.323 117.771 153.773 118.321 153.773 119C153.773 119.678 154.323 120.228 155 120.228Z" fill="#9695B7"/>
<path d="M173 120.228C173.678 120.228 174.227 119.678 174.227 119C174.227 118.321 173.678 117.771 173 117.771C172.323 117.771 171.773 118.321 171.773 119C171.773 119.678 172.323 120.228 173 120.228Z" fill="#9695B7"/>
<path d="M155 138.228C155.678 138.228 156.227 137.678 156.227 137C156.227 136.321 155.678 135.771 155 135.771C154.323 135.771 153.773 136.321 153.773 137C153.773 137.678 154.323 138.228 155 138.228Z" fill="#9695B7"/>
<path d="M173 138.228C173.678 138.228 174.227 137.678 174.227 137C174.227 136.321 173.678 135.771 173 135.771C172.323 135.771 171.773 136.321 171.773 137C171.773 137.678 172.323 138.228 173 138.228Z" fill="#9695B7"/>
<path d="M191 120.228C191.678 120.228 192.227 119.678 192.227 119C192.227 118.321 191.678 117.771 191 117.771C190.323 117.771 189.773 118.321 189.773 119C189.773 119.678 190.323 120.228 191 120.228Z" fill="#9695B7"/>
<path d="M209 120.228C209.678 120.228 210.227 119.678 210.227 119C210.227 118.321 209.678 117.771 209 117.771C208.323 117.771 207.773 118.321 207.773 119C207.773 119.678 208.323 120.228 209 120.228Z" fill="#9695B7"/>
<path d="M191 138.228C191.678 138.228 192.227 137.678 192.227 137C192.227 136.321 191.678 135.771 191 135.771C190.323 135.771 189.773 136.321 189.773 137C189.773 137.678 190.323 138.228 191 138.228Z" fill="#9695B7"/>
<path d="M209 138.228C209.678 138.228 210.227 137.678 210.227 137C210.227 136.321 209.678 135.771 209 135.771C208.323 135.771 207.773 136.321 207.773 137C207.773 137.678 208.323 138.228 209 138.228Z" fill="#9695B7"/>
<path d="M227 120.228C227.678 120.228 228.227 119.678 228.227 119C228.227 118.321 227.678 117.771 227 117.771C226.323 117.771 225.773 118.321 225.773 119C225.773 119.678 226.323 120.228 227 120.228Z" fill="#9695B7"/>
<path d="M245 120.228C245.678 120.228 246.227 119.678 246.227 119C246.227 118.321 245.678 117.771 245 117.771C244.323 117.771 243.773 118.321 243.773 119C243.773 119.678 244.323 120.228 245 120.228Z" fill="#9695B7"/>
<path d="M227 138.228C227.678 138.228 228.227 137.678 228.227 137C228.227 136.321 227.678 135.771 227 135.771C226.323 135.771 225.773 136.321 225.773 137C225.773 137.678 226.323 138.228 227 138.228Z" fill="#9695B7"/>
<path d="M245 138.228C245.678 138.228 246.227 137.678 246.227 137C246.227 136.321 245.678 135.771 245 135.771C244.323 135.771 243.773 136.321 243.773 137C243.773 137.678 244.323 138.228 245 138.228Z" fill="#9695B7"/>
<path d="M263 120.228C263.678 120.228 264.227 119.678 264.227 119C264.227 118.321 263.678 117.771 263 117.771C262.323 117.771 261.773 118.321 261.773 119C261.773 119.678 262.323 120.228 263 120.228Z" fill="#9695B7"/>
<path d="M281 120.228C281.678 120.228 282.227 119.678 282.227 119C282.227 118.321 281.678 117.771 281 117.771C280.323 117.771 279.773 118.321 279.773 119C279.773 119.678 280.323 120.228 281 120.228Z" fill="#9695B7"/>
<path d="M263 138.228C263.678 138.228 264.227 137.678 264.227 137C264.227 136.321 263.678 135.771 263 135.771C262.323 135.771 261.773 136.321 261.773 137C261.773 137.678 262.323 138.228 263 138.228Z" fill="#9695B7"/>
<path d="M281 138.228C281.678 138.228 282.227 137.678 282.227 137C282.227 136.321 281.678 135.771 281 135.771C280.323 135.771 279.773 136.321 279.773 137C279.773 137.678 280.323 138.228 281 138.228Z" fill="#9695B7"/>
<path d="M335 120.228C335.678 120.228 336.227 119.678 336.227 119C336.227 118.321 335.678 117.771 335 117.771C334.323 117.771 333.773 118.321 333.773 119C333.773 119.678 334.323 120.228 335 120.228Z" fill="#9695B7"/>
<path d="M353 120.228C353.678 120.228 354.227 119.678 354.227 119C354.227 118.321 353.678 117.771 353 117.771C352.323 117.771 351.773 118.321 351.773 119C351.773 119.678 352.323 120.228 353 120.228Z" fill="#9695B7"/>
<path d="M335 138.228C335.678 138.228 336.227 137.678 336.227 137C336.227 136.321 335.678 135.771 335 135.771C334.323 135.771 333.773 136.321 333.773 137C333.773 137.678 334.323 138.228 335 138.228Z" fill="#9695B7"/>
<path d="M353 138.228C353.678 138.228 354.227 137.678 354.227 137C354.227 136.321 353.678 135.771 353 135.771C352.323 135.771 351.773 136.321 351.773 137C351.773 137.678 352.323 138.228 353 138.228Z" fill="#9695B7"/>
<path d="M299 120.228C299.678 120.228 300.227 119.678 300.227 119C300.227 118.321 299.678 117.771 299 117.771C298.323 117.771 297.773 118.321 297.773 119C297.773 119.678 298.323 120.228 299 120.228Z" fill="#9695B7"/>
<path d="M317 120.228C317.678 120.228 318.227 119.678 318.227 119C318.227 118.321 317.678 117.771 317 117.771C316.323 117.771 315.773 118.321 315.773 119C315.773 119.678 316.323 120.228 317 120.228Z" fill="#9695B7"/>
<path d="M299 138.228C299.678 138.228 300.227 137.678 300.227 137C300.227 136.321 299.678 135.771 299 135.771C298.323 135.771 297.773 136.321 297.773 137C297.773 137.678 298.323 138.228 299 138.228Z" fill="#9695B7"/>
<path d="M317 138.228C317.678 138.228 318.227 137.678 318.227 137C318.227 136.321 317.678 135.771 317 135.771C316.323 135.771 315.773 136.321 315.773 137C315.773 137.678 316.323 138.228 317 138.228Z" fill="#9695B7"/>
<path d="M371 156.228C371.678 156.228 372.227 155.678 372.227 155C372.227 154.321 371.678 153.771 371 153.771C370.323 153.771 369.773 154.321 369.773 155C369.773 155.678 370.323 156.228 371 156.228Z" fill="#9695B7"/>
<path d="M389 156.228C389.678 156.228 390.227 155.678 390.227 155C390.227 154.321 389.678 153.771 389 153.771C388.323 153.771 387.773 154.321 387.773 155C387.773 155.678 388.323 156.228 389 156.228Z" fill="#9695B7"/>
<path d="M371 174.228C371.678 174.228 372.227 173.678 372.227 173C372.227 172.321 371.678 171.771 371 171.771C370.323 171.771 369.773 172.321 369.773 173C369.773 173.678 370.323 174.228 371 174.228Z" fill="#9695B7"/>
<path d="M389 174.228C389.678 174.228 390.227 173.678 390.227 173C390.227 172.321 389.678 171.771 389 171.771C388.323 171.771 387.773 172.321 387.773 173C387.773 173.678 388.323 174.228 389 174.228Z" fill="#9695B7"/>
<path d="M11.0001 156.228C11.6775 156.228 12.2267 155.678 12.2267 155C12.2267 154.321 11.6775 153.771 11.0001 153.771C10.3226 153.771 9.77344 154.321 9.77344 155C9.77344 155.678 10.3226 156.228 11.0001 156.228Z" fill="#9695B7"/>
<path d="M29.0001 156.228C29.6775 156.228 30.2267 155.678 30.2267 155C30.2267 154.321 29.6775 153.771 29.0001 153.771C28.3226 153.771 27.7734 154.321 27.7734 155C27.7734 155.678 28.3226 156.228 29.0001 156.228Z" fill="#9695B7"/>
<path d="M11.0001 174.228C11.6775 174.228 12.2267 173.678 12.2267 173C12.2267 172.321 11.6775 171.771 11.0001 171.771C10.3226 171.771 9.77344 172.321 9.77344 173C9.77344 173.678 10.3226 174.228 11.0001 174.228Z" fill="#9695B7"/>
<path d="M29.0001 174.228C29.6775 174.228 30.2267 173.678 30.2267 173C30.2267 172.321 29.6775 171.771 29.0001 171.771C28.3226 171.771 27.7734 172.321 27.7734 173C27.7734 173.678 28.3226 174.228 29.0001 174.228Z" fill="#9695B7"/>
<path d="M47.0001 156.228C47.6775 156.228 48.2267 155.678 48.2267 155C48.2267 154.321 47.6775 153.771 47.0001 153.771C46.3226 153.771 45.7734 154.321 45.7734 155C45.7734 155.678 46.3226 156.228 47.0001 156.228Z" fill="#9695B7"/>
<path d="M65.0001 156.228C65.6775 156.228 66.2267 155.678 66.2267 155C66.2267 154.321 65.6775 153.771 65.0001 153.771C64.3226 153.771 63.7734 154.321 63.7734 155C63.7734 155.678 64.3226 156.228 65.0001 156.228Z" fill="#9695B7"/>
<path d="M47.0001 174.228C47.6775 174.228 48.2267 173.678 48.2267 173C48.2267 172.321 47.6775 171.771 47.0001 171.771C46.3226 171.771 45.7734 172.321 45.7734 173C45.7734 173.678 46.3226 174.228 47.0001 174.228Z" fill="#9695B7"/>
<path d="M65.0001 174.228C65.6775 174.228 66.2267 173.678 66.2267 173C66.2267 172.321 65.6775 171.771 65.0001 171.771C64.3226 171.771 63.7734 172.321 63.7734 173C63.7734 173.678 64.3226 174.228 65.0001 174.228Z" fill="#9695B7"/>
<path d="M83.0001 156.228C83.6775 156.228 84.2267 155.678 84.2267 155C84.2267 154.321 83.6775 153.771 83.0001 153.771C82.3226 153.771 81.7734 154.321 81.7734 155C81.7734 155.678 82.3226 156.228 83.0001 156.228Z" fill="#9695B7"/>
<path d="M101 156.228C101.678 156.228 102.227 155.678 102.227 155C102.227 154.321 101.678 153.771 101 153.771C100.323 153.771 99.7734 154.321 99.7734 155C99.7734 155.678 100.323 156.228 101 156.228Z" fill="#9695B7"/>
<path d="M83.0001 174.228C83.6775 174.228 84.2267 173.678 84.2267 173C84.2267 172.321 83.6775 171.771 83.0001 171.771C82.3226 171.771 81.7734 172.321 81.7734 173C81.7734 173.678 82.3226 174.228 83.0001 174.228Z" fill="#9695B7"/>
<path d="M101 174.228C101.678 174.228 102.227 173.678 102.227 173C102.227 172.321 101.678 171.771 101 171.771C100.323 171.771 99.7734 172.321 99.7734 173C99.7734 173.678 100.323 174.228 101 174.228Z" fill="#9695B7"/>
<path d="M119 156.228C119.678 156.228 120.227 155.678 120.227 155C120.227 154.321 119.678 153.771 119 153.771C118.323 153.771 117.773 154.321 117.773 155C117.773 155.678 118.323 156.228 119 156.228Z" fill="#9695B7"/>
<path d="M137 156.228C137.678 156.228 138.227 155.678 138.227 155C138.227 154.321 137.678 153.771 137 153.771C136.323 153.771 135.773 154.321 135.773 155C135.773 155.678 136.323 156.228 137 156.228Z" fill="#9695B7"/>
<path d="M119 174.228C119.678 174.228 120.227 173.678 120.227 173C120.227 172.321 119.678 171.771 119 171.771C118.323 171.771 117.773 172.321 117.773 173C117.773 173.678 118.323 174.228 119 174.228Z" fill="#9695B7"/>
<path d="M137 174.228C137.678 174.228 138.227 173.678 138.227 173C138.227 172.321 137.678 171.771 137 171.771C136.323 171.771 135.773 172.321 135.773 173C135.773 173.678 136.323 174.228 137 174.228Z" fill="#9695B7"/>
<path d="M155 156.228C155.678 156.228 156.227 155.678 156.227 155C156.227 154.321 155.678 153.771 155 153.771C154.323 153.771 153.773 154.321 153.773 155C153.773 155.678 154.323 156.228 155 156.228Z" fill="#9695B7"/>
<path d="M173 156.228C173.678 156.228 174.227 155.678 174.227 155C174.227 154.321 173.678 153.771 173 153.771C172.323 153.771 171.773 154.321 171.773 155C171.773 155.678 172.323 156.228 173 156.228Z" fill="#9695B7"/>
<path d="M155 174.228C155.678 174.228 156.227 173.678 156.227 173C156.227 172.321 155.678 171.771 155 171.771C154.323 171.771 153.773 172.321 153.773 173C153.773 173.678 154.323 174.228 155 174.228Z" fill="#9695B7"/>
<path d="M173 174.228C173.678 174.228 174.227 173.678 174.227 173C174.227 172.321 173.678 171.771 173 171.771C172.323 171.771 171.773 172.321 171.773 173C171.773 173.678 172.323 174.228 173 174.228Z" fill="#9695B7"/>
<path d="M191 156.228C191.678 156.228 192.227 155.678 192.227 155C192.227 154.321 191.678 153.771 191 153.771C190.323 153.771 189.773 154.321 189.773 155C189.773 155.678 190.323 156.228 191 156.228Z" fill="#9695B7"/>
<path d="M209 156.228C209.678 156.228 210.227 155.678 210.227 155C210.227 154.321 209.678 153.771 209 153.771C208.323 153.771 207.773 154.321 207.773 155C207.773 155.678 208.323 156.228 209 156.228Z" fill="#9695B7"/>
<path d="M191 174.228C191.678 174.228 192.227 173.678 192.227 173C192.227 172.321 191.678 171.771 191 171.771C190.323 171.771 189.773 172.321 189.773 173C189.773 173.678 190.323 174.228 191 174.228Z" fill="#9695B7"/>
<path d="M209 174.228C209.678 174.228 210.227 173.678 210.227 173C210.227 172.321 209.678 171.771 209 171.771C208.323 171.771 207.773 172.321 207.773 173C207.773 173.678 208.323 174.228 209 174.228Z" fill="#9695B7"/>
<path d="M227 156.228C227.678 156.228 228.227 155.678 228.227 155C228.227 154.321 227.678 153.771 227 153.771C226.323 153.771 225.773 154.321 225.773 155C225.773 155.678 226.323 156.228 227 156.228Z" fill="#9695B7"/>
<path d="M245 156.228C245.678 156.228 246.227 155.678 246.227 155C246.227 154.321 245.678 153.771 245 153.771C244.323 153.771 243.773 154.321 243.773 155C243.773 155.678 244.323 156.228 245 156.228Z" fill="#9695B7"/>
<path d="M227 174.228C227.678 174.228 228.227 173.678 228.227 173C228.227 172.321 227.678 171.771 227 171.771C226.323 171.771 225.773 172.321 225.773 173C225.773 173.678 226.323 174.228 227 174.228Z" fill="#9695B7"/>
<path d="M245 174.228C245.678 174.228 246.227 173.678 246.227 173C246.227 172.321 245.678 171.771 245 171.771C244.323 171.771 243.773 172.321 243.773 173C243.773 173.678 244.323 174.228 245 174.228Z" fill="#9695B7"/>
<path d="M263 156.228C263.678 156.228 264.227 155.678 264.227 155C264.227 154.321 263.678 153.771 263 153.771C262.323 153.771 261.773 154.321 261.773 155C261.773 155.678 262.323 156.228 263 156.228Z" fill="#9695B7"/>
<path d="M281 156.228C281.678 156.228 282.227 155.678 282.227 155C282.227 154.321 281.678 153.771 281 153.771C280.323 153.771 279.773 154.321 279.773 155C279.773 155.678 280.323 156.228 281 156.228Z" fill="#9695B7"/>
<path d="M263 174.228C263.678 174.228 264.227 173.678 264.227 173C264.227 172.321 263.678 171.771 263 171.771C262.323 171.771 261.773 172.321 261.773 173C261.773 173.678 262.323 174.228 263 174.228Z" fill="#9695B7"/>
<path d="M281 174.228C281.678 174.228 282.227 173.678 282.227 173C282.227 172.321 281.678 171.771 281 171.771C280.323 171.771 279.773 172.321 279.773 173C279.773 173.678 280.323 174.228 281 174.228Z" fill="#9695B7"/>
<path d="M335 156.228C335.678 156.228 336.227 155.678 336.227 155C336.227 154.321 335.678 153.771 335 153.771C334.323 153.771 333.773 154.321 333.773 155C333.773 155.678 334.323 156.228 335 156.228Z" fill="#9695B7"/>
<path d="M353 156.228C353.678 156.228 354.227 155.678 354.227 155C354.227 154.321 353.678 153.771 353 153.771C352.323 153.771 351.773 154.321 351.773 155C351.773 155.678 352.323 156.228 353 156.228Z" fill="#9695B7"/>
<path d="M335 174.228C335.678 174.228 336.227 173.678 336.227 173C336.227 172.321 335.678 171.771 335 171.771C334.323 171.771 333.773 172.321 333.773 173C333.773 173.678 334.323 174.228 335 174.228Z" fill="#9695B7"/>
<path d="M353 174.228C353.678 174.228 354.227 173.678 354.227 173C354.227 172.321 353.678 171.771 353 171.771C352.323 171.771 351.773 172.321 351.773 173C351.773 173.678 352.323 174.228 353 174.228Z" fill="#9695B7"/>
<path d="M299 156.228C299.678 156.228 300.227 155.678 300.227 155C300.227 154.321 299.678 153.771 299 153.771C298.323 153.771 297.773 154.321 297.773 155C297.773 155.678 298.323 156.228 299 156.228Z" fill="#9695B7"/>
<path d="M317 156.228C317.678 156.228 318.227 155.678 318.227 155C318.227 154.321 317.678 153.771 317 153.771C316.323 153.771 315.773 154.321 315.773 155C315.773 155.678 316.323 156.228 317 156.228Z" fill="#9695B7"/>
<path d="M299 174.228C299.678 174.228 300.227 173.678 300.227 173C300.227 172.321 299.678 171.771 299 171.771C298.323 171.771 297.773 172.321 297.773 173C297.773 173.678 298.323 174.228 299 174.228Z" fill="#9695B7"/>
<path d="M317 174.228C317.678 174.228 318.227 173.678 318.227 173C318.227 172.321 317.678 171.771 317 171.771C316.323 171.771 315.773 172.321 315.773 173C315.773 173.678 316.323 174.228 317 174.228Z" fill="#9695B7"/>
<path d="M371 192.228C371.678 192.228 372.227 191.678 372.227 191C372.227 190.321 371.678 189.771 371 189.771C370.323 189.771 369.773 190.321 369.773 191C369.773 191.678 370.323 192.228 371 192.228Z" fill="#9695B7"/>
<path d="M389 192.228C389.678 192.228 390.227 191.678 390.227 191C390.227 190.321 389.678 189.771 389 189.771C388.323 189.771 387.773 190.321 387.773 191C387.773 191.678 388.323 192.228 389 192.228Z" fill="#9695B7"/>
<path d="M371 210.228C371.678 210.228 372.227 209.678 372.227 209C372.227 208.321 371.678 207.771 371 207.771C370.323 207.771 369.773 208.321 369.773 209C369.773 209.678 370.323 210.228 371 210.228Z" fill="#9695B7"/>
<path d="M389 210.228C389.678 210.228 390.227 209.678 390.227 209C390.227 208.321 389.678 207.771 389 207.771C388.323 207.771 387.773 208.321 387.773 209C387.773 209.678 388.323 210.228 389 210.228Z" fill="#9695B7"/>
<path d="M11.0001 192.228C11.6775 192.228 12.2267 191.678 12.2267 191C12.2267 190.321 11.6775 189.771 11.0001 189.771C10.3226 189.771 9.77344 190.321 9.77344 191C9.77344 191.678 10.3226 192.228 11.0001 192.228Z" fill="#9695B7"/>
<path d="M29.0001 192.228C29.6775 192.228 30.2267 191.678 30.2267 191C30.2267 190.321 29.6775 189.771 29.0001 189.771C28.3226 189.771 27.7734 190.321 27.7734 191C27.7734 191.678 28.3226 192.228 29.0001 192.228Z" fill="#9695B7"/>
<path d="M11.0001 210.228C11.6775 210.228 12.2267 209.678 12.2267 209C12.2267 208.321 11.6775 207.771 11.0001 207.771C10.3226 207.771 9.77344 208.321 9.77344 209C9.77344 209.678 10.3226 210.228 11.0001 210.228Z" fill="#9695B7"/>
<path d="M29.0001 210.228C29.6775 210.228 30.2267 209.678 30.2267 209C30.2267 208.321 29.6775 207.771 29.0001 207.771C28.3226 207.771 27.7734 208.321 27.7734 209C27.7734 209.678 28.3226 210.228 29.0001 210.228Z" fill="#9695B7"/>
<path d="M47.0001 192.228C47.6775 192.228 48.2267 191.678 48.2267 191C48.2267 190.321 47.6775 189.771 47.0001 189.771C46.3226 189.771 45.7734 190.321 45.7734 191C45.7734 191.678 46.3226 192.228 47.0001 192.228Z" fill="#9695B7"/>
<path d="M65.0001 192.228C65.6775 192.228 66.2267 191.678 66.2267 191C66.2267 190.321 65.6775 189.771 65.0001 189.771C64.3226 189.771 63.7734 190.321 63.7734 191C63.7734 191.678 64.3226 192.228 65.0001 192.228Z" fill="#9695B7"/>
<path d="M47.0001 210.228C47.6775 210.228 48.2267 209.678 48.2267 209C48.2267 208.321 47.6775 207.771 47.0001 207.771C46.3226 207.771 45.7734 208.321 45.7734 209C45.7734 209.678 46.3226 210.228 47.0001 210.228Z" fill="#9695B7"/>
<path d="M65.0001 210.228C65.6775 210.228 66.2267 209.678 66.2267 209C66.2267 208.321 65.6775 207.771 65.0001 207.771C64.3226 207.771 63.7734 208.321 63.7734 209C63.7734 209.678 64.3226 210.228 65.0001 210.228Z" fill="#9695B7"/>
<path d="M83.0001 192.228C83.6775 192.228 84.2267 191.678 84.2267 191C84.2267 190.321 83.6775 189.771 83.0001 189.771C82.3226 189.771 81.7734 190.321 81.7734 191C81.7734 191.678 82.3226 192.228 83.0001 192.228Z" fill="#9695B7"/>
<path d="M101 192.228C101.678 192.228 102.227 191.678 102.227 191C102.227 190.321 101.678 189.771 101 189.771C100.323 189.771 99.7734 190.321 99.7734 191C99.7734 191.678 100.323 192.228 101 192.228Z" fill="#9695B7"/>
<path d="M83.0001 210.228C83.6775 210.228 84.2267 209.678 84.2267 209C84.2267 208.321 83.6775 207.771 83.0001 207.771C82.3226 207.771 81.7734 208.321 81.7734 209C81.7734 209.678 82.3226 210.228 83.0001 210.228Z" fill="#9695B7"/>
<path d="M101 210.228C101.678 210.228 102.227 209.678 102.227 209C102.227 208.321 101.678 207.771 101 207.771C100.323 207.771 99.7734 208.321 99.7734 209C99.7734 209.678 100.323 210.228 101 210.228Z" fill="#9695B7"/>
<path d="M119 192.228C119.678 192.228 120.227 191.678 120.227 191C120.227 190.321 119.678 189.771 119 189.771C118.323 189.771 117.773 190.321 117.773 191C117.773 191.678 118.323 192.228 119 192.228Z" fill="#9695B7"/>
<path d="M137 192.228C137.678 192.228 138.227 191.678 138.227 191C138.227 190.321 137.678 189.771 137 189.771C136.323 189.771 135.773 190.321 135.773 191C135.773 191.678 136.323 192.228 137 192.228Z" fill="#9695B7"/>
<path d="M119 210.228C119.678 210.228 120.227 209.678 120.227 209C120.227 208.321 119.678 207.771 119 207.771C118.323 207.771 117.773 208.321 117.773 209C117.773 209.678 118.323 210.228 119 210.228Z" fill="#9695B7"/>
<path d="M137 210.228C137.678 210.228 138.227 209.678 138.227 209C138.227 208.321 137.678 207.771 137 207.771C136.323 207.771 135.773 208.321 135.773 209C135.773 209.678 136.323 210.228 137 210.228Z" fill="#9695B7"/>
<path d="M155 192.228C155.678 192.228 156.227 191.678 156.227 191C156.227 190.321 155.678 189.771 155 189.771C154.323 189.771 153.773 190.321 153.773 191C153.773 191.678 154.323 192.228 155 192.228Z" fill="#9695B7"/>
<path d="M173 192.228C173.678 192.228 174.227 191.678 174.227 191C174.227 190.321 173.678 189.771 173 189.771C172.323 189.771 171.773 190.321 171.773 191C171.773 191.678 172.323 192.228 173 192.228Z" fill="#9695B7"/>
<path d="M155 210.228C155.678 210.228 156.227 209.678 156.227 209C156.227 208.321 155.678 207.771 155 207.771C154.323 207.771 153.773 208.321 153.773 209C153.773 209.678 154.323 210.228 155 210.228Z" fill="#9695B7"/>
<path d="M173 210.228C173.678 210.228 174.227 209.678 174.227 209C174.227 208.321 173.678 207.771 173 207.771C172.323 207.771 171.773 208.321 171.773 209C171.773 209.678 172.323 210.228 173 210.228Z" fill="#9695B7"/>
<path d="M191 192.228C191.678 192.228 192.227 191.678 192.227 191C192.227 190.321 191.678 189.771 191 189.771C190.323 189.771 189.773 190.321 189.773 191C189.773 191.678 190.323 192.228 191 192.228Z" fill="#9695B7"/>
<path d="M209 192.228C209.678 192.228 210.227 191.678 210.227 191C210.227 190.321 209.678 189.771 209 189.771C208.323 189.771 207.773 190.321 207.773 191C207.773 191.678 208.323 192.228 209 192.228Z" fill="#9695B7"/>
<path d="M191 210.228C191.678 210.228 192.227 209.678 192.227 209C192.227 208.321 191.678 207.771 191 207.771C190.323 207.771 189.773 208.321 189.773 209C189.773 209.678 190.323 210.228 191 210.228Z" fill="#9695B7"/>
<path d="M209 210.228C209.678 210.228 210.227 209.678 210.227 209C210.227 208.321 209.678 207.771 209 207.771C208.323 207.771 207.773 208.321 207.773 209C207.773 209.678 208.323 210.228 209 210.228Z" fill="#9695B7"/>
<path d="M227 192.228C227.678 192.228 228.227 191.678 228.227 191C228.227 190.321 227.678 189.771 227 189.771C226.323 189.771 225.773 190.321 225.773 191C225.773 191.678 226.323 192.228 227 192.228Z" fill="#9695B7"/>
<path d="M245 192.228C245.678 192.228 246.227 191.678 246.227 191C246.227 190.321 245.678 189.771 245 189.771C244.323 189.771 243.773 190.321 243.773 191C243.773 191.678 244.323 192.228 245 192.228Z" fill="#9695B7"/>
<path d="M227 210.228C227.678 210.228 228.227 209.678 228.227 209C228.227 208.321 227.678 207.771 227 207.771C226.323 207.771 225.773 208.321 225.773 209C225.773 209.678 226.323 210.228 227 210.228Z" fill="#9695B7"/>
<path d="M245 210.228C245.678 210.228 246.227 209.678 246.227 209C246.227 208.321 245.678 207.771 245 207.771C244.323 207.771 243.773 208.321 243.773 209C243.773 209.678 244.323 210.228 245 210.228Z" fill="#9695B7"/>
<path d="M263 192.228C263.678 192.228 264.227 191.678 264.227 191C264.227 190.321 263.678 189.771 263 189.771C262.323 189.771 261.773 190.321 261.773 191C261.773 191.678 262.323 192.228 263 192.228Z" fill="#9695B7"/>
<path d="M281 192.228C281.678 192.228 282.227 191.678 282.227 191C282.227 190.321 281.678 189.771 281 189.771C280.323 189.771 279.773 190.321 279.773 191C279.773 191.678 280.323 192.228 281 192.228Z" fill="#9695B7"/>
<path d="M263 210.228C263.678 210.228 264.227 209.678 264.227 209C264.227 208.321 263.678 207.771 263 207.771C262.323 207.771 261.773 208.321 261.773 209C261.773 209.678 262.323 210.228 263 210.228Z" fill="#9695B7"/>
<path d="M281 210.228C281.678 210.228 282.227 209.678 282.227 209C282.227 208.321 281.678 207.771 281 207.771C280.323 207.771 279.773 208.321 279.773 209C279.773 209.678 280.323 210.228 281 210.228Z" fill="#9695B7"/>
<path d="M335 192.228C335.678 192.228 336.227 191.678 336.227 191C336.227 190.321 335.678 189.771 335 189.771C334.323 189.771 333.773 190.321 333.773 191C333.773 191.678 334.323 192.228 335 192.228Z" fill="#9695B7"/>
<path d="M353 192.228C353.678 192.228 354.227 191.678 354.227 191C354.227 190.321 353.678 189.771 353 189.771C352.323 189.771 351.773 190.321 351.773 191C351.773 191.678 352.323 192.228 353 192.228Z" fill="#9695B7"/>
<path d="M335 210.228C335.678 210.228 336.227 209.678 336.227 209C336.227 208.321 335.678 207.771 335 207.771C334.323 207.771 333.773 208.321 333.773 209C333.773 209.678 334.323 210.228 335 210.228Z" fill="#9695B7"/>
<path d="M353 210.228C353.678 210.228 354.227 209.678 354.227 209C354.227 208.321 353.678 207.771 353 207.771C352.323 207.771 351.773 208.321 351.773 209C351.773 209.678 352.323 210.228 353 210.228Z" fill="#9695B7"/>
<path d="M299 192.228C299.678 192.228 300.227 191.678 300.227 191C300.227 190.321 299.678 189.771 299 189.771C298.323 189.771 297.773 190.321 297.773 191C297.773 191.678 298.323 192.228 299 192.228Z" fill="#9695B7"/>
<path d="M317 192.228C317.678 192.228 318.227 191.678 318.227 191C318.227 190.321 317.678 189.771 317 189.771C316.323 189.771 315.773 190.321 315.773 191C315.773 191.678 316.323 192.228 317 192.228Z" fill="#9695B7"/>
<path d="M299 210.228C299.678 210.228 300.227 209.678 300.227 209C300.227 208.321 299.678 207.771 299 207.771C298.323 207.771 297.773 208.321 297.773 209C297.773 209.678 298.323 210.228 299 210.228Z" fill="#9695B7"/>
<path d="M317 210.228C317.678 210.228 318.227 209.678 318.227 209C318.227 208.321 317.678 207.771 317 207.771C316.323 207.771 315.773 208.321 315.773 209C315.773 209.678 316.323 210.228 317 210.228Z" fill="#9695B7"/>
<path d="M371 12.2283C371.678 12.2283 372.227 11.6784 372.227 11.0001C372.227 10.3218 371.678 9.77197 371 9.77197C370.323 9.77197 369.773 10.3218 369.773 11.0001C369.773 11.6784 370.323 12.2283 371 12.2283Z" fill="#9695B7"/>
<path d="M389 12.2283C389.678 12.2283 390.227 11.6784 390.227 11.0001C390.227 10.3218 389.678 9.77197 389 9.77197C388.323 9.77197 387.773 10.3218 387.773 11.0001C387.773 11.6784 388.323 12.2283 389 12.2283Z" fill="#9695B7"/>
<path d="M371 30.2283C371.678 30.2283 372.227 29.6784 372.227 29.0001C372.227 28.3218 371.678 27.772 371 27.772C370.323 27.772 369.773 28.3218 369.773 29.0001C369.773 29.6784 370.323 30.2283 371 30.2283Z" fill="#9695B7"/>
<path d="M389 30.2283C389.678 30.2283 390.227 29.6784 390.227 29.0001C390.227 28.3218 389.678 27.772 389 27.772C388.323 27.772 387.773 28.3218 387.773 29.0001C387.773 29.6784 388.323 30.2283 389 30.2283Z" fill="#9695B7"/>
<path d="M11.0001 12.2283C11.6775 12.2283 12.2267 11.6784 12.2267 11.0001C12.2267 10.3218 11.6775 9.77197 11.0001 9.77197C10.3226 9.77197 9.77344 10.3218 9.77344 11.0001C9.77344 11.6784 10.3226 12.2283 11.0001 12.2283Z" fill="#9695B7"/>
<path d="M29.0001 12.2283C29.6775 12.2283 30.2267 11.6784 30.2267 11.0001C30.2267 10.3218 29.6775 9.77197 29.0001 9.77197C28.3226 9.77197 27.7734 10.3218 27.7734 11.0001C27.7734 11.6784 28.3226 12.2283 29.0001 12.2283Z" fill="#9695B7"/>
<path d="M11.0001 30.2283C11.6775 30.2283 12.2267 29.6784 12.2267 29.0001C12.2267 28.3218 11.6775 27.772 11.0001 27.772C10.3226 27.772 9.77344 28.3218 9.77344 29.0001C9.77344 29.6784 10.3226 30.2283 11.0001 30.2283Z" fill="#9695B7"/>
<path d="M29.0001 30.2283C29.6775 30.2283 30.2267 29.6784 30.2267 29.0001C30.2267 28.3218 29.6775 27.772 29.0001 27.772C28.3226 27.772 27.7734 28.3218 27.7734 29.0001C27.7734 29.6784 28.3226 30.2283 29.0001 30.2283Z" fill="#9695B7"/>
<path d="M47.0001 12.2283C47.6775 12.2283 48.2267 11.6784 48.2267 11.0001C48.2267 10.3218 47.6775 9.77197 47.0001 9.77197C46.3226 9.77197 45.7734 10.3218 45.7734 11.0001C45.7734 11.6784 46.3226 12.2283 47.0001 12.2283Z" fill="#9695B7"/>
<path d="M65.0001 12.2283C65.6775 12.2283 66.2267 11.6784 66.2267 11.0001C66.2267 10.3218 65.6775 9.77197 65.0001 9.77197C64.3226 9.77197 63.7734 10.3218 63.7734 11.0001C63.7734 11.6784 64.3226 12.2283 65.0001 12.2283Z" fill="#9695B7"/>
<path d="M47.0001 30.2283C47.6775 30.2283 48.2267 29.6784 48.2267 29.0001C48.2267 28.3218 47.6775 27.772 47.0001 27.772C46.3226 27.772 45.7734 28.3218 45.7734 29.0001C45.7734 29.6784 46.3226 30.2283 47.0001 30.2283Z" fill="#9695B7"/>
<path d="M65.0001 30.2283C65.6775 30.2283 66.2267 29.6784 66.2267 29.0001C66.2267 28.3218 65.6775 27.772 65.0001 27.772C64.3226 27.772 63.7734 28.3218 63.7734 29.0001C63.7734 29.6784 64.3226 30.2283 65.0001 30.2283Z" fill="#9695B7"/>
<path d="M83.0001 12.2283C83.6775 12.2283 84.2267 11.6784 84.2267 11.0001C84.2267 10.3218 83.6775 9.77197 83.0001 9.77197C82.3226 9.77197 81.7734 10.3218 81.7734 11.0001C81.7734 11.6784 82.3226 12.2283 83.0001 12.2283Z" fill="#9695B7"/>
<path d="M101 12.2283C101.678 12.2283 102.227 11.6784 102.227 11.0001C102.227 10.3218 101.678 9.77197 101 9.77197C100.323 9.77197 99.7734 10.3218 99.7734 11.0001C99.7734 11.6784 100.323 12.2283 101 12.2283Z" fill="#9695B7"/>
<path d="M83.0001 30.2283C83.6775 30.2283 84.2267 29.6784 84.2267 29.0001C84.2267 28.3218 83.6775 27.772 83.0001 27.772C82.3226 27.772 81.7734 28.3218 81.7734 29.0001C81.7734 29.6784 82.3226 30.2283 83.0001 30.2283Z" fill="#9695B7"/>
<path d="M101 30.2283C101.678 30.2283 102.227 29.6784 102.227 29.0001C102.227 28.3218 101.678 27.772 101 27.772C100.323 27.772 99.7734 28.3218 99.7734 29.0001C99.7734 29.6784 100.323 30.2283 101 30.2283Z" fill="#9695B7"/>
<path d="M119 12.2283C119.678 12.2283 120.227 11.6784 120.227 11.0001C120.227 10.3218 119.678 9.77197 119 9.77197C118.323 9.77197 117.773 10.3218 117.773 11.0001C117.773 11.6784 118.323 12.2283 119 12.2283Z" fill="#9695B7"/>
<path d="M137 12.2283C137.678 12.2283 138.227 11.6784 138.227 11.0001C138.227 10.3218 137.678 9.77197 137 9.77197C136.323 9.77197 135.773 10.3218 135.773 11.0001C135.773 11.6784 136.323 12.2283 137 12.2283Z" fill="#9695B7"/>
<path d="M119 30.2283C119.678 30.2283 120.227 29.6784 120.227 29.0001C120.227 28.3218 119.678 27.772 119 27.772C118.323 27.772 117.773 28.3218 117.773 29.0001C117.773 29.6784 118.323 30.2283 119 30.2283Z" fill="#9695B7"/>
<path d="M137 30.2283C137.678 30.2283 138.227 29.6784 138.227 29.0001C138.227 28.3218 137.678 27.772 137 27.772C136.323 27.772 135.773 28.3218 135.773 29.0001C135.773 29.6784 136.323 30.2283 137 30.2283Z" fill="#9695B7"/>
<path d="M155 12.2283C155.678 12.2283 156.227 11.6784 156.227 11.0001C156.227 10.3218 155.678 9.77197 155 9.77197C154.323 9.77197 153.773 10.3218 153.773 11.0001C153.773 11.6784 154.323 12.2283 155 12.2283Z" fill="#9695B7"/>
<path d="M173 12.2283C173.678 12.2283 174.227 11.6784 174.227 11.0001C174.227 10.3218 173.678 9.77197 173 9.77197C172.323 9.77197 171.773 10.3218 171.773 11.0001C171.773 11.6784 172.323 12.2283 173 12.2283Z" fill="#9695B7"/>
<path d="M155 30.2283C155.678 30.2283 156.227 29.6784 156.227 29.0001C156.227 28.3218 155.678 27.772 155 27.772C154.323 27.772 153.773 28.3218 153.773 29.0001C153.773 29.6784 154.323 30.2283 155 30.2283Z" fill="#9695B7"/>
<path d="M173 30.2283C173.678 30.2283 174.227 29.6784 174.227 29.0001C174.227 28.3218 173.678 27.772 173 27.772C172.323 27.772 171.773 28.3218 171.773 29.0001C171.773 29.6784 172.323 30.2283 173 30.2283Z" fill="#9695B7"/>
<path d="M191 12.2283C191.678 12.2283 192.227 11.6784 192.227 11.0001C192.227 10.3218 191.678 9.77197 191 9.77197C190.323 9.77197 189.773 10.3218 189.773 11.0001C189.773 11.6784 190.323 12.2283 191 12.2283Z" fill="#9695B7"/>
<path d="M209 12.2283C209.678 12.2283 210.227 11.6784 210.227 11.0001C210.227 10.3218 209.678 9.77197 209 9.77197C208.323 9.77197 207.773 10.3218 207.773 11.0001C207.773 11.6784 208.323 12.2283 209 12.2283Z" fill="#9695B7"/>
<path d="M191 30.2283C191.678 30.2283 192.227 29.6784 192.227 29.0001C192.227 28.3218 191.678 27.772 191 27.772C190.323 27.772 189.773 28.3218 189.773 29.0001C189.773 29.6784 190.323 30.2283 191 30.2283Z" fill="#9695B7"/>
<path d="M209 30.2283C209.678 30.2283 210.227 29.6784 210.227 29.0001C210.227 28.3218 209.678 27.772 209 27.772C208.323 27.772 207.773 28.3218 207.773 29.0001C207.773 29.6784 208.323 30.2283 209 30.2283Z" fill="#9695B7"/>
<path d="M227 12.2283C227.678 12.2283 228.227 11.6784 228.227 11.0001C228.227 10.3218 227.678 9.77197 227 9.77197C226.323 9.77197 225.773 10.3218 225.773 11.0001C225.773 11.6784 226.323 12.2283 227 12.2283Z" fill="#9695B7"/>
<path d="M245 12.2283C245.678 12.2283 246.227 11.6784 246.227 11.0001C246.227 10.3218 245.678 9.77197 245 9.77197C244.323 9.77197 243.773 10.3218 243.773 11.0001C243.773 11.6784 244.323 12.2283 245 12.2283Z" fill="#9695B7"/>
<path d="M227 30.2283C227.678 30.2283 228.227 29.6784 228.227 29.0001C228.227 28.3218 227.678 27.772 227 27.772C226.323 27.772 225.773 28.3218 225.773 29.0001C225.773 29.6784 226.323 30.2283 227 30.2283Z" fill="#9695B7"/>
<path d="M245 30.2283C245.678 30.2283 246.227 29.6784 246.227 29.0001C246.227 28.3218 245.678 27.772 245 27.772C244.323 27.772 243.773 28.3218 243.773 29.0001C243.773 29.6784 244.323 30.2283 245 30.2283Z" fill="#9695B7"/>
<path d="M263 12.2283C263.678 12.2283 264.227 11.6784 264.227 11.0001C264.227 10.3218 263.678 9.77197 263 9.77197C262.323 9.77197 261.773 10.3218 261.773 11.0001C261.773 11.6784 262.323 12.2283 263 12.2283Z" fill="#9695B7"/>
<path d="M281 12.2283C281.678 12.2283 282.227 11.6784 282.227 11.0001C282.227 10.3218 281.678 9.77197 281 9.77197C280.323 9.77197 279.773 10.3218 279.773 11.0001C279.773 11.6784 280.323 12.2283 281 12.2283Z" fill="#9695B7"/>
<path d="M263 30.2283C263.678 30.2283 264.227 29.6784 264.227 29.0001C264.227 28.3218 263.678 27.772 263 27.772C262.323 27.772 261.773 28.3218 261.773 29.0001C261.773 29.6784 262.323 30.2283 263 30.2283Z" fill="#9695B7"/>
<path d="M281 30.2283C281.678 30.2283 282.227 29.6784 282.227 29.0001C282.227 28.3218 281.678 27.772 281 27.772C280.323 27.772 279.773 28.3218 279.773 29.0001C279.773 29.6784 280.323 30.2283 281 30.2283Z" fill="#9695B7"/>
<path d="M335 12.2283C335.678 12.2283 336.227 11.6784 336.227 11.0001C336.227 10.3218 335.678 9.77197 335 9.77197C334.323 9.77197 333.773 10.3218 333.773 11.0001C333.773 11.6784 334.323 12.2283 335 12.2283Z" fill="#9695B7"/>
<path d="M353 12.2283C353.678 12.2283 354.227 11.6784 354.227 11.0001C354.227 10.3218 353.678 9.77197 353 9.77197C352.323 9.77197 351.773 10.3218 351.773 11.0001C351.773 11.6784 352.323 12.2283 353 12.2283Z" fill="#9695B7"/>
<path d="M335 30.2283C335.678 30.2283 336.227 29.6784 336.227 29.0001C336.227 28.3218 335.678 27.772 335 27.772C334.323 27.772 333.773 28.3218 333.773 29.0001C333.773 29.6784 334.323 30.2283 335 30.2283Z" fill="#9695B7"/>
<path d="M353 30.2283C353.678 30.2283 354.227 29.6784 354.227 29.0001C354.227 28.3218 353.678 27.772 353 27.772C352.323 27.772 351.773 28.3218 351.773 29.0001C351.773 29.6784 352.323 30.2283 353 30.2283Z" fill="#9695B7"/>
<path d="M299 12.2283C299.678 12.2283 300.227 11.6784 300.227 11.0001C300.227 10.3218 299.678 9.77197 299 9.77197C298.323 9.77197 297.773 10.3218 297.773 11.0001C297.773 11.6784 298.323 12.2283 299 12.2283Z" fill="#9695B7"/>
<path d="M317 12.2283C317.678 12.2283 318.227 11.6784 318.227 11.0001C318.227 10.3218 317.678 9.77197 317 9.77197C316.323 9.77197 315.773 10.3218 315.773 11.0001C315.773 11.6784 316.323 12.2283 317 12.2283Z" fill="#9695B7"/>
<path d="M299 30.2283C299.678 30.2283 300.227 29.6784 300.227 29.0001C300.227 28.3218 299.678 27.772 299 27.772C298.323 27.772 297.773 28.3218 297.773 29.0001C297.773 29.6784 298.323 30.2283 299 30.2283Z" fill="#9695B7"/>
<path d="M317 30.2283C317.678 30.2283 318.227 29.6784 318.227 29.0001C318.227 28.3218 317.678 27.772 317 27.772C316.323 27.772 315.773 28.3218 315.773 29.0001C315.773 29.6784 316.323 30.2283 317 30.2283Z" fill="#9695B7"/>
<path d="M371 48.2283C371.678 48.2283 372.227 47.6784 372.227 47.0001C372.227 46.3218 371.678 45.772 371 45.772C370.323 45.772 369.773 46.3218 369.773 47.0001C369.773 47.6784 370.323 48.2283 371 48.2283Z" fill="#9695B7"/>
<path d="M389 48.2283C389.678 48.2283 390.227 47.6784 390.227 47.0001C390.227 46.3218 389.678 45.772 389 45.772C388.323 45.772 387.773 46.3218 387.773 47.0001C387.773 47.6784 388.323 48.2283 389 48.2283Z" fill="#9695B7"/>
<path d="M371 66.2278C371.678 66.2278 372.227 65.6779 372.227 64.9996C372.227 64.3213 371.678 63.7715 371 63.7715C370.323 63.7715 369.773 64.3213 369.773 64.9996C369.773 65.6779 370.323 66.2278 371 66.2278Z" fill="#9695B7"/>
<path d="M389 66.2278C389.678 66.2278 390.227 65.6779 390.227 64.9996C390.227 64.3213 389.678 63.7715 389 63.7715C388.323 63.7715 387.773 64.3213 387.773 64.9996C387.773 65.6779 388.323 66.2278 389 66.2278Z" fill="#9695B7"/>
<path d="M11.0001 48.2283C11.6775 48.2283 12.2267 47.6784 12.2267 47.0001C12.2267 46.3218 11.6775 45.772 11.0001 45.772C10.3226 45.772 9.77344 46.3218 9.77344 47.0001C9.77344 47.6784 10.3226 48.2283 11.0001 48.2283Z" fill="#9695B7"/>
<path d="M29.0001 48.2283C29.6775 48.2283 30.2267 47.6784 30.2267 47.0001C30.2267 46.3218 29.6775 45.772 29.0001 45.772C28.3226 45.772 27.7734 46.3218 27.7734 47.0001C27.7734 47.6784 28.3226 48.2283 29.0001 48.2283Z" fill="#9695B7"/>
<path d="M11.0001 66.2278C11.6775 66.2278 12.2267 65.6779 12.2267 64.9996C12.2267 64.3213 11.6775 63.7715 11.0001 63.7715C10.3226 63.7715 9.77344 64.3213 9.77344 64.9996C9.77344 65.6779 10.3226 66.2278 11.0001 66.2278Z" fill="#9695B7"/>
<path d="M29.0001 66.2278C29.6775 66.2278 30.2267 65.6779 30.2267 64.9996C30.2267 64.3213 29.6775 63.7715 29.0001 63.7715C28.3226 63.7715 27.7734 64.3213 27.7734 64.9996C27.7734 65.6779 28.3226 66.2278 29.0001 66.2278Z" fill="#9695B7"/>
<path d="M47.0001 48.2283C47.6775 48.2283 48.2267 47.6784 48.2267 47.0001C48.2267 46.3218 47.6775 45.772 47.0001 45.772C46.3226 45.772 45.7734 46.3218 45.7734 47.0001C45.7734 47.6784 46.3226 48.2283 47.0001 48.2283Z" fill="#9695B7"/>
<path d="M65.0001 48.2283C65.6775 48.2283 66.2267 47.6784 66.2267 47.0001C66.2267 46.3218 65.6775 45.772 65.0001 45.772C64.3226 45.772 63.7734 46.3218 63.7734 47.0001C63.7734 47.6784 64.3226 48.2283 65.0001 48.2283Z" fill="#9695B7"/>
<path d="M47.0001 66.2278C47.6775 66.2278 48.2267 65.6779 48.2267 64.9996C48.2267 64.3213 47.6775 63.7715 47.0001 63.7715C46.3226 63.7715 45.7734 64.3213 45.7734 64.9996C45.7734 65.6779 46.3226 66.2278 47.0001 66.2278Z" fill="#9695B7"/>
<path d="M65.0001 66.2278C65.6775 66.2278 66.2267 65.6779 66.2267 64.9996C66.2267 64.3213 65.6775 63.7715 65.0001 63.7715C64.3226 63.7715 63.7734 64.3213 63.7734 64.9996C63.7734 65.6779 64.3226 66.2278 65.0001 66.2278Z" fill="#9695B7"/>
<path d="M83.0001 48.2283C83.6775 48.2283 84.2267 47.6784 84.2267 47.0001C84.2267 46.3218 83.6775 45.772 83.0001 45.772C82.3226 45.772 81.7734 46.3218 81.7734 47.0001C81.7734 47.6784 82.3226 48.2283 83.0001 48.2283Z" fill="#9695B7"/>
<path d="M101 48.2283C101.678 48.2283 102.227 47.6784 102.227 47.0001C102.227 46.3218 101.678 45.772 101 45.772C100.323 45.772 99.7734 46.3218 99.7734 47.0001C99.7734 47.6784 100.323 48.2283 101 48.2283Z" fill="#9695B7"/>
<path d="M83.0001 66.2278C83.6775 66.2278 84.2267 65.6779 84.2267 64.9996C84.2267 64.3213 83.6775 63.7715 83.0001 63.7715C82.3226 63.7715 81.7734 64.3213 81.7734 64.9996C81.7734 65.6779 82.3226 66.2278 83.0001 66.2278Z" fill="#9695B7"/>
<path d="M101 66.2278C101.678 66.2278 102.227 65.6779 102.227 64.9996C102.227 64.3213 101.678 63.7715 101 63.7715C100.323 63.7715 99.7734 64.3213 99.7734 64.9996C99.7734 65.6779 100.323 66.2278 101 66.2278Z" fill="#9695B7"/>
<path d="M119 48.2283C119.678 48.2283 120.227 47.6784 120.227 47.0001C120.227 46.3218 119.678 45.772 119 45.772C118.323 45.772 117.773 46.3218 117.773 47.0001C117.773 47.6784 118.323 48.2283 119 48.2283Z" fill="#9695B7"/>
<path d="M137 48.2283C137.678 48.2283 138.227 47.6784 138.227 47.0001C138.227 46.3218 137.678 45.772 137 45.772C136.323 45.772 135.773 46.3218 135.773 47.0001C135.773 47.6784 136.323 48.2283 137 48.2283Z" fill="#9695B7"/>
<path d="M119 66.2278C119.678 66.2278 120.227 65.6779 120.227 64.9996C120.227 64.3213 119.678 63.7715 119 63.7715C118.323 63.7715 117.773 64.3213 117.773 64.9996C117.773 65.6779 118.323 66.2278 119 66.2278Z" fill="#9695B7"/>
<path d="M137 66.2278C137.678 66.2278 138.227 65.6779 138.227 64.9996C138.227 64.3213 137.678 63.7715 137 63.7715C136.323 63.7715 135.773 64.3213 135.773 64.9996C135.773 65.6779 136.323 66.2278 137 66.2278Z" fill="#9695B7"/>
<path d="M155 48.2283C155.678 48.2283 156.227 47.6784 156.227 47.0001C156.227 46.3218 155.678 45.772 155 45.772C154.323 45.772 153.773 46.3218 153.773 47.0001C153.773 47.6784 154.323 48.2283 155 48.2283Z" fill="#9695B7"/>
<path d="M173 48.2283C173.678 48.2283 174.227 47.6784 174.227 47.0001C174.227 46.3218 173.678 45.772 173 45.772C172.323 45.772 171.773 46.3218 171.773 47.0001C171.773 47.6784 172.323 48.2283 173 48.2283Z" fill="#9695B7"/>
<path d="M155 66.2278C155.678 66.2278 156.227 65.6779 156.227 64.9996C156.227 64.3213 155.678 63.7715 155 63.7715C154.323 63.7715 153.773 64.3213 153.773 64.9996C153.773 65.6779 154.323 66.2278 155 66.2278Z" fill="#9695B7"/>
<path d="M173 66.2278C173.678 66.2278 174.227 65.6779 174.227 64.9996C174.227 64.3213 173.678 63.7715 173 63.7715C172.323 63.7715 171.773 64.3213 171.773 64.9996C171.773 65.6779 172.323 66.2278 173 66.2278Z" fill="#9695B7"/>
<path d="M191 48.2283C191.678 48.2283 192.227 47.6784 192.227 47.0001C192.227 46.3218 191.678 45.772 191 45.772C190.323 45.772 189.773 46.3218 189.773 47.0001C189.773 47.6784 190.323 48.2283 191 48.2283Z" fill="#9695B7"/>
<path d="M209 48.2283C209.678 48.2283 210.227 47.6784 210.227 47.0001C210.227 46.3218 209.678 45.772 209 45.772C208.323 45.772 207.773 46.3218 207.773 47.0001C207.773 47.6784 208.323 48.2283 209 48.2283Z" fill="#9695B7"/>
<path d="M191 66.2278C191.678 66.2278 192.227 65.6779 192.227 64.9996C192.227 64.3213 191.678 63.7715 191 63.7715C190.323 63.7715 189.773 64.3213 189.773 64.9996C189.773 65.6779 190.323 66.2278 191 66.2278Z" fill="#9695B7"/>
<path d="M209 66.2278C209.678 66.2278 210.227 65.6779 210.227 64.9996C210.227 64.3213 209.678 63.7715 209 63.7715C208.323 63.7715 207.773 64.3213 207.773 64.9996C207.773 65.6779 208.323 66.2278 209 66.2278Z" fill="#9695B7"/>
<path d="M227 48.2283C227.678 48.2283 228.227 47.6784 228.227 47.0001C228.227 46.3218 227.678 45.772 227 45.772C226.323 45.772 225.773 46.3218 225.773 47.0001C225.773 47.6784 226.323 48.2283 227 48.2283Z" fill="#9695B7"/>
<path d="M245 48.2283C245.678 48.2283 246.227 47.6784 246.227 47.0001C246.227 46.3218 245.678 45.772 245 45.772C244.323 45.772 243.773 46.3218 243.773 47.0001C243.773 47.6784 244.323 48.2283 245 48.2283Z" fill="#9695B7"/>
<path d="M227 66.2278C227.678 66.2278 228.227 65.6779 228.227 64.9996C228.227 64.3213 227.678 63.7715 227 63.7715C226.323 63.7715 225.773 64.3213 225.773 64.9996C225.773 65.6779 226.323 66.2278 227 66.2278Z" fill="#9695B7"/>
<path d="M245 66.2278C245.678 66.2278 246.227 65.6779 246.227 64.9996C246.227 64.3213 245.678 63.7715 245 63.7715C244.323 63.7715 243.773 64.3213 243.773 64.9996C243.773 65.6779 244.323 66.2278 245 66.2278Z" fill="#9695B7"/>
<path d="M263 48.2283C263.678 48.2283 264.227 47.6784 264.227 47.0001C264.227 46.3218 263.678 45.772 263 45.772C262.323 45.772 261.773 46.3218 261.773 47.0001C261.773 47.6784 262.323 48.2283 263 48.2283Z" fill="#9695B7"/>
<path d="M281 48.2283C281.678 48.2283 282.227 47.6784 282.227 47.0001C282.227 46.3218 281.678 45.772 281 45.772C280.323 45.772 279.773 46.3218 279.773 47.0001C279.773 47.6784 280.323 48.2283 281 48.2283Z" fill="#9695B7"/>
<path d="M263 66.2278C263.678 66.2278 264.227 65.6779 264.227 64.9996C264.227 64.3213 263.678 63.7715 263 63.7715C262.323 63.7715 261.773 64.3213 261.773 64.9996C261.773 65.6779 262.323 66.2278 263 66.2278Z" fill="#9695B7"/>
<path d="M281 66.2278C281.678 66.2278 282.227 65.6779 282.227 64.9996C282.227 64.3213 281.678 63.7715 281 63.7715C280.323 63.7715 279.773 64.3213 279.773 64.9996C279.773 65.6779 280.323 66.2278 281 66.2278Z" fill="#9695B7"/>
<path d="M335 48.2283C335.678 48.2283 336.227 47.6784 336.227 47.0001C336.227 46.3218 335.678 45.772 335 45.772C334.323 45.772 333.773 46.3218 333.773 47.0001C333.773 47.6784 334.323 48.2283 335 48.2283Z" fill="#9695B7"/>
<path d="M353 48.2283C353.678 48.2283 354.227 47.6784 354.227 47.0001C354.227 46.3218 353.678 45.772 353 45.772C352.323 45.772 351.773 46.3218 351.773 47.0001C351.773 47.6784 352.323 48.2283 353 48.2283Z" fill="#9695B7"/>
<path d="M335 66.2278C335.678 66.2278 336.227 65.6779 336.227 64.9996C336.227 64.3213 335.678 63.7715 335 63.7715C334.323 63.7715 333.773 64.3213 333.773 64.9996C333.773 65.6779 334.323 66.2278 335 66.2278Z" fill="#9695B7"/>
<path d="M353 66.2278C353.678 66.2278 354.227 65.6779 354.227 64.9996C354.227 64.3213 353.678 63.7715 353 63.7715C352.323 63.7715 351.773 64.3213 351.773 64.9996C351.773 65.6779 352.323 66.2278 353 66.2278Z" fill="#9695B7"/>
<path d="M299 48.2283C299.678 48.2283 300.227 47.6784 300.227 47.0001C300.227 46.3218 299.678 45.772 299 45.772C298.323 45.772 297.773 46.3218 297.773 47.0001C297.773 47.6784 298.323 48.2283 299 48.2283Z" fill="#9695B7"/>
<path d="M317 48.2283C317.678 48.2283 318.227 47.6784 318.227 47.0001C318.227 46.3218 317.678 45.772 317 45.772C316.323 45.772 315.773 46.3218 315.773 47.0001C315.773 47.6784 316.323 48.2283 317 48.2283Z" fill="#9695B7"/>
<path d="M299 66.2278C299.678 66.2278 300.227 65.6779 300.227 64.9996C300.227 64.3213 299.678 63.7715 299 63.7715C298.323 63.7715 297.773 64.3213 297.773 64.9996C297.773 65.6779 298.323 66.2278 299 66.2278Z" fill="#9695B7"/>
<path d="M317 66.2278C317.678 66.2278 318.227 65.6779 318.227 64.9996C318.227 64.3213 317.678 63.7715 317 63.7715C316.323 63.7715 315.773 64.3213 315.773 64.9996C315.773 65.6779 316.323 66.2278 317 66.2278Z" fill="#9695B7"/>
<path d="M371 84.2278C371.678 84.2278 372.227 83.6779 372.227 82.9996C372.227 82.3213 371.678 81.7715 371 81.7715C370.323 81.7715 369.773 82.3213 369.773 82.9996C369.773 83.6779 370.323 84.2278 371 84.2278Z" fill="#9695B7"/>
<path d="M389 84.2278C389.678 84.2278 390.227 83.6779 390.227 82.9996C390.227 82.3213 389.678 81.7715 389 81.7715C388.323 81.7715 387.773 82.3213 387.773 82.9996C387.773 83.6779 388.323 84.2278 389 84.2278Z" fill="#9695B7"/>
<path d="M371 102.228C371.678 102.228 372.227 101.678 372.227 101C372.227 100.321 371.678 99.7715 371 99.7715C370.323 99.7715 369.773 100.321 369.773 101C369.773 101.678 370.323 102.228 371 102.228Z" fill="#9695B7"/>
<path d="M389 102.228C389.678 102.228 390.227 101.678 390.227 101C390.227 100.321 389.678 99.7715 389 99.7715C388.323 99.7715 387.773 100.321 387.773 101C387.773 101.678 388.323 102.228 389 102.228Z" fill="#9695B7"/>
<path d="M11.0001 84.2278C11.6775 84.2278 12.2267 83.6779 12.2267 82.9996C12.2267 82.3213 11.6775 81.7715 11.0001 81.7715C10.3226 81.7715 9.77344 82.3213 9.77344 82.9996C9.77344 83.6779 10.3226 84.2278 11.0001 84.2278Z" fill="#9695B7"/>
<path d="M29.0001 84.2278C29.6775 84.2278 30.2267 83.6779 30.2267 82.9996C30.2267 82.3213 29.6775 81.7715 29.0001 81.7715C28.3226 81.7715 27.7734 82.3213 27.7734 82.9996C27.7734 83.6779 28.3226 84.2278 29.0001 84.2278Z" fill="#9695B7"/>
<path d="M11.0001 102.228C11.6775 102.228 12.2267 101.678 12.2267 101C12.2267 100.321 11.6775 99.7715 11.0001 99.7715C10.3226 99.7715 9.77344 100.321 9.77344 101C9.77344 101.678 10.3226 102.228 11.0001 102.228Z" fill="#9695B7"/>
<path d="M29.0001 102.228C29.6775 102.228 30.2267 101.678 30.2267 101C30.2267 100.321 29.6775 99.7715 29.0001 99.7715C28.3226 99.7715 27.7734 100.321 27.7734 101C27.7734 101.678 28.3226 102.228 29.0001 102.228Z" fill="#9695B7"/>
<path d="M47.0001 84.2278C47.6775 84.2278 48.2267 83.6779 48.2267 82.9996C48.2267 82.3213 47.6775 81.7715 47.0001 81.7715C46.3226 81.7715 45.7734 82.3213 45.7734 82.9996C45.7734 83.6779 46.3226 84.2278 47.0001 84.2278Z" fill="#9695B7"/>
<path d="M65.0001 84.2278C65.6775 84.2278 66.2267 83.6779 66.2267 82.9996C66.2267 82.3213 65.6775 81.7715 65.0001 81.7715C64.3226 81.7715 63.7734 82.3213 63.7734 82.9996C63.7734 83.6779 64.3226 84.2278 65.0001 84.2278Z" fill="#9695B7"/>
<path d="M47.0001 102.228C47.6775 102.228 48.2267 101.678 48.2267 101C48.2267 100.321 47.6775 99.7715 47.0001 99.7715C46.3226 99.7715 45.7734 100.321 45.7734 101C45.7734 101.678 46.3226 102.228 47.0001 102.228Z" fill="#9695B7"/>
<path d="M65.0001 102.228C65.6775 102.228 66.2267 101.678 66.2267 101C66.2267 100.321 65.6775 99.7715 65.0001 99.7715C64.3226 99.7715 63.7734 100.321 63.7734 101C63.7734 101.678 64.3226 102.228 65.0001 102.228Z" fill="#9695B7"/>
<path d="M83.0001 84.2278C83.6775 84.2278 84.2267 83.6779 84.2267 82.9996C84.2267 82.3213 83.6775 81.7715 83.0001 81.7715C82.3226 81.7715 81.7734 82.3213 81.7734 82.9996C81.7734 83.6779 82.3226 84.2278 83.0001 84.2278Z" fill="#9695B7"/>
<path d="M101 84.2278C101.678 84.2278 102.227 83.6779 102.227 82.9996C102.227 82.3213 101.678 81.7715 101 81.7715C100.323 81.7715 99.7734 82.3213 99.7734 82.9996C99.7734 83.6779 100.323 84.2278 101 84.2278Z" fill="#9695B7"/>
<path d="M83.0001 102.228C83.6775 102.228 84.2267 101.678 84.2267 101C84.2267 100.321 83.6775 99.7715 83.0001 99.7715C82.3226 99.7715 81.7734 100.321 81.7734 101C81.7734 101.678 82.3226 102.228 83.0001 102.228Z" fill="#9695B7"/>
<path d="M101 102.228C101.678 102.228 102.227 101.678 102.227 101C102.227 100.321 101.678 99.7715 101 99.7715C100.323 99.7715 99.7734 100.321 99.7734 101C99.7734 101.678 100.323 102.228 101 102.228Z" fill="#9695B7"/>
<path d="M119 84.2278C119.678 84.2278 120.227 83.6779 120.227 82.9996C120.227 82.3213 119.678 81.7715 119 81.7715C118.323 81.7715 117.773 82.3213 117.773 82.9996C117.773 83.6779 118.323 84.2278 119 84.2278Z" fill="#9695B7"/>
<path d="M137 84.2278C137.678 84.2278 138.227 83.6779 138.227 82.9996C138.227 82.3213 137.678 81.7715 137 81.7715C136.323 81.7715 135.773 82.3213 135.773 82.9996C135.773 83.6779 136.323 84.2278 137 84.2278Z" fill="#9695B7"/>
<path d="M119 102.228C119.678 102.228 120.227 101.678 120.227 101C120.227 100.321 119.678 99.7715 119 99.7715C118.323 99.7715 117.773 100.321 117.773 101C117.773 101.678 118.323 102.228 119 102.228Z" fill="#9695B7"/>
<path d="M137 102.228C137.678 102.228 138.227 101.678 138.227 101C138.227 100.321 137.678 99.7715 137 99.7715C136.323 99.7715 135.773 100.321 135.773 101C135.773 101.678 136.323 102.228 137 102.228Z" fill="#9695B7"/>
<path d="M155 84.2278C155.678 84.2278 156.227 83.6779 156.227 82.9996C156.227 82.3213 155.678 81.7715 155 81.7715C154.323 81.7715 153.773 82.3213 153.773 82.9996C153.773 83.6779 154.323 84.2278 155 84.2278Z" fill="#9695B7"/>
<path d="M173 84.2278C173.678 84.2278 174.227 83.6779 174.227 82.9996C174.227 82.3213 173.678 81.7715 173 81.7715C172.323 81.7715 171.773 82.3213 171.773 82.9996C171.773 83.6779 172.323 84.2278 173 84.2278Z" fill="#9695B7"/>
<path d="M155 102.228C155.678 102.228 156.227 101.678 156.227 101C156.227 100.321 155.678 99.7715 155 99.7715C154.323 99.7715 153.773 100.321 153.773 101C153.773 101.678 154.323 102.228 155 102.228Z" fill="#9695B7"/>
<path d="M173 102.228C173.678 102.228 174.227 101.678 174.227 101C174.227 100.321 173.678 99.7715 173 99.7715C172.323 99.7715 171.773 100.321 171.773 101C171.773 101.678 172.323 102.228 173 102.228Z" fill="#9695B7"/>
<path d="M191 84.2278C191.678 84.2278 192.227 83.6779 192.227 82.9996C192.227 82.3213 191.678 81.7715 191 81.7715C190.323 81.7715 189.773 82.3213 189.773 82.9996C189.773 83.6779 190.323 84.2278 191 84.2278Z" fill="#9695B7"/>
<path d="M209 84.2278C209.678 84.2278 210.227 83.6779 210.227 82.9996C210.227 82.3213 209.678 81.7715 209 81.7715C208.323 81.7715 207.773 82.3213 207.773 82.9996C207.773 83.6779 208.323 84.2278 209 84.2278Z" fill="#9695B7"/>
<path d="M191 102.228C191.678 102.228 192.227 101.678 192.227 101C192.227 100.321 191.678 99.7715 191 99.7715C190.323 99.7715 189.773 100.321 189.773 101C189.773 101.678 190.323 102.228 191 102.228Z" fill="#9695B7"/>
<path d="M209 102.228C209.678 102.228 210.227 101.678 210.227 101C210.227 100.321 209.678 99.7715 209 99.7715C208.323 99.7715 207.773 100.321 207.773 101C207.773 101.678 208.323 102.228 209 102.228Z" fill="#9695B7"/>
<path d="M227 84.2278C227.678 84.2278 228.227 83.6779 228.227 82.9996C228.227 82.3213 227.678 81.7715 227 81.7715C226.323 81.7715 225.773 82.3213 225.773 82.9996C225.773 83.6779 226.323 84.2278 227 84.2278Z" fill="#9695B7"/>
<path d="M245 84.2278C245.678 84.2278 246.227 83.6779 246.227 82.9996C246.227 82.3213 245.678 81.7715 245 81.7715C244.323 81.7715 243.773 82.3213 243.773 82.9996C243.773 83.6779 244.323 84.2278 245 84.2278Z" fill="#9695B7"/>
<path d="M227 102.228C227.678 102.228 228.227 101.678 228.227 101C228.227 100.321 227.678 99.7715 227 99.7715C226.323 99.7715 225.773 100.321 225.773 101C225.773 101.678 226.323 102.228 227 102.228Z" fill="#9695B7"/>
<path d="M245 102.228C245.678 102.228 246.227 101.678 246.227 101C246.227 100.321 245.678 99.7715 245 99.7715C244.323 99.7715 243.773 100.321 243.773 101C243.773 101.678 244.323 102.228 245 102.228Z" fill="#9695B7"/>
<path d="M263 84.2278C263.678 84.2278 264.227 83.6779 264.227 82.9996C264.227 82.3213 263.678 81.7715 263 81.7715C262.323 81.7715 261.773 82.3213 261.773 82.9996C261.773 83.6779 262.323 84.2278 263 84.2278Z" fill="#9695B7"/>
<path d="M281 84.2278C281.678 84.2278 282.227 83.6779 282.227 82.9996C282.227 82.3213 281.678 81.7715 281 81.7715C280.323 81.7715 279.773 82.3213 279.773 82.9996C279.773 83.6779 280.323 84.2278 281 84.2278Z" fill="#9695B7"/>
<path d="M263 102.228C263.678 102.228 264.227 101.678 264.227 101C264.227 100.321 263.678 99.7715 263 99.7715C262.323 99.7715 261.773 100.321 261.773 101C261.773 101.678 262.323 102.228 263 102.228Z" fill="#9695B7"/>
<path d="M281 102.228C281.678 102.228 282.227 101.678 282.227 101C282.227 100.321 281.678 99.7715 281 99.7715C280.323 99.7715 279.773 100.321 279.773 101C279.773 101.678 280.323 102.228 281 102.228Z" fill="#9695B7"/>
<path d="M335 84.2278C335.678 84.2278 336.227 83.6779 336.227 82.9996C336.227 82.3213 335.678 81.7715 335 81.7715C334.323 81.7715 333.773 82.3213 333.773 82.9996C333.773 83.6779 334.323 84.2278 335 84.2278Z" fill="#9695B7"/>
<path d="M353 84.2278C353.678 84.2278 354.227 83.6779 354.227 82.9996C354.227 82.3213 353.678 81.7715 353 81.7715C352.323 81.7715 351.773 82.3213 351.773 82.9996C351.773 83.6779 352.323 84.2278 353 84.2278Z" fill="#9695B7"/>
<path d="M335 102.228C335.678 102.228 336.227 101.678 336.227 101C336.227 100.321 335.678 99.7715 335 99.7715C334.323 99.7715 333.773 100.321 333.773 101C333.773 101.678 334.323 102.228 335 102.228Z" fill="#9695B7"/>
<path d="M353 102.228C353.678 102.228 354.227 101.678 354.227 101C354.227 100.321 353.678 99.7715 353 99.7715C352.323 99.7715 351.773 100.321 351.773 101C351.773 101.678 352.323 102.228 353 102.228Z" fill="#9695B7"/>
<path d="M299 84.2278C299.678 84.2278 300.227 83.6779 300.227 82.9996C300.227 82.3213 299.678 81.7715 299 81.7715C298.323 81.7715 297.773 82.3213 297.773 82.9996C297.773 83.6779 298.323 84.2278 299 84.2278Z" fill="#9695B7"/>
<path d="M317 84.2278C317.678 84.2278 318.227 83.6779 318.227 82.9996C318.227 82.3213 317.678 81.7715 317 81.7715C316.323 81.7715 315.773 82.3213 315.773 82.9996C315.773 83.6779 316.323 84.2278 317 84.2278Z" fill="#9695B7"/>
<path d="M299 102.228C299.678 102.228 300.227 101.678 300.227 101C300.227 100.321 299.678 99.7715 299 99.7715C298.323 99.7715 297.773 100.321 297.773 101C297.773 101.678 298.323 102.228 299 102.228Z" fill="#9695B7"/>
<path d="M317 102.228C317.678 102.228 318.227 101.678 318.227 101C318.227 100.321 317.678 99.7715 317 99.7715C316.323 99.7715 315.773 100.321 315.773 101C315.773 101.678 316.323 102.228 317 102.228Z" fill="#9695B7"/>
</g>
</g>
<defs>
<clipPath id="clip0_2022_409691">
<rect width="400" height="220" fill="white"/>
</clipPath>
</defs>
</svg>
