<svg width="607" height="260" viewBox="0 0 607 260" fill="none" xmlns="http://www.w3.org/2000/svg">
<path d="M60.3057 106.382H94.3872L114.522 149.504L127.607 123.222C129.084 120.153 130.24 117.4 131.176 115.354C132.098 113.308 132.72 110.871 133.107 109.216C133.275 108.049 133.82 106.97 134.657 106.147C134.975 105.836 135.351 105.593 135.763 105.431C136.175 105.269 136.615 105.192 137.057 105.204C137.489 105.178 137.922 105.249 138.325 105.412C138.727 105.575 139.088 105.826 139.382 106.147C139.967 106.785 140.274 107.635 140.231 108.503C140.293 109.086 140.293 109.662 140.231 110.239C140.231 110.871 140.231 111.733 139.536 112.917C138.841 114.095 138.607 115.435 137.832 117.164L134.817 123.774L101.585 192L60.3057 106.382ZM170.794 92.3328C166.032 92.6187 161.303 91.3772 157.284 88.7863C154.251 86.6411 152.504 83.2992 152.584 79.7775C152.579 78.1639 153.048 76.5849 153.931 75.239C154.946 73.7882 156.257 72.5358 157.789 71.5438C159.627 70.3821 161.637 69.5239 163.744 69.0017C166.196 68.298 168.737 67.9616 171.286 68.0035C173.913 67.9601 176.527 68.3507 179.006 69.1567C181.098 69.7643 183.042 70.7625 184.709 72.0832C186.186 73.1682 187.385 74.5322 188.228 76.0823C189.028 77.4897 189.459 79.0459 189.489 80.627C189.479 82.2522 188.982 83.8364 188.062 85.1717C187.065 86.6783 185.724 87.9617 184.125 88.9413C182.335 89.8962 180.415 90.6154 178.416 91.099C175.999 91.6921 173.521 92.0021 171.034 92.0228M153.255 105.415H188.228V185.8H153.261V105.421L153.255 105.415ZM195.647 106.376H229.698L250.184 149.504L262.98 123.222C264.456 120.153 265.613 117.394 266.548 115.348C267.477 113.302 268.098 110.865 268.486 109.21C268.655 108.045 269.2 106.969 270.036 106.147C270.366 105.829 270.756 105.581 271.183 105.418C271.61 105.255 272.065 105.18 272.521 105.198C272.942 105.18 273.361 105.256 273.749 105.42C274.137 105.584 274.485 105.832 274.767 106.147C275.321 106.804 275.628 107.641 275.622 108.503V110.239C275.622 110.946 275.234 111.727 274.847 112.911C274.459 114.089 273.918 115.428 273.143 117.164C272.362 118.894 271.359 121.095 270.116 123.774L236.681 192L195.647 106.376ZM287.993 105.198H319.522V177.678C320.106 177.997 320.764 178.156 321.429 178.136H323.865C325.282 178.055 326.673 177.722 327.975 177.151C329.654 176.314 331.278 175.377 332.853 174.348C334.619 173.046 336.298 171.633 337.879 170.107C339.54 168.433 341.066 166.635 342.444 164.732V105.198H374.052V184.275H342.444V172.904C338.62 177.091 333.945 180.398 328.737 182.601C324.036 184.604 318.991 185.657 313.887 185.701C310.369 185.992 306.83 185.581 303.47 184.49C300.111 183.399 296.999 181.651 294.311 179.346C292.064 176.753 290.349 173.738 289.265 170.475C288.18 167.211 287.748 163.763 287.993 160.33V105.198ZM404.812 106.482H436.371V119.111C440.192 114.801 444.788 111.26 449.918 108.676C454.629 106.359 459.808 105.169 465.051 105.198C482.32 105.198 490.938 113.593 490.938 130.526V185.422H459.072V114.573C458.487 114.218 457.849 113.963 457.183 113.816C456.409 113.666 455.613 113.666 454.839 113.816C453.424 113.891 452.04 114.225 450.748 114.802C449.068 115.567 447.47 116.504 445.98 117.598C444.179 118.866 442.528 120.337 441.059 121.982C439.362 123.729 437.795 125.601 436.371 127.581V185.8H404.812V106.482ZM509.72 169.76C509.708 167.795 510.151 165.854 511.012 164.062C511.996 162.264 513.313 160.652 514.9 159.282C516.641 157.856 518.64 156.752 520.806 156.014C523.227 155.165 525.778 154.754 528.342 154.799C530.975 154.762 533.596 155.233 536.032 156.163C538.173 157.031 540.098 158.296 541.692 159.883C543.159 161.309 544.325 163.02 545.118 164.912C545.911 166.805 546.315 168.84 546.305 170.895C546.318 172.891 545.85 174.863 544.934 176.661C543.974 178.478 542.657 180.096 541.052 181.447C539.265 182.803 537.27 183.855 535.146 184.56C532.815 185.431 530.341 185.843 527.856 185.775C525.11 185.907 522.365 185.52 519.76 184.634C515.515 183.301 512.156 180.232 510.618 176.289C509.781 174.217 509.365 171.997 509.394 169.76" fill="black"/>
</svg>
