<svg width="662" height="260" viewBox="0 0 662 260" fill="none" xmlns="http://www.w3.org/2000/svg">
<path d="M315.328 177.577C315.328 184.16 309.942 189.546 303.359 189.546H295.22V180.21H294.98C294.142 181.527 292.946 182.843 291.509 184.16C290.193 185.476 288.517 186.554 286.602 187.631C284.807 188.708 282.652 189.546 280.378 190.264C278.104 190.982 275.83 191.341 273.316 191.341C268.05 191.341 263.262 190.503 258.953 188.708C254.644 186.913 250.934 184.28 247.822 181.168C244.83 177.816 242.436 173.986 240.76 169.438C239.085 165.009 238.247 160.102 238.247 154.716C238.247 149.809 238.965 145.021 240.401 140.592C241.957 136.044 244.112 131.975 246.864 128.504C249.737 125.033 253.088 122.28 257.038 120.125C260.988 117.971 265.536 116.894 270.563 116.894C275.112 116.894 279.42 117.612 283.251 119.048C287.2 120.365 290.552 122.759 293.065 126.23H293.305V91.1602C293.305 84.5772 298.691 79.1911 305.274 79.1911H315.208L315.328 177.577ZM295.22 154.118C295.22 148.731 293.664 144.423 290.552 141.071C287.559 137.72 283.251 136.164 277.745 136.164C272.239 136.164 267.81 137.84 264.698 141.071C261.706 144.423 260.15 148.731 260.15 154.118C260.15 159.504 261.706 163.812 264.698 167.164C267.81 170.515 272.119 172.071 277.745 172.071C283.37 172.071 287.559 170.395 290.552 167.164C293.664 163.693 295.22 159.384 295.22 154.118Z" fill="black"/>
<path d="M329.449 130.539C329.449 123.956 334.836 118.57 341.419 118.57H351.353V129.941H351.592C353.986 125.512 356.739 122.281 359.971 120.126C363.202 117.852 367.272 116.775 372.059 116.775C373.376 116.775 374.573 116.775 375.89 116.894C377.206 117.014 378.283 117.134 379.361 117.493V137.481C377.805 137.002 376.249 136.643 374.693 136.404C373.256 136.165 371.7 135.925 370.025 135.925C365.836 135.925 362.484 136.524 360.09 137.721C357.697 138.918 355.781 140.593 354.345 142.628C353.029 144.663 352.31 147.176 351.832 150.049C351.473 152.921 351.233 156.153 351.233 159.744V177.578C351.233 184.161 345.847 189.547 339.264 189.547H329.33V130.539H329.449Z" fill="black"/>
<path d="M432.501 180.689H432.262C429.868 184.519 426.517 187.152 422.447 188.828C418.497 190.504 414.188 191.342 409.76 191.342C406.409 191.342 403.297 190.863 400.065 189.905C397.073 189.067 394.32 187.631 392.046 185.836C389.652 184.04 387.856 181.647 386.54 179.013C385.223 176.261 384.505 173.149 384.505 169.558C384.505 165.488 385.223 162.017 386.66 159.145C388.216 156.272 390.25 153.998 392.764 152.083C395.397 150.288 398.389 148.851 401.621 147.894C404.972 146.817 408.324 146.098 411.795 145.5C415.385 145.021 418.976 144.662 422.447 144.662C426.038 144.542 429.389 144.542 432.381 144.542C432.381 140.593 430.945 137.6 428.192 135.326C425.439 132.932 422.208 131.855 418.378 131.855C414.787 131.855 411.436 132.693 408.443 134.249C405.571 135.685 402.938 137.72 400.544 140.353L388.814 128.384C392.883 124.554 397.671 121.801 403.177 119.886C408.683 117.971 414.308 117.013 420.173 117.013C426.636 117.013 431.903 117.851 435.972 119.527C440.161 121.083 443.513 123.477 445.907 126.589C448.42 129.701 450.215 133.531 451.173 138.079C452.131 142.508 452.609 147.774 452.609 153.759V177.577C452.609 184.16 447.223 189.546 440.64 189.546H432.501V180.689ZM427.115 158.427C425.439 158.427 423.405 158.546 420.891 158.666C418.497 158.786 416.104 159.145 413.71 159.863C411.436 160.581 409.521 161.539 407.845 162.975C406.289 164.291 405.451 166.206 405.451 168.72C405.451 171.353 406.528 173.268 408.802 174.585C411.076 175.901 413.351 176.5 415.864 176.5C418.019 176.5 420.053 176.261 421.968 175.662C424.003 175.064 425.798 174.226 427.354 173.149C428.91 172.071 430.107 170.755 430.945 169.079C431.903 167.403 432.381 165.488 432.381 163.214V158.427H427.115Z" fill="black"/>
<path d="M467.932 130.539C467.932 123.956 473.318 118.57 479.901 118.57H488.998V128.265H489.237C489.955 126.948 490.913 125.512 492.11 124.195C493.426 122.879 494.863 121.562 496.658 120.485C498.453 119.408 500.368 118.57 502.643 117.852C504.917 117.133 507.311 116.774 509.944 116.774C515.45 116.774 519.998 117.612 523.349 119.408C526.7 121.083 529.334 123.357 531.249 126.469C533.164 129.462 534.48 133.052 535.199 137.122C535.917 141.191 536.276 145.62 536.276 150.408V177.577C536.276 184.16 530.89 189.546 524.307 189.546H514.372V154.836C514.372 152.801 514.253 150.647 514.133 148.612C514.013 146.338 513.654 144.303 512.816 142.508C512.098 140.713 511.021 139.157 509.465 137.96C508.029 136.763 505.874 136.164 503.002 136.164C500.129 136.164 497.855 136.643 496.179 137.72C494.384 138.678 493.067 140.114 492.11 141.79C491.272 143.465 490.674 145.38 490.314 147.535C490.075 149.689 489.836 151.963 489.836 154.238V177.577C489.836 184.16 484.45 189.546 477.867 189.546H467.932V130.539Z" fill="black"/>
<path d="M601.504 124.076C601.504 130.659 596.118 136.045 589.535 136.045H582.234V159.744C582.234 161.659 582.353 163.454 582.473 165.13C582.713 166.686 583.072 168.002 583.79 169.199C584.508 170.396 585.465 171.234 586.902 171.952C588.338 172.551 590.253 172.79 592.647 172.79C593.844 172.79 595.28 172.67 597.195 172.551C599.11 172.311 600.546 171.713 601.624 170.755V181.168C601.624 185.836 598.631 190.265 594.083 190.744C591.45 190.983 588.817 191.222 586.303 191.222C582.593 191.222 579.242 190.863 576.13 190.025C573.018 189.188 570.265 187.991 567.991 186.435C565.597 184.639 563.801 182.485 562.485 179.732C561.168 176.979 560.57 173.748 560.57 169.798V136.045H546.566V130.539C546.566 123.956 551.952 118.57 558.535 118.57H560.57V109.474C560.57 102.891 565.956 97.5047 572.539 97.5047H582.473V118.57H601.743V124.076H601.504Z" fill="black"/>
<path fill-rule="evenodd" clip-rule="evenodd" d="M184.981 206.422L181.39 106.121L174.807 79.6698L218.734 84.3377V205.704L191.923 221.264L184.981 206.422Z" fill="black"/>
<path fill-rule="evenodd" clip-rule="evenodd" d="M218.735 84.3383L191.924 99.8981L136.388 87.6896L71.5152 114.141L60.743 84.3383L100.241 61.597L139.739 38.736L179.237 61.4773L218.735 84.3383Z" fill="black"/>
<path fill-rule="evenodd" clip-rule="evenodd" d="M60.743 84.3381L87.5539 99.8979L103.114 146.218L155.658 188.23L139.739 221.145L100.241 198.284L60.743 175.542V84.3381Z" fill="black"/>
<path fill-rule="evenodd" clip-rule="evenodd" d="M157.572 163.933L139.738 190.145V221.145L164.993 206.543L178.039 187.153" fill="black"/>
<path fill-rule="evenodd" clip-rule="evenodd" d="M139.741 159.145L114.486 115.339L119.872 100.856L140.579 90.8019L164.996 115.339L139.741 159.145Z" fill="black"/>
<path fill-rule="evenodd" clip-rule="evenodd" d="M114.485 115.339L139.74 129.941V159.146L116.4 160.103L102.277 142.03L114.485 115.339Z" fill="black"/>
<path fill-rule="evenodd" clip-rule="evenodd" d="M139.738 129.941L164.993 115.339L182.228 143.945L161.402 161.18L139.738 159.145V129.941Z" fill="black"/>
<path fill-rule="evenodd" clip-rule="evenodd" d="M164.994 206.543L191.805 221.145V99.8984L165.832 84.8174L139.739 69.7363L113.647 84.8174L87.554 99.8984V160.103L113.647 175.184L139.739 190.145L164.994 175.543V206.543ZM164.994 144.543L139.739 159.145L114.484 144.543V115.339L139.739 100.736L164.994 115.339V144.543Z" fill="white"/>
<path d="M139.742 190.145V159.145L114.606 144.663V175.663L139.742 190.145Z" fill="white"/>
</svg>
