<svg width="1163" height="260" viewBox="0 0 1163 260" fill="none" xmlns="http://www.w3.org/2000/svg">
<mask id="mask0_2027_1565" style="mask-type:luminance" maskUnits="userSpaceOnUse" x="60" y="44" width="1043" height="172">
<path d="M1103 44.5083H60V215.492H1103V44.5083Z" fill="white"/>
</mask>
<g mask="url(#mask0_2027_1565)">
<path d="M124.62 151.932L128.717 147.947L130.032 146.639C130.032 146.639 165.436 123.675 186.675 123.675H188.507C168.662 122.672 149.868 114.635 135.639 101.068L83.0927 49.7397H79.6212L73.8421 55.4122V58.8078L124.815 108.681C130.623 114.457 133.862 122.244 133.825 130.346C133.789 138.447 130.48 146.206 124.62 151.932Z" fill="black"/>
<path d="M161.061 82.5311L122.465 44.7842H118.994L113.216 50.4351V53.8307L153.6 93.3498C163.501 103.029 176.926 108.468 190.924 108.47H220.162L222.62 106.086V98.052L220.162 95.6686H193.49C181.326 95.6686 169.662 90.9428 161.061 82.5311Z" fill="black"/>
<path d="M161.061 178.312L122.465 216.06H118.994L113.216 210.387V206.992L153.6 167.494C163.501 157.815 176.926 152.376 190.924 152.374H220.162L222.62 154.757V162.77L220.162 165.174H193.49C181.326 165.174 169.662 169.9 161.061 178.312Z" fill="black"/>
<path d="M100.193 109.946L76.6265 86.9175H73.1765L67.3759 92.5899V95.964L89.8225 117.938C91.4777 119.553 92.7915 121.473 93.6878 123.587C94.5842 125.699 95.0457 127.965 95.0457 130.253C95.0457 132.541 94.5842 134.806 93.6878 136.92C92.7915 139.033 91.4777 140.952 89.8225 142.569L69.0363 162.918V166.292L74.8369 171.965H78.2869L100.171 150.581C102.903 147.916 105.071 144.749 106.549 141.264C108.028 137.778 108.791 134.042 108.793 130.268C108.795 126.494 108.036 122.757 106.561 119.27C105.086 115.782 102.922 112.614 100.193 109.946Z" fill="black"/>
<path d="M242.392 123.674H186.677C165.43 123.687 145.058 131.947 130.034 146.638L73.2832 202.142V205.538L79.0827 211.21H82.5543L135.467 159.524C142.901 152.231 151.732 146.445 161.455 142.497C171.179 138.55 181.603 136.517 192.132 136.516H242.435L244.85 134.218V126.204L242.392 123.674Z" fill="black"/>
<path d="M270.012 96.2593H336.853L338.471 97.8407V106.466L336.853 108.047H311.799L310.182 109.63V164.458L308.564 166.04H298.343L296.727 164.458V109.63L295.11 108.047H270.012L268.395 106.466V97.9248L270.012 96.2593Z" fill="black"/>
<path d="M362.123 97.9259L363.741 96.3445H402.013C417.689 96.3445 426.421 103.409 426.421 117.179C426.421 125.973 422.109 132.383 414.131 135.441L413.268 137.677L427.844 163.742L426.421 166.082H415.834L414.411 165.259L399.124 138.224L397.7 137.423H377.174L375.556 139.005V164.521L373.94 166.103H363.698L362.08 164.521L362.123 97.9259ZM375.599 109.608V124.37L377.217 125.952H400.935C408.676 125.952 412.578 123.02 412.578 117.221C412.578 110.894 408.676 108.069 400.935 108.069H377.217L375.599 109.608Z" fill="black"/>
<path d="M501.135 151.763H467.261L465.795 152.691L460.124 165.175L458.636 166.102H448.718L447.23 163.868L477.827 96.9762L479.314 96.0481H489.965L491.453 96.9762L522.029 163.868L520.562 166.102H509.781L508.315 165.175L502.623 152.691L501.135 151.763ZM496.154 138.14L485.783 115.408H482.828L472.436 138.14L473.923 140.249H494.645L496.154 138.14Z" fill="black"/>
<path d="M538.158 131.223C538.158 110.789 553.251 95.1631 574.122 95.1631C594.347 95.1631 603.878 107.372 606.767 115.682L605.236 117.79H594.455L593.097 117.052C591.07 113.96 588.259 111.434 584.938 109.719C581.617 108.004 577.898 107.159 574.144 107.267C560.775 107.267 552.151 118.17 552.151 131.245C552.151 144.318 560.84 155.305 574.122 155.305C585.615 155.305 591.113 149.274 593.291 145.5L594.693 144.698H605.257L606.788 146.807C604.136 154.652 595.038 167.41 574.122 167.41C553.208 167.41 538.158 151.657 538.158 131.223Z" fill="black"/>
<path d="M634.321 96.2593H692.861L694.477 97.8407V106.066L692.861 107.647H647.775L646.158 109.229V121.881L647.775 123.462H674.727L676.344 125.045V133.48L674.727 135.062H647.775L646.158 136.663V152.754L647.775 154.336H692.861L694.477 155.917V164.353L692.861 165.934H634.321L632.703 164.353V97.9248L634.321 96.2593Z" fill="black"/>
<path d="M983.645 96.2593H1042.18L1043.8 97.8407V106.066L1042.18 107.647H997.1L995.48 109.229V121.881L997.1 123.462H1024.03L1025.64 125.045V133.48L1024.03 135.062H997.1L995.48 136.663V152.754L997.1 154.336H1042.18L1043.8 155.917V164.353L1042.18 165.934H983.645L982.004 164.353V97.9248L983.645 96.2593Z" fill="black"/>
<path d="M766.472 151.763H732.599L731.132 152.691L725.462 165.175L723.974 166.102H713.926L712.438 163.868L743.035 96.9762L744.523 96.0481H755.174L756.661 96.9762L787.344 163.868L785.878 166.102H775.097L773.609 165.175L767.939 152.691L766.472 151.763ZM761.362 138.14L751.013 115.408H748.058L737.644 138.14L739.132 140.249H759.853L761.362 138.14Z" fill="black"/>
<path d="M810.825 97.9259L812.442 96.3445H849.098C864.665 96.3445 873.01 103.409 873.01 115.196C873.03 117.777 872.339 120.315 871.007 122.543C869.675 124.769 867.752 126.603 865.441 127.85V130.612C868.294 132.096 870.664 134.333 872.281 137.07C873.897 139.806 874.695 142.932 874.583 146.091C874.583 158.279 866.153 166.04 849.679 166.04H812.442L810.825 164.458V97.9259ZM824.085 109.123V123.062L825.702 124.644H847.61C855.351 124.644 859.167 121.797 859.167 116.083C859.167 110.367 855.243 107.542 847.61 107.542H825.702L824.085 109.123ZM824.085 137.318V153.324L825.702 154.905H847.997C856.751 154.905 860.762 151.573 860.762 145.268C860.762 138.963 856.45 135.736 847.997 135.736H825.702L824.085 137.318Z" fill="black"/>
<path d="M956.611 166.103H902.271L900.654 164.521V97.9259L902.271 96.3445H912.492L914.108 97.9259V152.628L915.726 154.209H956.693L958.313 155.791V164.521L956.611 166.103Z" fill="black"/>
<path d="M1102.95 166.102H1069.2L1067.61 164.543V156.107L1069.2 154.546H1102.95L1104.54 156.107V164.543L1102.95 166.102Z" fill="black"/>
</g>
</svg>
