<svg width="620" height="260" viewBox="0 0 620 260" fill="none" xmlns="http://www.w3.org/2000/svg">
<g clip-path="url(#clip0_2083_1317)">
<path d="M131.35 87.45V102.5C124.8 91.65 114.65 85 102.05 85C75.15 85 60 105.5 60 133C60 160.5 75.35 181.85 102.4 181.85C115 181.85 124.95 175.2 131.35 164.35V179.4H152.35V87.45H131.35ZM106.55 163.6C91.2 163.6 82.4 149.05 82.4 132.95C82.4 116.85 91 103.35 106.85 103.35C119.95 103.35 131.15 113 131.15 132.6C131.15 152.2 120.45 163.6 106.5 163.6H106.55Z" fill="#09090B"/>
<path d="M168.048 64C168.048 71.9 173.748 77.65 181.648 77.65C189.548 77.65 195.248 71.85 195.248 64C195.248 56.15 189.198 50 181.648 50C174.098 50 168.048 56.15 168.048 64ZM170.498 87.45V179.35H192.898V87.45H170.498Z" fill="#09090B"/>
<path d="M234.158 110.201V87.4508H211.758V179.351H234.158V126.851C234.158 113.351 243.308 107.951 251.908 107.951C256.908 107.951 262.058 109.351 264.808 110.401V85.9008C250.158 85.9008 238.108 94.8508 234.158 110.251V110.201Z" fill="#09090B"/>
<path d="M270.294 115.45C270.294 144 289.594 164.3 317.344 164.3C345.094 164.3 364.394 144 364.394 115.45C364.394 86.9 345.244 67.5 317.344 67.5C289.444 67.5 270.294 87.45 270.294 115.45ZM341.994 115.45C341.994 133.3 332.494 146.1 317.344 146.1C302.194 146.1 292.694 133.3 292.694 115.45C292.694 97.6 301.994 85.85 317.344 85.85C332.694 85.85 341.994 98.3 341.994 115.45Z" fill="#09090B"/>
<path d="M426.85 85C413.75 85 403.05 92.9 397.4 105.5V87.45H375V210H397.4V162.9C403.8 174.3 415.65 181.8 428.25 181.8C452.7 181.8 469.8 162.35 469.8 134.55C469.8 105.3 452.05 85 426.9 85H426.85ZM422.9 164.65C407.9 164.65 397.4 151.85 397.4 133.65C397.4 115.45 407.9 101.8 422.9 101.8C437.9 101.8 447.35 115.3 447.35 134.35C447.35 152.2 437.2 164.65 422.9 164.65Z" fill="#09090B"/>
<path d="M476.952 147.5C476.952 164.15 491.452 181.8 520.402 181.8C549.352 181.8 560.052 164.45 560.052 151C560.052 130.35 536.102 126.65 520.052 123.5C509.202 121.55 502.302 120 502.302 113.7C502.302 106.5 510.052 101.95 518.352 101.95C529.552 101.95 533.852 109.85 534.202 118.25H556.602C556.602 104.6 547.102 85 517.852 85C492.502 85 479.952 99.55 479.952 115.1C479.952 137.35 504.252 139.6 520.252 142.75C529.552 144.5 537.652 146.6 537.652 153.45C537.652 160.3 529.702 164.85 521.302 164.85C513.352 164.85 499.402 160.3 499.402 147.5H477.002H476.952Z" fill="#09090B"/>
</g>
<defs>
<clipPath id="clip0_2083_1317">
<rect width="500" height="160" fill="white" transform="translate(60 50)"/>
</clipPath>
</defs>
</svg>
