<svg width="910" height="260" viewBox="0 0 910 260" fill="none" xmlns="http://www.w3.org/2000/svg">
<path d="M829.262 91.6231C824.64 91.6231 821.045 88.7985 821.045 84.3048C821.045 78.6565 826.951 72.4945 834.653 72.4945C839.275 72.4945 843.126 75.4473 843.126 80.0684C843.126 85.7175 836.836 91.6231 829.262 91.6231ZM821.43 168.008C818.863 168.008 817.836 166.468 817.836 164.927C817.836 159.92 825.667 163.13 825.667 153.244V123.974C825.667 115.886 816.809 119.866 816.809 114.474C816.809 112.164 819.505 110.494 827.464 106.9C834.911 103.433 836.451 103.049 837.606 103.049C840.174 103.049 841.073 105.103 841.073 108.312V153.244C841.073 163.13 849.032 159.92 849.032 164.927C849.032 166.339 847.876 168.008 845.437 168.008C842.485 168.008 838.89 167.623 833.37 167.623C827.85 167.623 824.383 168.008 821.43 168.008Z" fill="#222222"/>
<path d="M812.422 158.38C813.835 158.637 814.605 159.407 814.605 160.691C814.605 163.644 809.213 168.65 801.126 168.65C795.605 168.65 790.727 165.569 788.287 159.407C783.409 164.67 775.064 169.035 764.794 169.035C751.057 169.035 742.328 161.076 742.328 149.65C742.328 138.224 752.085 129.11 768.902 129.11C774.68 129.11 779.558 130.009 783.923 131.292L783.665 129.751C781.868 117.17 776.862 112.934 768.902 112.934C763.253 112.934 758.247 115.63 754.01 119.096C752.341 120.123 751.057 120.765 749.902 120.765C748.49 120.765 746.949 119.609 746.949 117.684C746.949 115.887 748.49 114.089 750.03 112.42C754.652 106.9 763.767 102.407 774.037 102.407C790.342 102.407 796.504 112.164 798.429 125.515L801.382 146.826C802.666 155.941 805.619 157.096 812.422 158.38ZM770.828 159.664C777.247 159.664 783.409 155.941 786.618 151.833L784.95 138.866C781.226 137.454 777.375 136.812 773.267 136.812C763.896 136.812 758.504 140.921 758.504 148.11C758.504 155.042 763.51 159.664 770.828 159.664Z" fill="#222222"/>
<path d="M723.833 150.677C729.737 150.677 733.846 153.886 733.846 159.278C733.846 164.542 729.096 168.779 722.42 168.779C716.514 168.779 712.535 165.569 712.535 160.177C712.535 154.914 717.285 150.677 723.833 150.677Z" fill="#222222"/>
<path d="M701.777 150.035C703.574 150.035 704.729 151.705 704.729 153.245C704.729 154.144 704.344 155.17 703.445 156.454C698.952 163.13 687.526 170.062 674.175 170.062C655.431 170.062 640.668 157.353 640.668 136.171C640.668 115.373 656.33 101.508 674.303 101.508C691.249 101.508 702.161 114.089 702.161 126.67C702.161 129.88 701.134 130.65 698.952 131.292L659.026 143.36C662.878 152.603 670.709 159.407 680.722 159.407C687.654 159.407 693.56 156.454 698.053 152.217C699.722 150.677 700.621 150.035 701.777 150.035ZM672.121 110.109C663.134 110.109 656.458 117.94 656.458 130.265C656.458 132.191 656.587 133.988 656.844 135.785L682.904 127.569C685.087 126.927 685.857 126.157 685.857 123.846C685.857 117.684 680.209 110.109 672.121 110.109Z" fill="#222222"/>
<path d="M636.105 103.562C638.16 103.562 639.7 104.589 639.7 106.514C639.7 110.88 633.281 109.467 630.071 117.042L610.558 163.644C609.275 166.853 607.991 168.393 602.342 168.393C596.822 168.393 595.41 166.981 593.997 163.515L574.356 117.17C571.017 109.339 564.855 110.88 564.855 106.514C564.855 104.589 566.396 103.562 568.322 103.562C571.659 103.562 575.382 103.947 581.673 103.947C587.321 103.947 591.173 103.562 594.254 103.562C596.822 103.562 598.362 104.589 598.362 106.643C598.362 111.136 591.43 109.596 591.43 115.501C591.43 117.042 592.072 119.609 593.484 123.076L605.808 154.272L618.004 123.076C619.288 119.353 620.187 117.17 620.187 115.116C620.187 109.981 612.997 111.136 612.997 106.643C612.997 104.589 614.409 103.562 616.977 103.562C619.673 103.562 622.882 103.947 626.349 103.947C629.815 103.947 633.153 103.562 636.105 103.562Z" fill="#222222"/>
<path d="M535.18 168.009C532.484 168.009 531.457 166.468 531.457 164.928C531.457 159.92 539.288 163.13 539.288 153.245V90.9814C539.288 83.0213 530.43 87.0014 530.43 81.6095C530.43 79.1703 533.254 77.6294 541.085 73.9066C548.531 70.4402 550.072 70.0555 551.356 70.0555C553.923 70.0555 554.693 72.2375 554.693 75.4475V153.245C554.693 163.13 562.653 159.92 562.653 164.928C562.653 166.339 561.498 168.009 559.058 168.009C556.106 168.009 552.511 167.623 546.991 167.623C541.47 167.623 538.004 168.009 535.18 168.009Z" fill="#222222"/>
<path d="M487.16 170.062C465.849 170.062 451.984 155.812 451.984 136.427C451.984 116.4 467.647 101.508 489.086 101.508C510.268 101.508 524.133 115.758 524.133 135.272C524.133 155.427 508.214 170.062 487.16 170.062ZM490.241 161.718C501.154 161.718 507.572 152.988 507.572 140.15C507.572 125.643 498.971 109.853 486.004 109.853C475.092 109.853 468.674 118.582 468.674 131.549C468.674 145.927 477.147 161.718 490.241 161.718Z" fill="#222222"/>
<path d="M394.591 169.806C392.152 169.806 390.996 167.109 389.969 164.927L385.862 156.197C383.807 151.833 382.523 149.778 382.523 147.724C382.523 145.671 383.807 144.515 385.476 144.515C386.888 144.515 388.301 145.671 389.969 147.211C397.929 155.042 407.172 161.204 417.186 161.204C424.889 161.204 429.51 157.096 429.51 152.217C429.51 145.671 422.192 144.386 411.28 141.819C398.186 138.866 384.064 134.245 384.064 121.15C384.064 110.494 393.693 102.535 407.172 102.535C414.49 102.535 420.139 104.846 422.321 104.846C424.632 104.846 424.632 102.278 427.328 102.278C429.767 102.278 431.051 104.461 432.72 106.9L437.213 114.089C438.754 116.656 440.166 119.353 440.166 121.022C440.166 122.819 438.882 123.974 437.47 123.974C435.929 123.974 434.517 122.562 432.976 121.278C426.173 115.245 417.186 110.238 409.098 110.238C403.064 110.238 399.341 113.19 399.341 117.427C399.341 123.204 405.632 124.488 417.186 127.44C431.179 130.65 444.659 134.887 444.659 148.88C444.659 161.461 432.976 169.035 417.442 169.035C408.584 169.035 402.936 166.468 400.753 166.468C397.8 166.468 397.544 169.806 394.591 169.806Z" fill="#222222"/>
<path d="M373.307 150.035C375.104 150.035 376.26 151.705 376.26 153.245C376.26 154.144 375.875 155.17 374.976 156.454C370.483 163.13 359.058 170.062 345.705 170.062C326.962 170.062 312.199 157.353 312.199 136.171C312.199 115.373 327.861 101.508 345.834 101.508C362.78 101.508 373.692 114.089 373.692 126.67C373.692 129.88 372.665 130.65 370.483 131.292L330.557 143.36C334.409 152.603 342.24 159.407 352.253 159.407C359.186 159.407 365.091 156.454 369.584 152.217C371.253 150.677 372.152 150.035 373.307 150.035ZM343.652 110.109C334.665 110.109 327.99 117.94 327.99 130.265C327.99 132.191 328.118 133.988 328.375 135.785L354.436 127.569C356.618 126.927 357.388 126.157 357.388 123.846C357.388 117.684 351.739 110.109 343.652 110.109Z" fill="#222222"/>
<path d="M294.796 151.576C302.37 161.333 309.302 159.792 309.302 165.056C309.302 166.853 308.019 168.009 305.837 168.009C303.012 168.009 296.978 167.623 291.073 167.623C285.553 167.623 280.417 168.009 277.08 168.009C274.127 168.009 272.586 166.981 272.586 164.799C272.586 160.434 279.005 161.975 279.005 157.481C279.005 155.556 277.593 153.63 276.181 151.705L265.526 137.582C263.6 135.272 261.931 134.373 259.62 134.501C256.026 134.63 252.303 134.63 248.579 134.501C246.269 134.373 245.498 135.272 245.498 137.326V153.758C245.498 162.617 253.971 159.664 253.971 164.928C253.971 166.468 252.945 168.009 250.12 168.009C247.039 168.009 242.931 167.623 236.897 167.623C230.863 167.623 227.269 168.009 224.188 168.009C221.363 168.009 220.336 166.468 220.336 164.928C220.336 159.664 228.552 162.617 228.552 153.758V90.3388C228.552 81.4812 220.336 84.434 220.336 79.1703C220.336 77.6294 221.363 76.0893 224.572 76.0893C227.012 76.0893 231.505 76.4739 236.255 76.4739C241.647 76.4739 250.248 75.7039 257.309 75.7039C286.451 75.7039 300.958 88.0286 300.958 105.873C300.958 119.096 292.87 128.724 280.289 132.319L294.796 151.576ZM256.924 126.67C271.816 126.67 282.215 122.306 282.215 106.002C282.215 91.6232 271.431 84.434 256.668 84.434C248.836 84.434 245.498 85.7177 245.498 90.7242V122.178C245.498 125.771 247.937 126.67 256.924 126.67Z" fill="#222222"/>
<path fill-rule="evenodd" clip-rule="evenodd" d="M60.0078 36.8278H108.339C134.197 36.8278 155.159 57.7901 155.159 83.6481C155.159 101.138 145.569 116.389 131.36 124.427H155.159L155.16 233.172L60.0078 130.469V36.8278ZM66.0492 42.8694H108.339C130.86 42.8694 149.118 61.1267 149.118 83.6481C149.118 106.17 130.86 124.427 108.339 124.427H66.0492V42.8694ZM68.2435 130.469L149.119 217.762L149.118 130.469H68.2435Z" fill="#222222"/>
</svg>
