<svg width="687" height="260" viewBox="0 0 687 260" fill="none" xmlns="http://www.w3.org/2000/svg">
<path fill-rule="evenodd" clip-rule="evenodd" d="M126.049 95.0565L114.796 73C100.842 74.9006 87.9379 81.5025 78.185 91.6555L100.892 136.169C106.093 120.114 114.896 106.21 126.049 95.0565ZM161.76 125.165L179.265 107.66C173.163 95.0065 162.86 84.7035 150.206 78.6017L114.846 113.962C131.751 113.962 147.656 118.013 161.76 125.165ZM61.9302 123.615L86.3874 119.764C93.5896 133.818 104.093 146.472 117.747 156.425L68.3821 164.227C61.6801 151.823 59.4294 137.419 61.9302 123.615ZM97.5907 165.127L93.7396 189.585C106.143 196.237 120.498 198.487 134.302 196.036L142.104 146.672C128.45 156.575 113.195 162.677 97.5907 165.177V165.127ZM166.211 179.682L144.155 168.428C146.605 152.824 145.555 136.419 140.303 120.364L184.817 143.071C182.916 157.025 176.314 169.929 166.161 179.682H166.211ZM205.323 134.268C205.323 105.06 226.329 84.4034 255.488 84.4034C284.646 84.4034 305.953 105.06 305.953 134.268C305.802 164.077 284.646 185.383 255.488 185.383C226.329 185.383 205.323 164.077 205.323 134.268ZM255.788 162.176C265.39 162.176 272.193 151.423 272.193 134.268C272.193 117.113 265.39 107.61 255.788 107.61C246.185 107.61 238.883 117.863 238.883 134.268C238.883 150.673 245.835 162.176 255.788 162.176ZM352.366 96.2569C358.418 89.5049 367.221 85.2036 377.024 85.2036V112.812C374.823 112.512 371.172 112.162 367.721 112.162C358.068 112.162 352.566 115.613 352.566 121.314V183.333H319.607V86.604H350.516V96.2569H352.366ZM441.943 86.604V155.424C440.843 158.875 436.591 161.576 431.39 161.576C426.188 161.576 423.837 160.326 423.837 155.875V86.604H390.728V160.126C390.728 177.331 398.78 185.233 416.935 185.383H417.436C427.038 185.233 435.641 180.982 441.593 174.33H443.443V183.333H475.153V86.604H442.043H441.943ZM600.54 84.5534H600.59C618.695 84.7035 626.798 92.6058 626.798 109.811V183.383H593.688V114.112C593.688 109.711 591.337 108.411 586.136 108.411C580.934 108.411 576.683 111.111 575.582 114.562V183.383H542.273V114.112C542.273 109.711 539.922 108.411 534.72 108.411C529.519 108.411 525.268 111.111 524.167 114.562V183.383H491.007V86.604H522.717V95.6067H524.567C530.519 88.9547 539.122 84.7035 548.724 84.5534H549.125C561.278 84.6535 568.93 88.2545 572.632 95.8068C578.933 89.6049 590.987 84.7035 600.09 84.6034H600.49L600.54 84.5534Z" fill="black"/>
</svg>
