<svg width="1009" height="260" viewBox="0 0 1009 260" fill="none" xmlns="http://www.w3.org/2000/svg">
<g clip-path="url(#clip0_13418_4892)">
<path d="M946.823 112.572C942.779 106.021 935.824 104.484 928.788 104.484C920.135 104.484 910.106 108.366 910.106 118.475C910.106 128.585 919.164 131.334 928.788 132.547C935.662 133.356 941.243 135.216 941.243 140.473C941.243 146.62 934.854 148.399 928.95 148.399C923.046 148.399 917.385 146.296 913.907 140.473L908.084 144.355C912.532 152.442 919.649 155.354 928.869 155.354C938.897 155.354 948.845 151.31 948.926 140.392C948.926 129.474 939.463 126.725 929.516 125.35C923.127 124.541 917.789 123.085 917.789 118.395C917.789 113.704 922.561 111.035 928.95 111.035C933.964 111.035 938.574 113.138 940.919 116.454L946.742 112.572H946.823ZM778.929 154.303H782.002C784.509 154.303 786.612 152.2 786.612 149.693V105.859H777.716L761.783 128.585L745.851 105.859H736.955V154.303H740.028C742.535 154.303 744.638 152.2 744.638 149.693V117.181L760.813 140.069H762.511L779.01 117.181V154.303H778.929ZM699.672 136.996H679.13L689.32 113.946L699.672 136.996ZM707.194 154.222H715.443L693.688 105.778H685.277L663.522 154.222H671.771L676.381 144.032H702.584L707.194 154.222ZM606.991 105.778H601.006V154.222H604.241C606.748 154.222 608.851 152.119 608.851 149.612V120.012L636.348 154.222H642.171V105.778H639.098C636.591 105.778 634.488 107.881 634.488 110.388V140.231L606.991 105.778ZM543.181 105.778H533.962V106.021L552.644 134.246V154.222H555.717C558.224 154.222 560.327 152.119 560.327 149.612V134.408L579.575 106.183V105.94H570.193L556.364 127.291L543.1 105.778H543.181ZM483.901 113.138H494.495C505.979 113.138 510.832 121.225 511.074 129.474C511.236 137.966 506.303 146.62 494.495 146.62H483.901V113.138ZM476.218 105.778V154.222H494.657C511.56 154.222 519.243 141.767 518.919 129.636C518.757 117.667 511.236 105.94 494.657 105.94H476.218V105.778ZM436.994 139.422C460.124 139.26 460.043 105.778 436.994 105.778H414.511V154.222H417.584C420.091 154.222 422.194 152.119 422.194 149.612V139.422H436.994ZM422.356 112.895H436.994C449.691 112.895 449.853 132.305 436.994 132.305H422.356V112.895ZM375.206 139.422C398.336 139.26 398.255 105.778 375.206 105.778H352.723V154.222H355.796C358.304 154.222 360.406 152.119 360.406 149.612V139.422H375.206ZM360.568 112.895H375.206C387.903 112.895 388.065 132.305 375.206 132.305H360.568V112.895ZM315.764 136.996H295.222L305.412 113.946L315.764 136.996ZM323.123 154.222H331.373L309.618 105.778H301.207L279.613 154.222H287.862L292.472 144.032H318.675L323.123 154.222Z" fill="black"/>
<path d="M813.539 110.388V154.222H816.612C819.119 154.222 821.222 152.119 821.222 149.612V105.778H818.149C815.642 105.778 813.539 107.881 813.539 110.388Z" fill="black"/>
<path d="M870.23 147.752C860.445 147.752 852.519 139.826 852.519 130.04C852.519 120.255 860.445 112.329 870.23 112.329C875.083 112.329 879.612 114.27 882.766 117.505L888.103 112.167C883.494 107.557 877.185 104.808 870.392 104.808C856.401 104.808 845.24 116.13 845.24 129.96C845.24 143.789 856.563 155.111 870.392 155.111C877.347 155.111 883.655 152.281 888.103 147.752L882.766 142.414C879.531 145.73 875.083 147.833 870.23 147.833" fill="black"/>
<path d="M146.657 214.23L84.9505 85.6406C70.0697 99.3083 60.6074 118.799 60.6074 140.635C60.6074 181.638 94.0083 215.12 135.092 215.12C139.055 215.12 142.694 214.796 146.657 214.23Z" fill="black"/>
<path d="M121.421 67.3632C125.95 66.4736 130.56 66.1501 135.089 66.1501C176.092 66.1501 209.574 99.551 209.574 140.635C209.574 163.118 199.545 183.498 183.452 197.166L201.729 235.5C231.491 214.554 250.981 179.859 250.981 140.635C251.305 76.5019 199.303 24.5 135.17 24.5C124.252 24.5 113.253 26.0366 103.225 29.0289L121.502 67.3632H121.421Z" fill="black"/>
</g>
<defs>
<clipPath id="clip0_13418_4892">
<rect width="888.319" height="211" fill="white" transform="translate(60.6074 24.5)"/>
</clipPath>
</defs>
</svg>
