<svg width="814" height="260" viewBox="0 0 814 260" fill="none" xmlns="http://www.w3.org/2000/svg">
<path fill-rule="evenodd" clip-rule="evenodd" d="M105.481 101.012H105.549C130.224 101.012 150.226 121.013 150.226 145.688V146.324C150.226 170.999 130.224 191 105.549 191H105.481C80.8058 191 60.8047 170.999 60.8047 146.324V145.688C60.8047 121.013 80.8058 101.012 105.481 101.012ZM88.143 163.971C93.0745 168.439 98.8652 170.69 105.515 170.69C112.165 170.69 117.921 168.421 122.801 163.885C127.681 159.349 130.104 153.352 130.104 145.894C130.104 138.437 127.664 132.44 122.801 127.904C117.921 123.367 112.165 121.099 105.515 121.099C98.8652 121.099 93.1089 123.367 88.2289 127.904C83.3489 132.44 80.9261 138.437 80.9261 145.894C80.9261 153.352 83.3317 159.366 88.143 163.971ZM293.464 128.866V177.15C293.464 186.378 289.855 191 282.638 191C275.422 191 271.813 186.378 271.813 177.15V135.756C271.813 125.086 267.346 119.759 258.393 119.759C253.462 119.759 249.475 121.597 246.434 125.257C243.392 128.935 241.88 134.21 241.88 141.083V177.15C241.88 186.378 238.272 191 231.055 191C223.838 191 220.229 186.378 220.229 177.15V136.1C220.229 125.206 215.642 119.759 206.466 119.759C201.998 119.759 198.184 121.615 195.039 125.343C191.895 129.072 190.314 134.21 190.314 140.739V177.15C190.314 186.378 186.705 191 179.488 191C172.271 191 168.663 186.378 168.663 177.15V117.027C168.663 107.834 172.271 103.246 179.488 103.246C186.018 103.246 189.695 106.597 190.314 115.463C196.276 106.287 204.524 100.84 215.075 100.84C227 100.84 234.904 105.72 238.804 115.463C244.887 105.72 253.943 100.84 265.971 100.84C274.683 100.84 281.453 103.366 286.264 108.418C291.075 113.47 293.258 118.573 293.481 128.9L293.464 128.866ZM395.617 130.412V177.133C395.617 186.361 392.009 190.983 384.792 190.983C377.575 190.983 373.967 186.361 373.967 177.133V139.348C373.967 127.182 368.176 121.099 356.595 121.099C350.855 121.099 346.13 123.333 342.401 127.818C338.673 132.285 336.817 138.093 336.817 145.19V177.116C336.817 186.343 333.208 190.966 325.991 190.966C318.775 190.966 315.166 186.343 315.166 177.116V117.044C315.166 107.817 318.775 103.194 325.991 103.194C333.208 103.194 336.817 107.817 336.817 117.044C343.81 106.184 353.433 100.789 365.702 100.789C374.757 100.789 382.008 103.486 387.455 108.882C392.902 114.277 395.566 119.776 395.617 130.395V130.412ZM417.096 177.15V117.078C417.096 107.851 420.705 103.229 427.922 103.229C435.138 103.229 438.747 107.851 438.747 117.078V177.15C438.747 186.378 435.138 191 427.922 191C420.705 191 417.096 186.378 417.096 177.15ZM420.292 87.8499C418.179 85.8394 417.113 83.1761 417.113 79.8941C417.113 76.6121 418.179 73.9831 420.327 71.9899C422.475 69.9966 425.018 69 427.939 69C430.86 69 433.403 69.9966 435.551 71.9899C437.699 73.9831 438.764 76.6293 438.764 79.8941C438.764 83.1589 437.699 85.8051 435.551 87.7983C433.403 89.7916 430.86 90.7882 427.939 90.7882C425.018 90.7882 422.457 89.8087 420.292 87.8327V87.8499ZM462.15 120.79C456.411 120.79 453.559 117.869 453.559 112.009C453.559 106.15 456.428 103.229 462.15 103.229H466.79V94.0186C466.79 84.7913 470.398 80.169 477.615 80.169C484.832 80.169 488.44 84.7913 488.44 94.0186V103.229H498.407C504.146 103.229 506.998 106.15 506.998 112.009C506.998 117.869 504.129 120.79 498.407 120.79H488.44V159.675C488.44 167.7 492.049 171.721 499.266 171.721C501.792 171.721 500.383 171.755 503.613 171.394C506.156 171.085 510.297 171.48 511.328 178.766C512.016 183.611 510.332 187.065 506.294 189.127C501.929 190.725 499.403 191 494.128 191C475.897 191 466.79 181.944 466.79 163.816V120.807H462.15V120.79ZM524.405 177.15V117.078C524.405 107.851 528.013 103.229 535.23 103.229C542.447 103.229 546.055 107.851 546.055 117.078V177.15C546.055 186.378 542.447 191 535.23 191C528.013 191 524.405 186.378 524.405 177.15ZM527.584 87.8499C525.47 85.8394 524.405 83.1761 524.405 79.8941C524.405 76.6121 525.47 73.9831 527.618 71.9899C529.766 69.9966 532.309 69 535.23 69C538.151 69 540.694 69.9966 542.842 71.9899C544.99 73.9831 546.055 76.6293 546.055 79.8941C546.055 83.1589 544.99 85.8051 542.842 87.7983C540.694 89.7916 538.151 90.7882 535.23 90.7882C532.309 90.7882 529.749 89.8087 527.584 87.8327V87.8499ZM609.324 101.012H609.392C634.067 101.012 654.068 121.013 654.068 145.688V146.324C654.068 170.999 634.067 191 609.392 191H609.324C584.649 191 564.647 170.999 564.647 146.324V145.688C564.647 121.013 584.649 101.012 609.324 101.012ZM591.986 163.971C596.917 168.439 602.708 170.69 609.358 170.69C616.008 170.69 621.764 168.421 626.644 163.885C631.524 159.349 633.947 153.352 633.947 145.894C633.947 138.437 631.507 132.44 626.644 127.904C621.764 123.367 616.008 121.099 609.358 121.099C602.708 121.099 596.952 123.367 592.072 127.904C587.192 132.44 584.769 138.437 584.769 145.894C584.769 153.352 587.174 159.366 591.986 163.971ZM753.284 132.148V177.15C753.284 186.378 749.675 191 742.458 191C735.241 191 731.633 186.378 731.633 177.15V139.365C731.633 127.199 725.842 121.116 714.261 121.116C708.522 121.116 703.796 123.35 700.067 127.835C696.339 132.303 694.483 138.11 694.483 145.207V177.133C694.483 186.361 690.875 190.983 683.658 190.983C676.441 190.983 672.832 186.361 672.832 177.133V117.061C672.832 107.834 676.441 103.212 683.658 103.212C690.875 103.212 694.483 107.834 694.483 117.061C701.477 106.201 711.099 100.806 723.368 100.806C732.423 100.806 739.674 103.504 745.122 108.899C750.569 114.295 753.284 123.195 753.284 132.148Z" fill="black"/>
</svg>
