<svg width="607" height="260" viewBox="0 0 607 260" fill="none" xmlns="http://www.w3.org/2000/svg">
<path d="M60.7109 106.382H94.7924L114.928 149.504L128.013 123.222C129.489 120.153 130.646 117.4 131.581 115.354C132.504 113.308 133.125 110.871 133.512 109.216C133.68 108.049 134.225 106.97 135.063 106.147C135.38 105.836 135.756 105.593 136.168 105.431C136.58 105.269 137.02 105.192 137.462 105.204C137.895 105.178 138.328 105.249 138.73 105.412C139.132 105.575 139.493 105.826 139.787 106.147C140.372 106.785 140.679 107.635 140.636 108.503C140.698 109.086 140.698 109.662 140.636 110.239C140.636 110.871 140.636 111.733 139.941 112.917C139.246 114.095 139.012 115.435 138.237 117.164L135.223 123.774L101.99 192L60.7109 106.382ZM171.199 92.3328C166.437 92.6187 161.708 91.3772 157.689 88.7863C154.657 86.6411 152.909 83.2992 152.989 79.7775C152.985 78.1639 153.453 76.5849 154.337 75.239C155.352 73.7882 156.662 72.5358 158.194 71.5438C160.032 70.3821 162.042 69.5239 164.149 69.0017C166.601 68.298 169.142 67.9616 171.691 68.0035C174.318 67.9601 176.933 68.3507 179.412 69.1567C181.503 69.7643 183.447 70.7625 185.115 72.0832C186.591 73.1682 187.791 74.5322 188.633 76.0823C189.433 77.4897 189.864 79.0459 189.895 80.627C189.884 82.2522 189.387 83.8364 188.467 85.1717C187.471 86.6783 186.13 87.9617 184.53 88.9413C182.74 89.8962 180.821 90.6154 178.821 91.099C176.404 91.6921 173.927 92.0021 171.439 92.0228M153.66 105.415H188.633V185.8H153.666V105.421L153.66 105.415ZM196.053 106.376H230.103L250.589 149.504L263.385 123.222C264.862 120.153 266.018 117.394 266.953 115.348C267.882 113.302 268.504 110.865 268.891 109.21C269.06 108.045 269.605 106.969 270.441 106.147C270.771 105.829 271.161 105.581 271.588 105.418C272.015 105.255 272.471 105.18 272.927 105.198C273.347 105.18 273.766 105.256 274.155 105.42C274.543 105.584 274.89 105.832 275.172 106.147C275.726 106.804 276.033 107.641 276.027 108.503V110.239C276.027 110.946 275.64 111.727 275.252 112.911C274.865 114.089 274.323 115.428 273.548 117.164C272.767 118.894 271.764 121.095 270.521 123.774L237.086 192L196.053 106.376ZM288.399 105.198H319.927V177.678C320.512 177.997 321.17 178.156 321.834 178.136H324.27C325.687 178.055 327.079 177.722 328.38 177.151C330.059 176.314 331.684 175.377 333.258 174.348C335.024 173.046 336.703 171.633 338.284 170.107C339.945 168.433 341.471 166.635 342.849 164.732V105.198H374.458V184.275H342.849V172.904C339.025 177.091 334.35 180.398 329.143 182.601C324.442 184.604 319.396 185.657 314.292 185.701C310.775 185.992 307.235 185.581 303.876 184.49C300.517 183.399 297.404 181.651 294.717 179.346C292.47 176.753 290.755 173.738 289.67 170.475C288.586 167.211 288.154 163.763 288.399 160.33V105.198ZM405.217 106.482H436.776V119.111C440.597 114.801 445.194 111.26 450.323 108.676C455.035 106.359 460.214 105.169 465.456 105.198C482.725 105.198 491.344 113.593 491.344 130.526V185.422H459.477V114.573C458.893 114.218 458.255 113.963 457.588 113.816C456.814 113.666 456.018 113.666 455.244 113.816C453.829 113.891 452.445 114.225 451.153 114.802C449.473 115.567 447.875 116.504 446.386 117.598C444.585 118.866 442.934 120.337 441.464 121.982C439.767 123.729 438.2 125.601 436.776 127.581V185.8H405.217V106.482ZM510.125 169.76C510.113 167.795 510.556 165.854 511.417 164.062C512.402 162.264 513.718 160.652 515.305 159.282C517.046 157.856 519.046 156.752 521.211 156.014C523.633 155.165 526.184 154.754 528.747 154.799C531.38 154.762 534.001 155.233 536.437 156.163C538.578 157.031 540.503 158.296 542.097 159.883C543.565 161.309 544.731 163.02 545.524 164.912C546.317 166.805 546.72 168.84 546.711 170.895C546.723 172.891 546.255 174.863 545.339 176.661C544.379 178.478 543.063 180.096 541.457 181.447C539.671 182.803 537.675 183.855 535.551 184.56C533.221 185.431 530.746 185.843 528.261 185.775C525.516 185.907 522.77 185.52 520.165 184.634C515.92 183.301 512.562 180.232 511.024 176.289C510.187 174.217 509.771 171.997 509.799 169.76" fill="black"/>
</svg>
