<svg width="662" height="260" viewBox="0 0 662 260" fill="none" xmlns="http://www.w3.org/2000/svg">
<path d="M315.452 177.577C315.452 184.16 310.066 189.546 303.483 189.546H295.344V180.21H295.105C294.267 181.527 293.07 182.843 291.634 184.16C290.317 185.476 288.641 186.554 286.726 187.631C284.931 188.708 282.776 189.546 280.502 190.264C278.228 190.982 275.954 191.341 273.441 191.341C268.174 191.341 263.387 190.503 259.078 188.708C254.769 186.913 251.058 184.28 247.946 181.168C244.954 177.816 242.56 173.986 240.885 169.438C239.209 165.009 238.371 160.102 238.371 154.716C238.371 149.809 239.089 145.021 240.526 140.592C242.082 136.044 244.236 131.975 246.989 128.504C249.861 125.033 253.213 122.28 257.163 120.125C261.112 117.971 265.661 116.894 270.688 116.894C275.236 116.894 279.545 117.612 283.375 119.048C287.325 120.365 290.676 122.758 293.19 126.229H293.429V91.1601C293.429 84.5771 298.815 79.191 305.398 79.191H315.332L315.452 177.577ZM295.344 154.117C295.344 148.731 293.788 144.422 290.676 141.071C287.684 137.72 283.375 136.164 277.869 136.164C272.363 136.164 267.935 137.84 264.823 141.071C261.831 144.422 260.275 148.731 260.275 154.117C260.275 159.504 261.831 163.812 264.823 167.164C267.935 170.515 272.244 172.071 277.869 172.071C283.495 172.071 287.684 170.395 290.676 167.164C293.788 163.693 295.344 159.384 295.344 154.117Z" fill="black"/>
<path d="M329.573 130.539C329.573 123.956 334.959 118.57 341.542 118.57H351.476V129.941H351.716C354.11 125.512 356.862 122.28 360.094 120.126C363.326 117.852 367.395 116.775 372.183 116.775C373.499 116.775 374.696 116.775 376.013 116.894C377.33 117.014 378.407 117.134 379.484 117.493V137.481C377.928 137.002 376.372 136.643 374.816 136.404C373.38 136.165 371.824 135.925 370.148 135.925C365.959 135.925 362.608 136.524 360.214 137.721C357.82 138.917 355.905 140.593 354.469 142.628C353.152 144.663 352.434 147.176 351.955 150.049C351.596 152.921 351.357 156.153 351.357 159.744V177.578C351.357 184.161 345.971 189.547 339.387 189.547H329.453V130.539H329.573Z" fill="black"/>
<path d="M432.625 180.689H432.386C429.992 184.519 426.64 187.152 422.571 188.828C418.621 190.504 414.312 191.341 409.884 191.341C406.532 191.341 403.42 190.863 400.189 189.905C397.196 189.067 394.444 187.631 392.169 185.836C389.776 184.04 387.98 181.647 386.664 179.013C385.347 176.26 384.629 173.148 384.629 169.558C384.629 165.488 385.347 162.017 386.783 159.145C388.339 156.272 390.374 153.998 392.888 152.083C395.521 150.288 398.513 148.851 401.745 147.894C405.096 146.816 408.447 146.098 411.918 145.5C415.509 145.021 419.1 144.662 422.571 144.662C426.162 144.542 429.513 144.542 432.505 144.542C432.505 140.593 431.069 137.6 428.316 135.326C425.563 132.932 422.332 131.855 418.501 131.855C414.911 131.855 411.559 132.693 408.567 134.249C405.695 135.685 403.061 137.72 400.667 140.353L388.938 128.384C393.007 124.554 397.795 121.801 403.301 119.886C408.806 117.971 414.432 117.013 420.297 117.013C426.76 117.013 432.027 117.851 436.096 119.527C440.285 121.083 443.637 123.477 446.03 126.589C448.544 129.701 450.339 133.531 451.297 138.079C452.254 142.508 452.733 147.774 452.733 153.759V177.577C452.733 184.16 447.347 189.546 440.764 189.546H432.625V180.689ZM427.239 158.426C425.563 158.426 423.528 158.546 421.015 158.666C418.621 158.786 416.227 159.145 413.833 159.863C411.559 160.581 409.644 161.538 407.969 162.975C406.413 164.291 405.575 166.206 405.575 168.72C405.575 171.353 406.652 173.268 408.926 174.585C411.2 175.901 413.474 176.5 415.988 176.5C418.142 176.5 420.177 176.26 422.092 175.662C424.127 175.064 425.922 174.226 427.478 173.148C429.034 172.071 430.231 170.755 431.069 169.079C432.026 167.403 432.505 165.488 432.505 163.214V158.426H427.239Z" fill="black"/>
<path d="M468.055 130.539C468.055 123.956 473.441 118.57 480.024 118.57H489.12V128.265H489.36C490.078 126.948 491.035 125.512 492.232 124.195C493.549 122.879 494.985 121.562 496.781 120.485C498.576 119.408 500.491 118.57 502.765 117.852C505.039 117.133 507.433 116.774 510.066 116.774C515.572 116.774 520.12 117.612 523.472 119.407C526.823 121.083 529.456 123.357 531.371 126.469C533.286 129.462 534.603 133.052 535.321 137.122C536.039 141.191 536.398 145.62 536.398 150.407V177.577C536.398 184.16 531.012 189.546 524.429 189.546H514.495V154.836C514.495 152.801 514.375 150.647 514.255 148.612C514.136 146.338 513.777 144.303 512.939 142.508C512.221 140.712 511.143 139.157 509.587 137.96C508.151 136.763 505.997 136.164 503.124 136.164C500.252 136.164 497.977 136.643 496.302 137.72C494.506 138.678 493.19 140.114 492.232 141.79C491.394 143.465 490.796 145.38 490.437 147.535C490.197 149.689 489.958 151.963 489.958 154.238V177.577C489.958 184.16 484.572 189.546 477.989 189.546H468.055V130.539Z" fill="black"/>
<path d="M601.629 124.076C601.629 130.659 596.243 136.045 589.66 136.045H582.359V159.744C582.359 161.659 582.479 163.454 582.599 165.13C582.838 166.686 583.197 168.002 583.915 169.199C584.633 170.396 585.591 171.234 587.027 171.952C588.463 172.551 590.379 172.79 592.772 172.79C593.969 172.79 595.406 172.67 597.321 172.551C599.236 172.311 600.672 171.713 601.749 170.755V181.168C601.749 185.836 598.757 190.265 594.209 190.744C591.575 190.983 588.942 191.222 586.429 191.222C582.718 191.222 579.367 190.863 576.255 190.025C573.143 189.188 570.39 187.991 568.116 186.435C565.722 184.639 563.927 182.485 562.61 179.732C561.294 176.979 560.695 173.748 560.695 169.798V136.045H546.691V130.539C546.691 123.956 552.077 118.57 558.66 118.57H560.695V109.474C560.695 102.891 566.081 97.5046 572.664 97.5046H582.599V118.57H601.869V124.076H601.629Z" fill="black"/>
<path fill-rule="evenodd" clip-rule="evenodd" d="M185.103 206.422L181.513 106.121L174.93 79.6698L218.856 84.3377V205.704L192.046 221.264L185.103 206.422Z" fill="black"/>
<path fill-rule="evenodd" clip-rule="evenodd" d="M218.859 84.3382L192.049 99.898L136.512 87.6896L71.6394 114.141L60.8672 84.3382L100.365 61.5969L139.863 38.736L179.361 61.4772L218.859 84.3382Z" fill="black"/>
<path fill-rule="evenodd" clip-rule="evenodd" d="M60.8672 84.338L87.678 99.8978L103.238 146.218L155.782 188.23L139.863 221.145L100.365 198.284L60.8672 175.542V84.338Z" fill="black"/>
<path fill-rule="evenodd" clip-rule="evenodd" d="M157.697 163.933L139.863 190.145V221.145L165.118 206.543L178.164 187.153" fill="black"/>
<path fill-rule="evenodd" clip-rule="evenodd" d="M139.864 159.145L114.609 115.338L119.995 100.856L140.702 90.8018L165.119 115.338L139.864 159.145Z" fill="black"/>
<path fill-rule="evenodd" clip-rule="evenodd" d="M114.611 115.339L139.866 129.941V159.146L116.526 160.103L102.402 142.03L114.611 115.339Z" fill="black"/>
<path fill-rule="evenodd" clip-rule="evenodd" d="M139.863 129.941L165.118 115.339L182.354 143.945L161.527 161.18L139.863 159.145V129.941Z" fill="black"/>
<path fill-rule="evenodd" clip-rule="evenodd" d="M165.12 206.543L191.93 221.145V99.8984L165.958 84.8174L139.865 69.7363L113.772 84.8174L87.6797 99.8984V160.103L113.772 175.184L139.865 190.145L165.12 175.543V206.543ZM165.12 144.543L139.865 159.145L114.61 144.543V115.339L139.865 100.736L165.12 115.339V144.543Z" fill="white"/>
<path d="M139.866 190.145V159.145L114.73 144.663V175.663L139.866 190.145Z" fill="white"/>
</svg>
