<svg width="567" height="260" viewBox="0 0 567 260" fill="none" xmlns="http://www.w3.org/2000/svg">
<g clip-path="url(#clip0_2083_2428)">
<path d="M456.872 79.8591C429.294 79.8591 406.83 102.388 406.83 130.16C406.83 157.932 429.294 180.461 456.872 180.461C484.45 180.461 506.914 157.932 506.914 130.16C506.914 102.388 484.45 79.8591 456.872 79.8591ZM456.872 156.573C442.371 156.573 430.524 144.661 430.524 130.095C430.524 115.529 442.371 103.618 456.872 103.618C471.373 103.618 483.22 115.465 483.22 130.095C483.22 144.726 471.373 156.573 456.872 156.573ZM309.465 119.931L300.725 115.529C296.906 113.652 294.511 112.163 293.604 111.062C292.698 110.091 292.18 108.861 292.18 107.502C292.18 105.819 292.957 104.395 294.446 103.294C295.935 102.129 298.071 101.611 300.725 101.611C305.645 101.611 311.083 104.589 317.104 110.545L331.864 95.7197C328.239 90.7997 323.513 86.786 318.01 84.0023C312.637 81.2833 306.617 79.8591 300.596 79.9238C291.597 79.9238 284.153 82.5781 278.326 87.9513C272.5 93.3244 269.587 99.7334 269.587 107.308C269.587 119.025 277.291 128.8 292.633 136.504L300.661 140.518C307.588 144.014 311.083 147.639 311.083 151.329C311.083 153.336 310.112 155.084 308.235 156.637C306.293 158.191 303.768 158.903 300.661 158.903C297.748 158.903 294.381 157.932 290.626 155.861C286.872 153.854 283.57 151.135 280.786 147.898L266.091 163.953C274.377 174.829 285.447 180.331 299.301 180.331C309.724 180.331 318.075 177.483 324.225 171.786C330.44 166.089 333.547 159.033 333.547 150.552C333.547 144.208 331.799 138.576 328.433 133.85C325.002 129.124 318.658 124.463 309.465 119.867V119.931ZM160.893 169.455V81.8012H137.134V87.6923C129.107 82.5781 119.785 79.7944 110.268 79.7944C82.6904 79.8591 60.2266 102.388 60.2266 130.095C60.2266 157.803 82.6904 180.396 110.268 180.396C119.655 180.396 128.913 177.742 136.811 172.757C136.811 173.534 136.811 174.246 136.811 174.699C136.811 189.265 124.964 201.177 110.463 201.177C105.543 201.177 100.687 199.752 96.5442 197.098L84.762 217.749C92.5304 222.475 101.399 225 110.463 225C138.041 225 160.828 202.407 160.828 174.699C160.828 173.599 160.893 170.427 160.828 169.455H160.893ZM110.268 156.573C95.7673 156.573 83.9204 144.726 83.9204 130.095C83.9204 115.465 95.7673 103.618 110.268 103.618C124.77 103.618 136.617 115.465 136.617 130.095C136.617 144.726 124.77 156.573 110.268 156.573ZM255.539 81.8012H231.651V129.577C231.651 136.375 231.651 148.092 226.731 153.077C224.335 155.472 221.746 157.609 216.243 157.609C210.741 157.609 208.086 155.472 205.756 153.077C200.771 148.092 200.836 136.31 200.836 129.577V81.8012H176.948V129.448C176.883 139.288 176.754 157.544 188.73 169.65C195.786 176.771 204.137 180.396 216.243 180.396C228.349 180.396 236.7 176.835 243.692 169.65C255.668 157.544 255.539 139.288 255.474 129.448V81.8012H255.539ZM390.775 152.3C388.833 153.789 384.236 157.026 378.928 156.249C374.655 155.666 371.16 152.494 370.577 141.942V102.323H398.608V81.7365H370.577V55H346.754V60.2437V138.835C346.754 151.329 349.926 180.331 378.863 180.331C393.494 180.137 402.428 172.11 406.182 169.002L406.7 168.614L392.393 150.941C392.393 150.941 391.358 151.782 390.775 152.235V152.3Z" fill="black"/>
</g>
<defs>
<clipPath id="clip0_2083_2428">
<rect width="446.687" height="170" fill="white" transform="translate(60.2266 55)"/>
</clipPath>
</defs>
</svg>
