<svg width="601" height="260" viewBox="0 0 601 260" fill="none" xmlns="http://www.w3.org/2000/svg">
<path d="M461.201 144.332C461.201 131.358 461.208 118.385 461.186 105.411C461.186 104.647 461.318 104.4 462.153 104.403C488.097 104.428 514.038 104.428 539.982 104.403C540.772 104.403 540.911 104.634 540.908 105.37C540.889 131.396 540.889 157.423 540.908 183.446C540.908 184.144 540.769 184.366 540.023 184.366C514.053 184.343 488.084 184.343 462.115 184.366C461.331 184.366 461.186 184.15 461.186 183.408C461.211 170.381 461.204 157.356 461.204 144.329L461.201 144.332Z" fill="black"/>
<path d="M434.496 184.337H433.798C427.056 184.337 420.314 184.331 413.572 184.347C413.053 184.347 412.715 184.201 412.38 183.792C401.44 170.387 390.485 156.992 379.533 143.596C379.334 143.352 379.128 143.114 378.894 142.835C378.635 143.121 378.746 143.447 378.746 143.733C378.739 156.941 378.733 170.152 378.758 183.36C378.758 184.137 378.604 184.366 377.785 184.356C372.598 184.312 367.408 184.321 362.221 184.347C361.57 184.35 361.336 184.248 361.336 183.506C361.358 147.284 361.358 111.066 361.336 74.8437C361.336 74.1143 361.554 73.997 362.215 74.0002C367.43 74.0287 372.642 74.0319 377.858 74.0002C378.585 73.997 378.755 74.1905 378.755 74.9072C378.736 95.3014 378.739 115.699 378.743 136.093C378.743 136.426 378.673 136.772 378.815 137.114C379.153 137.086 379.286 136.797 379.476 136.607C389.96 126.088 400.438 115.569 410.907 105.034C411.324 104.612 411.732 104.416 412.342 104.416C418.901 104.438 425.456 104.428 432.015 104.428H432.891C432.761 104.818 432.505 104.974 432.312 105.17C421.148 116.425 409.987 127.683 398.801 138.919C398.289 139.436 398.251 139.699 398.722 140.273C410.522 154.711 422.299 169.169 434.076 183.627C434.234 183.82 434.471 183.972 434.5 184.331L434.496 184.337Z" fill="black"/>
<path d="M150.22 129.196C150.22 111.123 150.226 93.053 150.201 74.9801C150.201 74.1714 150.403 73.9938 151.191 74.0002C156.194 74.0382 161.198 74.0382 166.201 74.0002C166.95 73.9938 167.156 74.1556 167.153 74.9357C167.127 89.6534 167.131 104.368 167.14 119.086C167.14 119.4 166.95 119.926 167.314 119.98C167.658 120.031 167.627 119.469 167.725 119.174C169.46 113.958 172.365 109.594 177.008 106.547C180.052 104.549 183.437 103.429 187.047 103.033C190.951 102.602 194.823 102.776 198.641 103.778C206.404 105.82 211.603 110.704 214.464 118.166C216.215 122.739 216.831 127.508 216.831 132.376C216.838 149.444 216.831 166.512 216.85 183.579C216.85 184.217 216.67 184.353 216.063 184.353C210.797 184.331 205.528 184.324 200.262 184.356C199.576 184.359 199.463 184.153 199.466 183.522C199.485 168.462 199.478 153.402 199.482 138.341C199.482 135.062 199.352 131.79 198.647 128.577C198.043 125.828 197.095 123.215 195.35 120.941C193.277 118.239 190.476 116.799 187.211 116.232C184.439 115.75 181.661 115.794 178.905 116.482C174.489 117.583 171.502 120.357 169.707 124.458C167.968 128.428 167.605 132.655 167.608 136.937C167.617 152.419 167.605 167.901 167.633 183.383C167.633 184.207 167.406 184.359 166.637 184.356C161.451 184.321 156.26 184.321 151.074 184.356C150.375 184.359 150.211 184.188 150.211 183.49C150.233 165.392 150.226 147.294 150.226 129.196H150.22Z" fill="black"/>
<path d="M302.091 157.797C302.091 166.356 302.082 174.919 302.107 183.478C302.107 184.153 301.977 184.359 301.257 184.356C296.228 184.318 291.196 184.318 286.167 184.356C285.431 184.362 285.32 184.131 285.323 183.471C285.352 178.848 285.339 174.224 285.339 169.6C285.339 169.416 285.339 169.229 285.339 169.045C285.336 168.89 285.355 168.716 285.137 168.681C284.906 168.643 284.827 168.77 284.764 168.979C284.583 169.556 284.406 170.139 284.176 170.698C280.794 178.949 274.753 183.934 265.969 185.457C259.474 186.582 253.133 185.875 247.115 183.199C239.69 179.894 234.747 174.329 233.018 166.252C231.899 161.013 232.253 155.844 234.731 150.969C236.428 147.633 239.001 145.115 242.13 143.127C246.584 140.298 251.534 138.827 256.632 137.761C261.38 136.769 266.206 136.34 271.02 135.855C275.37 135.414 279.716 134.98 284.065 134.533C284.359 134.504 284.707 134.552 284.71 134.051C284.729 131.406 284.713 128.768 283.992 126.192C282.485 120.811 278.97 117.541 273.565 116.301C269.465 115.36 265.4 115.528 261.434 116.936C256.658 118.629 253.958 122.117 253.035 127.055C252.906 127.753 252.798 128.463 252.754 129.17C252.726 129.595 252.564 129.674 252.182 129.674C246.729 129.665 241.277 129.662 235.828 129.674C235.392 129.674 235.313 129.535 235.341 129.129C236.03 119.853 240.288 112.759 248.218 107.913C252.542 105.272 257.293 103.861 262.268 103.226C268.511 102.43 274.725 102.614 280.832 104.279C287.915 106.21 293.683 110.025 297.518 116.431C300.109 120.76 301.38 125.53 301.857 130.534C302.139 133.486 302.088 136.445 302.091 139.404C302.098 145.534 302.091 151.664 302.091 157.794V157.797ZM284.707 149.739C284.707 148.895 284.675 148.049 284.719 147.205C284.748 146.669 284.527 146.587 284.071 146.644C283.028 146.777 281.982 146.882 280.936 146.999C276.425 147.51 271.915 148.02 267.408 148.534C263.788 148.943 260.223 149.577 256.936 151.264C251.588 154.011 249.802 158.986 251.243 164.355C252.277 168.199 255.058 170.472 258.665 171.855C261.737 173.032 264.904 173.178 268.122 172.781C275.439 171.874 280.297 167.844 282.867 160.984C284.223 157.369 284.647 153.582 284.707 149.742V149.739Z" fill="black"/>
<path d="M134.574 156.487C133.677 162.272 131.657 167.555 128.281 172.267C124.855 177.053 120.332 180.487 114.949 182.812C111.532 184.29 107.954 185.127 104.281 185.625C101.755 185.967 99.2046 186.097 96.6791 185.923C85.2875 185.133 75.9409 180.357 68.9776 171.196C64.9033 165.836 62.4347 159.741 61.1609 153.132C60.5035 149.701 60.2885 146.244 60.4087 142.765C60.788 131.856 64.3913 122.2 71.775 114.101C75.3151 110.219 79.5538 107.308 84.4657 105.37C87.3041 104.251 90.2121 103.559 93.2243 103.16C95.8952 102.805 98.5693 102.767 101.231 102.922C105.488 103.169 109.642 104.032 113.618 105.643C116.302 106.731 118.833 108.069 121.15 109.835C122.696 111.015 124.153 112.28 125.455 113.714C128.385 116.939 130.509 120.655 131.963 124.762C132.706 126.855 133.237 129.005 133.702 131.178C133.816 131.717 133.664 131.907 133.076 131.904C127.652 131.882 122.225 131.888 116.801 131.901C116.371 131.901 116.241 131.828 116.137 131.339C115.473 128.247 114.399 125.314 112.531 122.729C110.407 119.796 107.647 117.766 104.173 116.641C101.604 115.81 98.9865 115.724 96.3693 115.921C92.4215 116.219 89.0615 117.89 86.2421 120.719C83.4795 123.491 81.8359 126.881 80.6095 130.521C79.7086 133.195 79.1334 135.96 78.9026 138.757C78.5328 143.254 78.5707 147.754 79.2946 152.238C80.0058 156.64 81.3207 160.807 83.7608 164.549C86.4949 168.744 90.2215 171.57 95.2156 172.553C100.349 173.561 105.147 172.857 109.452 169.727C112.872 167.241 114.908 163.784 116.137 159.804C116.377 159.031 116.573 158.244 116.656 157.432C116.722 156.757 116.968 156.43 117.781 156.462C119.99 156.541 122.203 156.49 124.415 156.49H134.571L134.574 156.487Z" fill="black"/>
<path d="M340.012 129.11C340.012 147.208 340.005 165.31 340.031 183.408C340.031 184.166 339.857 184.366 339.089 184.359C333.902 184.321 328.712 184.328 323.525 184.353C322.871 184.356 322.637 184.252 322.637 183.509C322.659 147.284 322.659 111.059 322.64 74.8343C322.64 74.1747 322.798 74.0066 323.459 74.0098C328.699 74.0383 333.94 74.0447 339.18 74.0066C339.911 74.0003 340.024 74.2286 340.024 74.8882C340.009 92.9611 340.012 111.034 340.012 129.107V129.11Z" fill="black"/>
</svg>
