<svg width="894" height="260" viewBox="0 0 894 260" fill="none" xmlns="http://www.w3.org/2000/svg">
<g clip-path="url(#clip0_13419_4948)">
<path fill-rule="evenodd" clip-rule="evenodd" d="M60.8008 60.57C60.8008 40.3543 77.2308 24 97.5222 24H237.139C257.431 24 273.861 40.3543 273.861 60.57V178.684C273.861 199.581 247.285 208.591 234.414 192.161L194.134 140.6V203.14C194.134 221.311 179.369 236 161.046 236H97.5222C77.2308 236 60.8008 219.646 60.8008 199.43V60.57ZM97.5222 53.2257C93.5094 53.2257 90.1779 56.4814 90.1779 60.57V199.43C90.1779 203.443 93.5094 206.774 97.5222 206.774H162.182C164.227 206.774 164.756 205.109 164.756 203.14V119.324C164.756 98.4271 191.332 89.3414 204.204 105.847L244.484 157.409V60.57C244.484 56.5571 244.862 53.2257 240.774 53.2257H97.5222Z" fill="black"/>
<path fill-rule="evenodd" clip-rule="evenodd" d="M60.8008 60.57C60.8008 40.3543 77.2308 24 97.5222 24H237.139C257.431 24 273.861 40.3543 273.861 60.57V178.684C273.861 199.581 247.285 208.591 234.414 192.161L194.134 140.6V203.14C194.134 221.311 179.369 236 161.046 236H97.5222C77.2308 236 60.8008 219.646 60.8008 199.43V60.57ZM97.5222 53.2257C93.5094 53.2257 90.1779 56.4814 90.1779 60.57V199.43C90.1779 203.443 93.5094 206.774 97.5222 206.774H162.182C164.227 206.774 164.756 205.109 164.756 203.14V119.324C164.756 98.4271 191.332 89.3414 204.204 105.847L244.484 157.409V60.57C244.484 56.5571 244.862 53.2257 240.774 53.2257H97.5222Z" fill="url(#paint0_linear_13419_4948)"/>
<path fill-rule="evenodd" clip-rule="evenodd" d="M60.8008 60.57C60.8008 40.3543 77.2308 24 97.5222 24H237.139C257.431 24 273.861 40.3543 273.861 60.57V178.684C273.861 199.581 247.285 208.591 234.414 192.161L194.134 140.6V203.14C194.134 221.311 179.369 236 161.046 236H97.5222C77.2308 236 60.8008 219.646 60.8008 199.43V60.57ZM97.5222 53.2257C93.5094 53.2257 90.1779 56.4814 90.1779 60.57V199.43C90.1779 203.443 93.5094 206.774 97.5222 206.774H162.182C164.227 206.774 164.756 205.109 164.756 203.14V119.324C164.756 98.4271 191.332 89.3414 204.204 105.847L244.484 157.409V60.57C244.484 56.5571 244.862 53.2257 240.774 53.2257H97.5222Z" fill="url(#paint1_linear_13419_4948)"/>
<path d="M237.128 24.0002C257.419 24.0002 273.849 40.3545 273.849 60.5702V178.684C273.849 199.582 247.274 208.592 234.402 192.162L194.122 140.6V203.14C194.122 221.312 179.358 236 161.035 236C163.079 236 164.669 234.334 164.669 232.366V119.324C164.669 98.4273 191.245 89.4173 204.117 105.847L244.397 157.409V31.2687C244.397 27.2559 241.065 23.9245 237.052 24.0002" fill="black"/>
<path d="M425.059 80.2557V141.054L369.409 80.2557H340.41V179.744H366.834V114.403L427.482 179.744H451.483V80.2557H425.059ZM500.546 157.56V139.919H559.679V118.719H500.546V102.364H572.323V80.18H473.592V179.669H573.837V157.484H500.622L500.546 157.56ZM644.024 183C681.2 183 705.353 163.693 705.353 130C705.353 96.3071 681.2 77 644.024 77C606.849 77 582.847 96.3071 582.847 130C582.847 163.693 606.849 183 644.024 183ZM644.024 159.453C623.354 159.453 610.634 148.777 610.634 130C610.634 111.223 623.506 100.547 644.024 100.547C664.543 100.547 677.414 111.223 677.414 130C677.414 148.777 664.694 159.453 644.024 159.453ZM806.659 80.2557V141.054L750.933 80.2557H721.934V179.744H748.359V114.403L809.006 179.744H833.007V80.2557H806.583H806.659Z" fill="black"/>
</g>
<defs>
<linearGradient id="paint0_linear_13419_4948" x1="266.062" y1="242.814" x2="79.7294" y2="29.9057" gradientUnits="userSpaceOnUse">
<stop stop-color="white"/>
<stop offset="1" stop-color="white" stop-opacity="0"/>
</linearGradient>
<linearGradient id="paint1_linear_13419_4948" x1="295.666" y1="180.199" x2="169.299" y2="130.757" gradientUnits="userSpaceOnUse">
<stop stop-color="#1A1A1A" stop-opacity="0.9"/>
<stop offset="1" stop-color="#1A1A1A" stop-opacity="0"/>
</linearGradient>
<clipPath id="clip0_13419_4948">
<rect width="772.286" height="212" fill="white" transform="translate(60.8008 24)"/>
</clipPath>
</defs>
</svg>
