<svg width="984" height="260" viewBox="0 0 984 260" fill="none" xmlns="http://www.w3.org/2000/svg">
<g clip-path="url(#clip0_2084_3979)">
<path fill-rule="evenodd" clip-rule="evenodd" d="M290.872 58L217.192 202H147.992L178.792 142.32H177.432C151.992 175.36 114.072 197.04 59.9922 202V143.12C59.9922 143.12 94.5522 141.04 114.952 119.68H59.9922V58H121.752V108.8H123.112L148.312 58H195.032V108.48H196.392L222.552 58H290.872Z" fill="black"/>
<path d="M692.555 186.08H712.395V72H692.555V186.08Z" fill="black"/>
<path fill-rule="evenodd" clip-rule="evenodd" d="M582.958 184.96C587.278 186.72 591.678 187.68 596.158 187.68C603.518 187.68 610.158 185.92 615.998 182.32C621.838 178.72 626.318 173.76 629.518 167.44C632.718 161.12 634.318 153.84 634.318 145.84C634.318 137.84 632.638 130.56 629.358 124.24C626.078 117.92 621.438 112.96 615.598 109.44C609.758 105.92 603.038 104.16 595.598 104.16C590.878 104.16 586.238 105.12 581.918 106.96C577.518 108.8 573.918 111.44 570.958 114.8C570.718 115.04 570.478 115.36 570.318 115.6V72.0798H550.398V186.08H570.238V175.44C570.718 176.08 571.278 176.72 571.838 177.28C574.958 180.56 578.718 183.12 583.038 184.96H582.958ZM603.358 166.48C600.078 168.48 596.398 169.44 592.238 169.44C588.078 169.44 584.318 168.4 580.878 166.4C577.438 164.32 574.718 161.44 572.638 157.84C570.638 154.24 569.678 150.16 569.678 145.6C569.678 141.04 570.638 136.96 572.558 133.36C574.558 129.68 577.358 126.88 580.798 124.88C584.238 122.88 588.078 121.84 592.238 121.92C596.398 121.92 600.158 122.88 603.358 124.8C606.638 126.72 609.198 129.52 610.958 133.2C612.718 136.8 613.678 140.88 613.678 145.6C613.678 150.32 612.798 154.4 610.958 158C609.198 161.6 606.718 164.4 603.358 166.48Z" fill="black"/>
<path d="M319.666 78.8807H342.386L362.706 153.121L384.306 78.8807H403.266L426.706 151.601L446.226 78.8807H467.026L436.306 186.081H416.706L392.866 115.041L370.946 186.081H351.106L319.586 78.8807H319.666Z" fill="black"/>
<path fill-rule="evenodd" clip-rule="evenodd" d="M500.565 188C492.645 188 485.525 186.32 479.125 182.72C472.805 179.12 467.845 174.16 464.165 167.76C460.565 161.44 458.805 154.16 458.805 146C458.805 137.84 460.645 130.96 464.325 124.48C468.005 118.08 473.045 113.04 479.365 109.44C485.685 105.84 492.725 104.08 500.485 104.08C509.205 104.08 516.885 106 523.445 109.92C530.085 113.84 534.965 119.28 538.245 126.48C541.525 133.6 542.725 141.68 541.845 150.88H479.445C479.605 154.56 480.565 157.84 482.165 160.88C484.005 164.16 486.565 166.72 489.845 168.56C493.125 170.4 496.805 171.36 500.885 171.36C504.005 171.36 506.885 170.8 509.525 169.76C512.165 168.72 514.485 167.28 516.325 165.44C518.245 163.68 519.525 161.6 520.325 159.36H541.125C539.845 164.96 537.365 169.92 533.525 174.32C529.765 178.64 524.965 182 519.285 184.48C513.525 186.88 507.285 188.08 500.485 188.08L500.565 188ZM482.245 130.88C481.045 132.88 480.245 135.12 479.845 137.44H521.205C520.885 134.48 520.005 131.76 518.485 129.36C516.725 126.48 514.325 124.32 511.365 122.72C508.325 121.12 504.965 120.32 501.205 120.32C497.205 120.32 493.525 121.28 490.245 123.12C486.965 124.96 484.325 127.6 482.405 130.88H482.245Z" fill="black"/>
<path d="M648.882 105.84C648.882 99.3602 650.402 93.5202 653.362 88.4802C656.322 83.3602 660.482 79.4402 665.842 76.6402C671.202 73.7602 677.522 72.3202 684.722 72.1602V89.8402C681.362 89.8402 678.482 90.5602 676.162 91.9202C673.842 93.2002 672.002 95.1202 670.802 97.6802C669.602 100 669.042 102.72 668.882 105.76H684.322V122.56H668.882V186H649.042V122.56H636.242V105.76H649.042L648.882 105.84Z" fill="black"/>
<path fill-rule="evenodd" clip-rule="evenodd" d="M762.965 187.84C754.885 187.84 747.605 186.08 741.205 182.56C734.885 178.96 729.845 174 726.165 167.68C722.565 161.36 720.805 154.08 720.805 146.08C720.805 138.08 722.565 130.72 726.165 124.4C729.845 118 734.805 113.04 741.205 109.44C747.605 105.92 754.885 104.16 762.965 104.16C771.045 104.16 778.405 105.92 784.805 109.44C791.285 112.96 796.325 117.92 799.845 124.32C803.445 130.64 805.285 137.92 805.285 146.08C805.285 154.16 803.445 161.36 799.845 167.68C796.325 174 791.285 178.96 784.805 182.56C778.325 186.08 771.045 187.84 762.885 187.84H762.965ZM762.965 169.6C767.205 169.6 771.045 168.64 774.325 166.72C777.605 164.72 780.165 162 782.005 158.4C783.765 154.8 784.725 150.72 784.725 146.08C784.725 141.44 783.845 137.28 782.005 133.68C780.245 130.08 777.685 127.36 774.325 125.36C771.045 123.36 767.205 122.4 762.965 122.4C758.725 122.4 754.965 123.36 751.685 125.36C748.405 127.28 745.925 130.08 744.085 133.68C742.325 137.28 741.445 141.36 741.445 146.08C741.445 150.72 742.325 154.8 744.165 158.4C746.005 161.92 748.565 164.72 751.765 166.72C755.045 168.64 758.725 169.6 762.965 169.6Z" fill="black"/>
<path d="M826.777 105.84H804.617L828.537 186.08H847.897L863.657 134.8L880.697 186.08H899.817L923.817 105.84H903.817L890.217 155.76L875.177 105.84H855.817L840.857 156.88L826.857 105.84H826.777Z" fill="black"/>
</g>
<defs>
<clipPath id="clip0_2084_3979">
<rect width="863.84" height="144" fill="white" transform="translate(59.9922 58)"/>
</clipPath>
</defs>
</svg>
